<svg width="711" height="303" viewBox="0 0 711 303" fill="none" xmlns="http://www.w3.org/2000/svg">
<mask id="mask0_378_734" style="mask-type:alpha" maskUnits="userSpaceOnUse" x="0" y="0" width="711" height="303">
<path d="M700.611 0H10.3895C4.65152 0 0 4.65153 0 10.3895V292.448C0 298.186 4.65152 302.837 10.3895 302.837H700.611C706.349 302.837 711 298.186 711 292.448V10.3895C711 4.65153 706.349 0 700.611 0Z" fill="#A44AD9"/>
</mask>
<g mask="url(#mask0_378_734)">
<g style="mix-blend-mode:multiply" opacity="0.24">
<path d="M642.828 144.172C618.532 132.098 596.853 115.355 579.029 94.9006C561.205 74.4461 547.585 50.6805 538.948 24.9612C530.311 -0.758087 526.826 -27.927 528.691 -54.9936C530.557 -82.0601 537.736 -108.494 549.82 -132.785C561.895 -157.08 578.639 -178.758 599.094 -196.581C619.549 -214.403 643.314 -228.021 669.034 -236.657C694.753 -245.293 721.921 -248.777 748.987 -246.911C776.053 -245.045 802.487 -237.864 826.777 -225.78L642.828 144.172Z" fill="#0538BF"/>
</g>
<g style="mix-blend-mode:multiply" opacity="0.4">
<path d="M760.384 129.091C738.071 132.454 715.314 131.388 693.413 125.955C671.512 120.522 650.896 110.827 632.742 97.4256C614.588 84.0238 599.251 67.1771 587.609 47.8476C575.966 28.5181 568.246 7.08444 564.888 -15.2292C561.529 -37.542 562.597 -60.2979 568.033 -82.1976C573.468 -104.097 583.164 -124.712 596.567 -142.864C609.969 -161.017 626.816 -176.352 646.145 -187.993C665.475 -199.635 686.908 -207.355 709.22 -210.713L760.384 129.091Z" fill="#0538BF"/>
</g>
<g style="mix-blend-mode:multiply">
<path d="M713.526 94.4404C695.763 91.6519 678.724 85.3909 663.382 76.0151C648.04 66.6393 634.695 54.3323 624.111 39.7975C613.527 25.2627 605.91 8.78487 601.697 -8.69455C597.483 -26.174 596.754 -44.3124 599.553 -62.0734C602.34 -79.8371 608.6 -96.8776 617.975 -112.221C627.35 -127.565 639.657 -140.91 654.192 -151.496C668.727 -162.081 685.205 -169.699 702.685 -173.914C720.165 -178.128 738.305 -178.857 756.067 -176.059L713.526 94.4404Z" fill="#0538BF"/>
</g>
<path d="M742.044 -86.9338C729.813 -88.856 717.319 -85.8406 707.311 -78.551C697.303 -71.2614 690.6 -60.2947 688.678 -48.0635C686.756 -35.8322 689.771 -23.3384 697.061 -13.3304C704.35 -3.32234 715.317 3.38 727.548 5.30225L742.044 -86.9338Z" fill="#0363D1"/>
</g>
</svg>
