<?xml version="1.0" encoding="utf-8"?>
<svg width="1439px" height="1507px" viewBox="0 0 1439 1507" version="1.1" xmlns:xlink="http://www.w3.org/1999/xlink" xmlns="http://www.w3.org/2000/svg">
  <desc>Created with Lunacy</desc>
  <g id="lines" transform="matrix(-1 0 0 1 2000.946 0)">
    <path d="M800.349 0C798.01 0 796.11 1.89933 796.11 4.24655C796.11 5.57419 796.72 6.7607 797.674 7.53976L780.54 42.0724L800.539 72.1537C799.176 73.3698 798.318 75.1404 798.318 77.1111C798.318 80.7729 801.287 83.7463 804.953 83.7463C808.439 83.7463 811.306 81.0468 811.569 77.6245L842.942 75.6426C843.456 77.4073 845.086 78.6967 847.02 78.6967C847.759 78.6967 848.453 78.508 849.058 78.1763L867.91 99.5706C867.603 100.065 867.426 100.649 867.426 101.274C867.426 101.9 867.603 102.483 867.909 102.976L842.275 132.065C841.864 131.876 841.407 131.771 840.925 131.771C839.138 131.771 837.69 133.218 837.69 135.005C837.69 136.793 839.138 138.24 840.925 138.24C840.963 138.24 841.001 138.239 841.038 138.238L850.766 167.118C846.703 168.868 843.861 172.907 843.861 177.612C843.861 181.763 846.075 185.4 849.388 187.4L829.283 227.908C828.96 227.83 828.623 227.788 828.277 227.788C825.929 227.788 824.03 229.688 824.03 232.035C824.03 233.364 824.641 234.552 825.599 235.331L811.626 263.491C810.971 263.275 810.272 263.158 809.544 263.158C806.048 263.158 803.192 265.856 802.929 269.276L778.776 270.804C777.978 265.276 773.218 261.025 767.477 261.025C765.47 261.025 763.585 261.542 761.947 262.449L747.208 240.28C747.937 239.517 748.385 238.483 748.385 237.346C748.385 236.015 747.773 234.828 746.816 234.05L760.791 205.888C761.447 206.104 762.148 206.221 762.878 206.221C766.535 206.221 769.505 203.252 769.505 199.586C769.505 195.924 766.535 192.95 762.878 192.95C762.464 192.95 762.059 192.988 761.666 193.06L753.987 170.258C755.21 169.513 756.028 168.169 756.028 166.634C756.028 164.291 754.12 162.388 751.777 162.388C750.051 162.388 748.563 163.421 747.899 164.902L720.304 159.343C720.101 158.085 719.008 157.122 717.692 157.122C716.232 157.122 715.051 158.308 715.051 159.768C715.051 160.216 715.162 160.638 715.359 161.008L695.647 183.379C695.355 183.268 695.039 183.207 694.708 183.207C693.248 183.207 692.062 184.393 692.062 185.853C692.062 187.281 693.197 188.443 694.613 188.493L702.823 212.867C700.652 213.959 699.164 216.207 699.164 218.802C699.164 220.448 699.764 221.954 700.757 223.114L683.75 242.413C683.46 242.303 683.145 242.243 682.815 242.243C681.36 242.243 680.17 243.425 680.17 244.885C680.17 246.313 681.309 247.475 682.721 247.525L691.706 274.203C690.482 274.948 689.665 276.295 689.665 277.835C689.665 280.178 691.564 282.077 693.907 282.077C696.255 282.077 698.158 280.178 698.158 277.835C698.158 275.487 696.255 273.588 693.907 273.588C693.761 273.588 693.616 273.596 693.474 273.61L684.488 246.93C685.08 246.446 685.457 245.71 685.457 244.885C685.457 244.437 685.346 244.016 685.15 243.647L702.159 224.349C703.205 225.037 704.457 225.437 705.804 225.437C709.466 225.437 712.435 222.464 712.435 218.802C712.435 215.136 709.466 212.163 705.804 212.163C705.39 212.163 704.984 212.201 704.591 212.273L696.381 187.897C696.971 187.412 697.346 186.677 697.346 185.853C697.346 185.406 697.236 184.985 697.041 184.616L716.754 162.238C717.046 162.349 717.362 162.409 717.692 162.409C718.638 162.409 719.469 161.914 719.936 161.168L747.531 166.727C747.581 169.027 749.465 170.877 751.777 170.877C751.927 170.877 752.075 170.869 752.221 170.854L759.895 193.654C757.722 194.746 756.234 196.993 756.234 199.586C756.234 201.858 757.375 203.863 759.118 205.059L745.145 233.22C744.822 233.141 744.485 233.1 744.139 233.1C741.791 233.1 739.892 234.999 739.892 237.346C739.892 239.689 741.791 241.593 744.139 241.593C744.674 241.593 745.186 241.494 745.658 241.312L760.397 263.481C757.749 265.574 756.051 268.814 756.051 272.45C756.051 278.758 761.161 283.871 767.477 283.871C768.425 283.871 769.346 283.755 770.228 283.537L795.519 358.627C791.455 360.377 788.608 364.417 788.608 369.122C788.608 372.201 789.827 374.996 791.81 377.05L739.418 436.496C737.514 435.073 735.151 434.23 732.592 434.23C727.378 434.23 722.981 437.719 721.61 442.489L643.92 426.846C643.971 426.408 643.997 425.963 643.997 425.511C643.997 422.844 643.082 420.389 641.549 418.444L666.491 390.144C667.538 390.833 668.793 391.235 670.143 391.235C673.805 391.235 676.779 388.262 676.779 384.6C676.779 384.471 676.775 384.342 676.768 384.215L697.468 380.047C698.129 381.528 699.616 382.561 701.344 382.561C703.691 382.561 705.594 380.662 705.594 378.319C705.594 376.781 704.777 375.433 703.553 374.687L710.296 354.67C710.689 354.743 711.094 354.78 711.508 354.78C715.17 354.78 718.14 351.811 718.14 348.149C718.14 344.483 715.17 341.51 711.508 341.51C707.838 341.51 704.869 344.483 704.869 348.149C704.869 350.741 706.356 352.985 708.525 354.076L701.787 374.091C701.641 374.076 701.493 374.068 701.344 374.068C699.033 374.068 697.154 375.919 697.102 378.221L676.402 382.389C675.491 379.811 673.031 377.965 670.143 377.965C669.726 377.965 669.317 378.003 668.921 378.076L654.684 335.805C656.851 334.711 658.339 332.463 658.339 329.873C658.339 326.211 655.365 323.237 651.703 323.237C648.033 323.237 645.063 326.211 645.063 329.873C645.063 333.534 648.033 336.512 651.703 336.512C652.118 336.512 652.524 336.474 652.918 336.401L667.154 378.671C664.986 379.763 663.503 382.007 663.503 384.6C663.503 386.244 664.102 387.75 665.093 388.91L640.271 417.072C638.242 415.22 635.542 414.09 632.576 414.09C631.627 414.09 630.706 414.206 629.825 414.424L603.489 336.217C605.39 335.048 606.658 332.948 606.658 330.557C606.658 326.895 603.684 323.922 600.022 323.922C597.754 323.922 595.753 325.058 594.555 326.79L560.664 319.965C560.612 317.662 558.729 315.811 556.414 315.811C556.267 315.811 556.121 315.819 555.978 315.833L546.736 288.404C550.799 286.652 553.642 282.61 553.642 277.907C553.642 274.829 552.425 272.036 550.445 269.982L575.772 241.24C576.377 241.573 577.073 241.763 577.813 241.763C580.16 241.763 582.059 239.859 582.059 237.516C582.059 235.169 580.16 233.27 577.813 233.27C577.665 233.27 577.519 233.277 577.375 233.292L563.614 192.42C565.782 191.329 567.269 189.083 567.269 186.488C567.269 182.827 564.3 179.853 560.638 179.853C557.744 179.853 555.285 181.702 554.375 184.279L512.092 175.766C512.041 173.463 510.153 171.615 507.842 171.615C505.498 171.615 503.595 173.515 503.595 175.862C503.595 176.793 503.895 177.654 504.404 178.353L475.896 210.704C474.851 210.016 473.599 209.615 472.253 209.615C468.579 209.615 465.617 212.589 465.617 216.255C465.617 219.916 468.579 222.89 472.253 222.89C475.919 222.89 478.889 219.916 478.889 216.255C478.889 214.606 478.288 213.097 477.294 211.936L505.805 179.585C506.41 179.916 507.104 180.104 507.842 180.104C509.568 180.104 511.058 179.073 511.723 177.593L554.009 186.105C554.001 186.232 553.998 186.36 553.998 186.488C553.998 190.154 556.967 193.124 560.638 193.124C561.05 193.124 561.454 193.086 561.846 193.014L575.608 233.887C574.386 234.632 573.57 235.978 573.57 237.516C573.57 238.446 573.869 239.307 574.376 240.007L549.045 268.749C547.141 267.328 544.777 266.486 542.217 266.486C535.904 266.486 530.795 271.6 530.795 277.907C530.795 284.215 535.904 289.332 542.217 289.332C543.165 289.332 544.087 289.217 544.968 288.999L554.209 316.43C552.987 317.176 552.171 318.524 552.171 320.062C552.171 320.28 552.188 320.493 552.219 320.702L521.094 332.887C520.472 332.072 519.49 331.546 518.389 331.546C517.07 331.546 515.929 332.293 515.363 333.385L479.027 326.07C478.975 323.771 477.092 321.92 474.777 321.92C474.63 321.92 474.484 321.928 474.341 321.942L445.201 235.421C447.368 234.329 448.857 232.083 448.857 229.491C448.857 225.825 445.884 222.856 442.226 222.856C439.33 222.856 436.873 224.704 435.965 227.285L358.822 211.749C358.934 210.967 358.992 210.167 358.992 209.354C358.992 200.09 351.477 192.575 342.212 192.575C332.943 192.575 325.428 200.09 325.428 209.354C325.428 214.033 327.344 218.264 330.433 221.307L278.412 280.338C277.367 279.649 276.115 279.248 274.772 279.248C271.878 279.248 269.419 281.097 268.509 283.675L211.41 272.176C211.273 270.423 209.804 269.044 208.016 269.044C206.129 269.044 204.611 270.566 204.611 272.444C204.611 273.121 204.808 273.752 205.149 274.282L166.641 317.978C165.596 317.29 164.345 316.889 163 316.889C159.33 316.889 156.361 319.863 156.361 323.524C156.361 327.19 159.33 330.16 163 330.16C166.662 330.16 169.632 327.19 169.632 323.524C169.632 321.879 169.032 320.373 168.04 319.213L206.548 275.515C206.992 275.726 207.49 275.845 208.016 275.845C209.333 275.845 210.476 275.097 211.042 274.003L268.143 285.501C268.136 285.627 268.132 285.755 268.132 285.884C268.132 289.549 271.102 292.523 274.772 292.523C275.186 292.523 275.591 292.485 275.984 292.412L294.568 347.605C293.675 348.218 293.091 349.244 293.091 350.405C293.091 351.086 293.29 351.72 293.633 352.251L258.309 392.332C256.404 390.909 254.04 390.067 251.479 390.067C246.268 390.067 241.872 393.559 240.501 398.33L188.122 387.781C187.986 386.028 186.513 384.648 184.728 384.648C182.845 384.648 181.327 386.17 181.327 388.048C181.327 388.726 181.524 389.357 181.865 389.888L143.355 433.579C142.31 432.89 141.06 432.489 139.717 432.489C136.042 432.489 133.073 435.467 133.073 439.129C133.073 442.79 136.042 445.764 139.717 445.764C143.375 445.764 146.348 442.79 146.348 439.129C146.348 437.484 145.748 435.977 144.756 434.816L183.261 391.121C183.704 391.334 184.202 391.453 184.728 391.453C186.041 391.453 187.186 390.704 187.753 389.609L240.135 400.156C240.084 400.594 240.057 401.04 240.057 401.492C240.057 407.799 245.171 412.913 251.479 412.913C252.428 412.913 253.351 412.797 254.233 412.579L270.231 460.081C268.057 461.173 266.569 463.423 266.569 466.016C266.569 467.663 267.17 469.171 268.165 470.331L229.659 514.023C229.216 513.812 228.72 513.693 228.197 513.693C226.877 513.693 225.734 514.442 225.169 515.536L172.782 504.99C172.833 504.553 172.859 504.108 172.859 503.657C172.859 497.349 167.746 492.236 161.438 492.236C155.126 492.236 150.016 497.349 150.016 503.657C150.016 506.736 151.234 509.53 153.214 511.585L117.89 551.665C117.447 551.453 116.951 551.335 116.428 551.335C114.545 551.335 113.023 552.857 113.023 554.735C113.023 554.789 113.024 554.843 113.027 554.896L32.3283 582.067C31.7148 581.176 30.6883 580.592 29.5298 580.592C27.6469 580.592 26.1207 582.114 26.1207 583.993C26.1207 585.31 26.8711 586.452 27.9688 587.017L12.7581 662.539C12.3196 662.488 11.8737 662.462 11.4216 662.462C5.10943 662.462 0 667.575 0 673.887C0 680.195 5.10943 685.308 11.4216 685.308C14.4991 685.308 17.2933 684.091 19.3481 682.112L77.1452 733.037C76.9336 733.48 76.8152 733.976 76.8152 734.5C76.8152 736.379 78.3372 737.901 80.2159 737.901C82.0947 737.901 83.6167 736.379 83.6167 734.5C83.6167 732.622 82.0947 731.1 80.2159 731.1C79.5372 731.1 78.9051 731.299 78.3744 731.641L20.5818 680.713C22.0047 678.809 22.8473 676.446 22.8473 673.887C22.8473 668.673 19.3556 664.278 14.5855 662.906L29.7989 587.383C31.5444 587.245 32.9264 585.78 32.9264 583.993C32.9264 583.94 32.9252 583.887 32.9227 583.834L113.622 556.663C114.235 557.553 115.263 558.136 116.428 558.136C117.103 558.136 117.733 557.938 118.262 557.598L179.671 611.708C178.982 612.755 178.581 614.007 178.581 615.353C178.581 618.24 180.427 620.699 183.008 621.61L172.61 673.233C170.854 673.371 169.477 674.836 169.477 676.623C169.477 678.501 170.999 680.023 172.882 680.023C173.557 680.023 174.187 679.826 174.717 679.485L214.218 714.291C213.529 715.337 213.128 716.589 213.128 717.935C213.128 721.601 216.098 724.574 219.772 724.574C223.43 724.574 226.4 721.601 226.4 717.935C226.4 714.273 223.43 711.3 219.772 711.3C218.12 711.3 216.61 711.901 215.449 712.896L175.95 678.089C176.163 677.645 176.282 677.148 176.282 676.623C176.282 675.304 175.53 674.161 174.434 673.597L184.833 621.977C184.962 621.984 185.091 621.988 185.221 621.988C188.883 621.988 191.852 619.014 191.852 615.353C191.852 614.938 191.814 614.532 191.741 614.138L238.518 598.388C239.61 600.556 241.855 602.045 244.449 602.045C246.094 602.045 247.599 601.445 248.759 600.453L288.264 635.258C288.052 635.702 287.933 636.198 287.933 636.722C287.933 638.605 289.455 640.127 291.338 640.127C293.212 640.127 294.739 638.605 294.739 636.722C294.739 634.847 293.212 633.325 291.338 633.325C290.661 633.325 290.03 633.522 289.501 633.861L249.994 599.054C250.683 598.008 251.085 596.755 251.085 595.409C251.085 591.748 248.111 588.774 244.449 588.774C240.783 588.774 237.814 591.748 237.814 595.409C237.814 595.823 237.852 596.228 237.924 596.621L191.147 612.372C190.056 610.205 187.812 608.717 185.221 608.717C183.573 608.717 182.066 609.317 180.906 610.309L119.495 556.197C119.706 555.754 119.824 555.259 119.824 554.735C119.824 554.06 119.628 553.43 119.288 552.901L154.612 512.816C156.516 514.237 158.878 515.078 161.438 515.078C166.648 515.078 171.044 511.589 172.416 506.819L224.803 517.37C224.944 519.123 226.407 520.499 228.197 520.499C230.072 520.499 231.598 518.977 231.598 517.094C231.598 516.417 231.4 515.786 231.059 515.257L269.567 471.564C270.613 472.251 271.865 472.651 273.213 472.651C276.871 472.651 279.844 469.677 279.844 466.016C279.844 462.354 276.871 459.376 273.213 459.376C272.796 459.376 272.389 459.414 271.994 459.488L255.997 411.985C260.061 410.235 262.905 406.196 262.905 401.492C262.905 398.414 261.688 395.62 259.708 393.566L295.031 353.481C295.474 353.692 295.971 353.81 296.496 353.81C298.37 353.81 299.896 352.288 299.896 350.405C299.896 348.531 298.37 347.009 296.496 347.009C296.442 347.009 296.389 347.01 296.337 347.013L277.751 291.816C279.916 290.723 281.403 288.476 281.403 285.884C281.403 284.239 280.803 282.733 279.811 281.573L331.833 222.541C334.689 224.791 338.294 226.133 342.212 226.133C350.019 226.133 356.584 220.8 358.456 213.576L435.601 229.111C435.594 229.237 435.59 229.364 435.59 229.491C435.59 233.153 438.555 236.127 442.226 236.127C442.638 236.127 443.042 236.089 443.434 236.017L472.576 322.536C471.352 323.281 470.534 324.629 470.534 326.167C470.534 327.1 470.834 327.962 471.343 328.662L444.553 359.059C444.109 358.846 443.612 358.727 443.088 358.727C441.765 358.727 440.623 359.475 440.059 360.569L411.254 354.768C411.057 353.541 410.015 352.598 408.74 352.552L399.107 323.948C399.698 323.463 400.076 322.727 400.076 321.902C400.076 320.439 398.894 319.261 397.434 319.261C395.974 319.261 394.788 320.439 394.788 321.902C394.788 323.329 395.921 324.49 397.335 324.542L406.97 353.147C406.378 353.631 406 354.367 406 355.192C406 356.656 407.182 357.838 408.642 357.838C409.591 357.838 410.421 357.342 410.888 356.595L439.693 362.398C439.738 362.974 439.927 363.511 440.223 363.971L410.982 397.149C409.936 396.459 408.682 396.057 407.334 396.057C403.668 396.057 400.699 399.03 400.699 402.696C400.699 406.358 403.668 409.331 407.334 409.331C411.001 409.331 413.97 406.358 413.97 402.696C413.97 401.051 413.372 399.544 412.38 398.384L441.622 365.203C442.066 365.414 442.562 365.532 443.088 365.532C444.4 365.532 445.541 364.784 446.108 363.691L475.506 369.611C475.721 370.418 476.403 371.034 477.248 371.147L484.226 391.864C480.164 393.615 477.322 397.654 477.322 402.356C477.322 408.664 482.435 413.777 488.748 413.777C492.898 413.777 496.531 411.564 498.531 408.253L513.194 415.529C513.185 415.615 513.181 415.703 513.181 415.792C513.181 416.782 513.725 417.646 514.53 418.1L509.268 452.797C507.591 453.01 506.298 454.439 506.298 456.17C506.298 456.28 506.303 456.388 506.313 456.495L474.62 468.906C474.03 467.893 472.931 467.211 471.679 467.211C470.811 467.211 470.019 467.535 469.419 468.068L445.486 448.947C446.072 447.958 446.409 446.804 446.409 445.572C446.409 441.906 443.435 438.937 439.769 438.937C436.103 438.937 433.134 441.906 433.134 445.572C433.134 446.099 433.195 446.611 433.311 447.102L403.475 458.779C403.036 458.327 402.423 458.046 401.748 458.046C401.141 458.046 400.586 458.268 400.162 458.635L372.512 444.919C373.033 443.612 373.319 442.187 373.319 440.694C373.319 434.386 368.206 429.269 361.898 429.269C355.586 429.269 350.476 434.386 350.476 440.694C350.476 442.698 350.992 444.582 351.898 446.219L326.192 463.308C325.809 463.052 325.349 462.903 324.855 462.903C323.52 462.903 322.442 463.985 322.442 465.317C322.442 466.372 323.119 467.268 324.066 467.595L326.536 506.772C325.53 507.362 324.855 508.455 324.855 509.705C324.855 511.584 326.377 513.11 328.26 513.11C330.135 513.11 331.657 511.584 331.657 509.705C331.657 507.865 330.197 506.368 328.376 506.307L325.926 467.476C326.721 467.082 327.269 466.263 327.269 465.317C327.269 465.161 327.254 465.008 327.226 464.861L352.932 447.771C355.023 450.417 358.261 452.115 361.898 452.115C366.049 452.115 369.683 449.9 371.683 446.588L399.331 460.304C399.328 460.355 399.326 460.407 399.326 460.459C399.326 461.795 400.408 462.873 401.748 462.873C403.053 462.873 404.128 461.824 404.157 460.514L433.99 448.834C435.129 450.847 437.29 452.207 439.769 452.207C441.531 452.207 443.134 451.52 444.323 450.4L468.413 469.648C468.323 469.954 468.274 470.277 468.274 470.612C468.274 472.011 469.118 473.212 470.327 473.734L464.999 508.855C463.803 509.109 462.912 510.168 462.912 511.438C462.912 511.449 462.912 511.46 462.912 511.471L428.526 524.933C428.244 524.73 427.9 524.611 427.528 524.611C426.578 524.611 425.811 525.378 425.811 526.328C425.811 527.277 426.578 528.045 427.528 528.045C428.353 528.045 429.048 527.455 429.207 526.67L463.591 513.208C464.073 513.744 464.773 514.08 465.554 514.08C466.496 514.08 467.326 513.584 467.793 512.839L522.807 523.915C522.944 525.669 524.409 527.051 526.201 527.051C528.071 527.051 529.606 525.525 529.606 523.647C529.606 522.969 529.406 522.337 529.061 521.807L563.442 482.792C564.489 483.483 565.744 483.885 567.094 483.885C570.752 483.885 573.725 480.912 573.725 477.25C573.725 473.584 570.752 470.61 567.094 470.61C566.675 470.61 566.265 470.649 565.868 470.723L550.324 424.567C552.489 423.474 553.977 421.229 553.977 418.639C553.977 414.977 551.003 411.999 547.346 411.999C543.671 411.999 540.702 414.977 540.702 418.639C540.702 422.3 543.671 425.274 547.346 425.274C547.759 425.274 548.164 425.236 548.557 425.163L564.104 471.319C561.938 472.413 560.454 474.658 560.454 477.25C560.454 478.894 561.053 480.4 562.046 481.56L527.66 520.576C527.217 520.365 526.722 520.246 526.201 520.246C524.882 520.246 523.74 520.995 523.175 522.088L468.161 511.01C468.029 510.203 467.531 509.519 466.844 509.133L472.174 473.976C473.775 473.741 475.022 472.386 475.078 470.729L506.993 458.231C507.615 459.046 508.597 459.571 509.703 459.571C511.577 459.571 513.104 458.049 513.104 456.17C513.104 454.796 512.286 453.612 511.113 453.076L516.375 418.38C517.571 418.125 518.469 417.062 518.469 415.792C518.469 414.332 517.283 413.15 515.823 413.15C515.127 413.15 514.495 413.419 514.023 413.858L499.361 406.583C499.883 405.276 500.169 403.85 500.169 402.356C500.169 396.049 495.056 390.935 488.748 390.935C487.798 390.935 486.875 391.051 485.992 391.269L479.013 370.546C479.39 370.166 479.624 369.643 479.624 369.067C479.624 367.91 478.682 366.973 477.529 366.973C476.854 366.973 476.256 367.289 475.874 367.782L446.478 361.862C446.434 361.287 446.246 360.751 445.95 360.292L472.74 329.893C473.344 330.225 474.039 330.413 474.777 330.413C476.507 330.413 477.996 329.381 478.66 327.898L514.994 335.214C515.13 336.968 516.596 338.348 518.389 338.348C520.263 338.348 521.789 336.826 521.789 334.947C521.789 334.837 521.784 334.728 521.774 334.62L552.897 322.436C553.66 323.564 554.951 324.304 556.414 324.304C558.144 324.304 559.633 323.272 560.297 321.791L593.702 328.518C593.495 329.16 593.383 329.846 593.383 330.557C593.383 334.219 596.352 337.196 600.022 337.196C600.628 337.196 601.216 337.115 601.774 336.962L628.058 415.019C623.997 416.771 621.154 420.811 621.154 425.511C621.154 431.819 626.268 436.936 632.576 436.936C637.791 436.936 642.184 433.443 643.555 428.672L721.243 444.318C721.192 444.756 721.166 445.2 721.166 445.651C721.166 451.959 726.28 457.076 732.592 457.076C733.541 457.076 734.463 456.96 735.345 456.742L749.943 500.098C747.775 501.19 746.289 503.437 746.289 506.028C746.289 509.52 748.983 512.38 752.408 512.643L754.021 538.243C752.701 538.71 751.756 539.969 751.756 541.449C751.756 541.81 751.813 542.158 751.917 542.484L727.81 558.514C727.216 558.006 726.445 557.698 725.602 557.698C724.603 557.698 723.706 558.128 723.084 558.81L700.108 547.413C700.325 546.757 700.443 546.056 700.443 545.327C700.443 541.661 697.47 538.688 693.812 538.688C690.141 538.688 687.172 541.661 687.172 545.327C687.172 548.989 690.141 551.962 693.812 551.962C696.077 551.962 698.08 550.822 699.277 549.083L722.253 560.481C722.216 560.681 722.197 560.888 722.197 561.099C722.197 562.978 723.719 564.504 725.602 564.504C727.481 564.504 729.003 562.978 729.003 561.099C729.003 560.739 728.946 560.391 728.842 560.065L752.954 544.04C753.548 544.545 754.317 544.85 755.157 544.85C757.032 544.85 758.562 543.328 758.562 541.449C758.562 539.821 757.412 538.461 755.885 538.127L754.267 512.527C756.557 512.057 758.416 510.407 759.182 508.241L811.141 518.703C811.191 521.002 813.071 522.855 815.387 522.855C817.726 522.855 819.63 520.951 819.63 518.608C819.63 517.677 819.33 516.817 818.822 516.117L853.863 476.358C854.91 477.047 856.163 477.448 857.511 477.448C861.173 477.448 864.143 474.474 864.143 470.812C864.143 467.147 861.173 464.173 857.511 464.173C853.841 464.173 850.871 467.147 850.871 470.812C850.871 472.458 851.471 473.964 852.464 475.124L817.424 514.883C816.819 514.551 816.124 514.362 815.387 514.362C813.657 514.362 812.171 515.393 811.508 516.875L759.549 506.415C759.556 506.287 759.56 506.158 759.56 506.028C759.56 502.366 756.59 499.392 752.924 499.392C752.509 499.392 752.104 499.43 751.71 499.503L737.11 456.146C741.168 454.393 744.009 450.353 744.009 445.651C744.009 442.576 742.794 439.784 740.817 437.731L793.209 378.282C795.114 379.702 797.476 380.542 800.033 380.542C806.341 380.542 811.455 375.429 811.455 369.122C811.455 362.814 806.341 357.701 800.033 357.701C799.087 357.701 798.167 357.816 797.288 358.033L771.997 282.94C775.991 281.214 778.809 277.272 778.892 272.662L803.045 271.139C803.666 274.157 806.336 276.433 809.544 276.433C813.211 276.433 816.176 273.455 816.176 269.793C816.176 267.523 815.036 265.517 813.296 264.321L827.27 236.161C827.592 236.24 827.93 236.281 828.277 236.281C828.812 236.281 829.324 236.182 829.796 236.002L854.831 273.665C852.184 275.756 850.487 278.994 850.487 282.627C850.487 286.779 852.7 290.414 856.013 292.415L842.101 320.453L862.102 350.536C860.737 351.752 859.879 353.524 859.879 355.496C859.879 359.158 862.844 362.131 866.519 362.131C870.004 362.131 872.864 359.432 873.126 356.01L904.502 354.031C905.017 355.795 906.646 357.086 908.579 357.086C909.318 357.086 910.013 356.896 910.618 356.563L929.883 378.417C929.686 378.787 929.574 379.21 929.574 379.659C929.574 380.485 929.954 381.221 930.547 381.705L921.24 409.318C921.096 409.303 920.95 409.295 920.802 409.295C918.459 409.295 916.555 411.195 916.555 413.542C916.555 415.885 918.459 417.784 920.802 417.784C923.149 417.784 925.053 415.885 925.053 413.542C925.053 412.002 924.234 410.655 923.007 409.91L932.311 382.299C933.729 382.251 934.858 381.088 934.858 379.659C934.858 378.195 933.68 377.013 932.22 377.013C931.889 377.013 931.571 377.074 931.278 377.186L912.016 355.328C912.523 354.628 912.822 353.768 912.822 352.839C912.822 350.492 910.922 348.593 908.579 348.593C906.46 348.593 904.705 350.141 904.385 352.169L873.009 354.15C872.388 351.129 869.716 348.856 866.519 348.856C865.492 348.856 864.521 349.088 863.654 349.503L844.249 320.32L857.683 293.246C858.99 293.766 860.415 294.052 861.908 294.052C868.148 294.052 873.213 289.051 873.328 282.842L918.479 279.993C918.994 281.751 920.619 283.034 922.544 283.034C922.69 283.034 922.836 283.027 922.979 283.012L932.287 310.636C931.693 311.12 931.314 311.857 931.314 312.683C931.314 314.143 932.5 315.329 933.96 315.329C935.42 315.329 936.602 314.143 936.602 312.683C936.602 311.255 935.471 310.094 934.056 310.043L924.746 282.416C925.962 281.672 926.774 280.331 926.774 278.8C926.774 277.477 926.165 276.294 925.213 275.517L947.462 230.686C948.117 230.903 948.818 231.02 949.547 231.02C951.518 231.02 953.289 230.159 954.505 228.793L990.846 252.942C990.665 253.413 990.566 253.923 990.566 254.457C990.566 256.792 992.461 258.691 994.801 258.691C994.948 258.691 995.093 258.684 995.236 258.669L1010.47 303.909C1009.88 304.394 1009.5 305.129 1009.5 305.954C1009.5 307.414 1010.68 308.596 1012.15 308.596C1013.6 308.596 1014.78 307.414 1014.78 305.954C1014.78 304.522 1013.65 303.359 1012.24 303.31L997.004 258.073C998.222 257.328 999.035 255.986 999.035 254.457C999.035 254.112 998.993 253.777 998.915 253.455L1041.68 232.239C1042.15 232.678 1042.78 232.947 1043.48 232.947C1044.94 232.947 1046.12 231.761 1046.12 230.301C1046.12 228.842 1044.94 227.66 1043.48 227.66C1042.02 227.66 1040.83 228.842 1040.83 230.301C1040.83 230.392 1040.83 230.482 1040.84 230.57L998.083 251.784C997.307 250.832 996.125 250.223 994.801 250.223C993.667 250.223 992.638 250.669 991.878 251.394L955.537 227.24C955.951 226.375 956.182 225.407 956.182 224.385C956.182 220.719 953.209 217.746 949.547 217.746C945.876 217.746 942.911 220.719 942.911 224.385C942.911 226.655 944.05 228.66 945.791 229.857L923.544 274.686C923.223 274.608 922.888 274.566 922.544 274.566C920.433 274.566 918.684 276.113 918.362 278.13L873.212 280.981C872.414 275.457 867.661 271.21 861.908 271.21C859.903 271.21 858.02 271.726 856.383 272.632L831.348 234.972C832.081 234.209 832.532 233.174 832.532 232.035C832.532 230.702 831.916 229.513 830.955 228.735L851.055 188.229C852.362 188.75 853.789 189.037 855.282 189.037C861.595 189.037 866.708 183.919 866.708 177.612C866.708 171.304 861.595 166.191 855.282 166.191C854.334 166.191 853.413 166.306 852.532 166.524L842.801 137.641C843.625 137.055 844.164 136.093 844.164 135.005C844.164 134.378 843.985 133.793 843.675 133.297L869.307 104.212C869.717 104.4 870.173 104.505 870.653 104.505C871.888 104.505 872.966 103.815 873.513 102.799L909.205 109.984C909.203 110.04 909.203 110.096 909.203 110.152C909.203 113.204 911.683 115.692 914.743 115.692C915.035 115.692 915.322 115.669 915.602 115.625L928.202 153.06L929.088 152.761L928.675 153.597L977.825 177.99L1014.05 153.918C1016.14 156.566 1019.38 158.266 1023.02 158.266C1026.66 158.266 1029.89 156.566 1031.99 153.918L1068.21 177.99L1111.47 156.517C1112.67 158.256 1114.67 159.397 1116.94 159.397C1118.59 159.397 1120.1 158.797 1121.26 157.805L1145.42 179.111C1145.09 179.713 1144.91 180.404 1144.91 181.139C1144.91 182.856 1145.93 184.337 1147.4 185.001L1139.86 222.492L1102.04 235.218C1101.55 234.624 1100.82 234.245 1100 234.245C1098.53 234.245 1097.35 235.431 1097.35 236.891C1097.35 238.35 1098.53 239.532 1100 239.532C1101.42 239.532 1102.58 238.402 1102.63 236.987L1141.48 223.914L1149.23 185.372C1151.53 185.323 1153.37 183.443 1153.37 181.139C1153.37 178.8 1151.48 176.905 1149.14 176.905C1148.21 176.905 1147.35 177.203 1146.66 177.71L1122.49 156.406C1123.18 155.36 1123.58 154.107 1123.58 152.762C1123.58 149.1 1120.61 146.126 1116.94 146.126C1113.28 146.126 1110.31 149.1 1110.31 152.762C1110.31 153.49 1110.43 154.191 1110.64 154.847L1068.34 175.842L1033.02 152.365C1033.93 150.728 1034.44 148.845 1034.44 146.841C1034.44 140.602 1029.43 135.527 1023.23 135.418L1020.94 99.1134C1023.95 98.4926 1026.23 95.8129 1026.23 92.6096C1026.23 91.5856 1026 90.6154 1025.58 89.749L1061.93 65.5948C1062.69 66.3224 1063.72 66.77 1064.86 66.77C1066.57 66.77 1068.05 65.7409 1068.72 64.2665L1106.73 71.923L1106.92 71.0064L1107.62 71.6244L1133.26 42.5324C1133.86 42.8635 1134.55 43.052 1135.29 43.052C1137.02 43.052 1138.5 42.0201 1139.16 40.5425L1171.7 47.0966C1171.7 47.1608 1171.7 47.2253 1171.7 47.2901C1171.7 50.4169 1174.23 52.9508 1177.37 52.9508C1177.67 52.9508 1177.97 52.9265 1178.26 52.8799L1190.17 88.2539L1191.05 87.9552L1190.87 88.8736L1221.7 95.0833C1221.65 95.5213 1221.63 95.967 1221.63 96.4187C1221.63 102.726 1226.74 107.84 1233.05 107.84C1239.36 107.84 1244.48 102.726 1244.48 96.4187C1244.48 93.3615 1243.27 90.5849 1241.32 88.535L1262 65.3061L1260.79 64.2358L1262.01 65.3028L1286.69 37.3056C1287.55 37.8476 1288.58 38.161 1289.67 38.161C1292.09 38.161 1294.16 36.6449 1294.97 34.5126L1328.27 41.219C1328.39 43.0276 1329.9 44.4582 1331.75 44.4582C1331.81 44.4582 1331.87 44.4565 1331.93 44.4533L1343.79 79.6786C1343.23 80.1485 1342.88 80.8531 1342.88 81.6388C1342.88 83.0488 1344.03 84.1934 1345.44 84.1934C1346.85 84.1934 1347.99 83.0488 1347.99 81.6388C1347.99 80.2708 1346.91 79.1487 1345.56 79.0831L1333.7 43.8577C1334.63 43.23 1335.24 42.1704 1335.24 40.9706C1335.24 39.0463 1333.67 37.4829 1331.75 37.4829C1330.39 37.4829 1329.21 38.2601 1328.63 39.3929L1295.34 32.6879C1295.34 32.6242 1295.34 32.5603 1295.34 32.4961C1295.34 29.3693 1292.8 26.8313 1289.67 26.8313C1286.55 26.8313 1284.02 29.3693 1284.02 32.4961C1284.02 33.8529 1284.49 35.0989 1285.29 36.0747L1260.6 64.0712L1239.93 87.2975C1238.01 85.8538 1235.63 84.9978 1233.05 84.9978C1227.83 84.9978 1223.44 88.4873 1222.07 93.257L1191.77 87.1527L1180.02 52.2881C1181.81 51.3359 1183.02 49.4552 1183.02 47.2901C1183.02 44.1632 1180.49 41.6294 1177.37 41.6294C1174.94 41.6294 1172.88 43.1422 1172.07 45.2725L1139.52 38.7182C1139.47 36.4253 1137.6 34.5837 1135.29 34.5837C1132.95 34.5837 1131.06 36.4789 1131.06 38.8178C1131.06 39.7431 1131.36 40.6 1131.86 41.2974L1106.57 69.9876L1069.08 62.4375C1069.04 60.3722 1067.51 58.6676 1065.52 58.3535L1062.51 10.6971C1063.41 10.2755 1064.03 9.36307 1064.03 8.30449C1064.03 6.84474 1062.85 5.65869 1061.39 5.65869C1059.93 5.65869 1058.75 6.84474 1058.75 8.30449C1058.75 9.50668 1059.55 10.5204 1060.65 10.8407L1063.66 58.4729C1061.9 58.9893 1060.62 60.6152 1060.62 62.5359C1060.62 63.0671 1060.71 63.5757 1060.89 64.0446L1024.55 88.1942C1023.33 86.8324 1021.57 85.9744 1019.6 85.9744C1015.93 85.9744 1012.96 88.9478 1012.96 92.6096C1012.96 96.0947 1015.65 98.96 1019.08 99.2284L1021.37 135.535C1015.84 136.337 1011.59 141.095 1011.59 146.841C1011.59 148.845 1012.11 150.728 1013.02 152.366L977.696 175.842L929.85 152.1L917.368 115.03C919.103 114.092 920.284 112.256 920.284 110.152C920.284 108.042 919.104 106.208 917.369 105.272L926.247 78.9087C927.664 78.8605 928.801 77.7017 928.801 76.2686C928.801 76.0645 928.778 75.8659 928.734 75.6752L967.382 49.9937C968.393 51.0653 969.827 51.7349 971.418 51.7349C974.47 51.7349 976.959 49.2508 976.959 46.1945C976.959 43.1381 974.47 40.6541 971.418 40.6541C968.353 40.6541 965.873 43.1381 965.873 46.1945C965.873 46.9941 966.043 47.7546 966.348 48.4417L927.696 74.1211C927.262 73.81 926.73 73.627 926.155 73.627C924.695 73.627 923.517 74.8089 923.517 76.2686C923.517 77.0939 923.892 77.8283 924.48 78.312L915.602 104.677C915.322 104.634 915.035 104.611 914.743 104.611C912.385 104.611 910.372 106.083 909.572 108.158L873.882 100.971C873.728 99.3263 872.338 98.0398 870.653 98.0398C870.173 98.0398 869.717 98.1451 869.307 98.334L850.457 76.9419C850.964 76.243 851.263 75.3836 851.263 74.4543C851.263 72.1071 849.363 70.2078 847.02 70.2078C844.901 70.2078 843.147 71.756 842.826 73.7842L811.452 75.7644C810.829 72.7438 808.151 70.4717 804.953 70.4717C803.928 70.4717 802.958 70.7042 802.091 71.1192L782.688 41.9356L799.342 8.37228C799.665 8.45123 800.002 8.49309 800.349 8.49309C802.696 8.49309 804.6 6.58961 804.6 4.24655C804.6 1.89933 802.696 0 800.349 0ZM1425.92 408.303C1425.92 408.77 1425.82 409.212 1425.63 409.606L1477.01 454.882C1478.84 453.123 1481.33 452.04 1484.06 452.04C1489.67 452.04 1494.22 456.59 1494.22 462.196C1494.22 467.803 1489.67 472.352 1484.06 472.352C1483.66 472.352 1483.26 472.329 1482.87 472.284L1469.35 539.427C1470.33 539.928 1471 540.946 1471 542.118C1471 543.785 1469.64 545.141 1467.97 545.141C1466.94 545.141 1466.02 544.622 1465.47 543.831L1393.73 567.989C1393.73 568.036 1393.73 568.082 1393.73 568.13C1393.73 569.797 1392.38 571.153 1390.71 571.153C1390.24 571.153 1389.8 571.047 1389.4 570.859L1358 606.499C1359.75 608.326 1360.84 610.809 1360.84 613.544C1360.84 619.155 1356.29 623.7 1350.68 623.7C1345.08 623.7 1340.53 619.155 1340.53 613.544C1340.53 613.143 1340.55 612.747 1340.6 612.358L1294.02 602.981C1293.52 603.954 1292.5 604.62 1291.33 604.62C1290.86 604.62 1290.42 604.514 1290.03 604.325L1255.8 643.177C1256.68 644.208 1257.21 645.548 1257.21 647.012C1257.21 649.315 1255.89 651.311 1253.96 652.282L1268.18 694.52C1268.97 694.326 1269.79 694.224 1270.63 694.224C1276.24 694.224 1280.78 698.773 1280.78 704.38C1280.78 704.781 1280.76 705.177 1280.71 705.566L1327.29 714.943C1327.79 713.97 1328.8 713.306 1329.98 713.306C1330.44 713.306 1330.89 713.412 1331.28 713.601L1365.51 674.75C1364.63 673.719 1364.1 672.379 1364.1 670.914C1364.1 667.655 1366.74 665.013 1370 665.013C1373.26 665.013 1375.91 667.655 1375.91 670.914C1375.91 674.174 1373.26 676.815 1370 676.815C1368.8 676.815 1367.69 676.459 1366.76 675.848L1332.52 714.694C1332.82 715.166 1333 715.727 1333 716.329C1333 718 1331.65 719.352 1329.98 719.352C1328.38 719.352 1327.08 718.127 1326.96 716.567L1280.39 707.187C1279.17 711.429 1275.26 714.536 1270.63 714.536C1268.35 714.536 1266.25 713.788 1264.56 712.524L1233.15 748.16C1233.46 748.631 1233.63 749.193 1233.63 749.797C1233.63 750.829 1233.12 751.743 1232.32 752.288L1248.85 801.362C1249.19 801.299 1249.55 801.265 1249.92 801.265C1253.19 801.265 1255.83 803.903 1255.83 807.158C1255.83 807.274 1255.82 807.39 1255.82 807.504L1306.58 817.729C1307.08 816.756 1308.1 816.088 1309.27 816.088C1309.74 816.088 1310.18 816.195 1310.58 816.385L1344.82 777.539C1343.93 776.506 1343.39 775.163 1343.39 773.697C1343.39 770.441 1346.04 767.796 1349.29 767.796C1352.56 767.796 1355.19 770.441 1355.19 773.697C1355.19 776.952 1352.56 779.598 1349.29 779.598C1348.1 779.598 1346.99 779.243 1346.06 778.633L1311.82 817.48C1312.12 817.952 1312.3 818.514 1312.3 819.115C1312.3 820.782 1310.95 822.134 1309.27 822.134C1307.68 822.134 1306.38 820.909 1306.25 819.353L1255.49 809.128C1254.68 811.421 1252.49 813.06 1249.92 813.06C1248.72 813.06 1247.61 812.705 1246.68 812.094L1200.43 864.574C1203.18 867.28 1204.88 871.044 1204.88 875.205C1204.88 883.45 1198.21 890.131 1189.95 890.131C1181.71 890.131 1175.04 883.45 1175.04 875.205C1175.04 874.483 1175.09 873.772 1175.19 873.077L1106.61 859.268C1105.8 861.56 1103.61 863.202 1101.04 863.202C1097.79 863.202 1095.14 860.561 1095.14 857.301C1095.14 854.998 1096.46 853.002 1098.39 852.032L1072.49 775.112C1072.36 775.125 1072.23 775.132 1072.1 775.132C1070.04 775.132 1068.36 773.476 1068.32 771.432L1036.02 764.93C1035.51 765.901 1034.5 766.565 1033.32 766.565C1032.34 766.565 1031.47 766.098 1030.92 765.374L1003.25 776.208C1003.27 776.393 1003.29 776.582 1003.29 776.774C1003.29 778.141 1002.56 779.341 1001.47 780.005L1009.69 804.394C1010.47 804.2 1011.29 804.097 1012.14 804.097C1017.74 804.097 1022.29 808.647 1022.29 814.258C1022.29 819.86 1017.74 824.414 1012.14 824.414C1009.86 824.414 1007.76 823.664 1006.06 822.4L983.543 847.954C983.994 848.575 984.26 849.34 984.26 850.165C984.26 851.536 983.536 852.736 982.448 853.399L994.684 889.733C995.035 889.668 995.396 889.634 995.766 889.634C999.026 889.634 1001.66 892.284 1001.66 895.535C1001.66 895.649 1001.66 895.761 1001.65 895.872L1039.25 903.445C1039.84 902.126 1041.16 901.21 1042.7 901.21C1043.36 901.21 1043.97 901.378 1044.51 901.673L1069.86 872.911C1068.98 871.879 1068.44 870.537 1068.44 869.07C1068.44 865.819 1071.09 863.169 1074.34 863.169C1077.6 863.169 1080.24 865.819 1080.24 869.07C1080.24 872.334 1077.6 874.975 1074.34 874.975C1073.14 874.975 1072.03 874.618 1071.1 874.004L1045.75 902.765C1046.21 903.387 1046.47 904.153 1046.47 904.984C1046.47 907.074 1044.78 908.766 1042.7 908.766C1040.64 908.766 1038.97 907.12 1038.92 905.07L1001.33 897.496C1000.52 899.787 998.337 901.428 995.766 901.428C992.502 901.428 989.86 898.791 989.86 895.535C989.86 893.233 991.185 891.232 993.117 890.26L980.875 853.928C980.747 853.941 980.618 853.947 980.486 853.947C978.408 853.947 976.716 852.255 976.716 850.165C976.716 848.088 978.408 846.396 980.486 846.396C981.144 846.396 981.761 846.563 982.298 846.857L1004.82 821.302C1003.06 819.475 1001.98 816.991 1001.98 814.258C1001.98 810.073 1004.5 806.479 1008.12 804.922L999.904 780.536C999.776 780.55 999.645 780.556 999.513 780.556C997.453 780.556 995.784 778.908 995.736 776.864L965.598 770.797C964.533 772.334 962.755 773.341 960.741 773.341C957.485 773.341 954.844 770.703 954.844 767.448C954.844 765.317 955.969 763.453 957.657 762.416L934.241 692.877C933.458 693.07 932.639 693.173 931.797 693.173C929.162 693.173 926.761 692.17 924.956 690.524L902.887 715.566C903.768 716.597 904.3 717.935 904.3 719.397C904.3 721.702 902.98 723.697 901.054 724.666L913.712 762.253C914.063 762.188 914.425 762.154 914.795 762.154C918.055 762.154 920.693 764.8 920.693 768.055C920.693 771.311 918.055 773.956 914.795 773.956C911.535 773.956 908.894 771.311 908.894 768.055C908.894 765.753 910.215 763.755 912.143 762.783L899.486 725.195C899.134 725.26 898.772 725.294 898.402 725.294C895.832 725.294 893.646 723.654 892.836 721.362L874.428 725.068C874.383 727.111 872.708 728.761 870.655 728.761C870.523 728.761 870.393 728.755 870.265 728.742L864.271 746.535C866.198 747.505 867.519 749.502 867.519 751.806C867.519 755.065 864.882 757.707 861.622 757.707C858.362 757.707 855.72 755.065 855.72 751.806C855.72 748.55 858.362 745.908 861.622 745.908C861.991 745.908 862.352 745.942 862.702 746.007L868.692 728.212C867.602 727.548 866.876 726.349 866.876 724.983C866.876 722.897 868.564 721.206 870.655 721.206C872.189 721.206 873.512 722.125 874.101 723.443L892.51 719.737C892.504 719.625 892.501 719.511 892.501 719.397C892.501 716.141 895.143 713.5 898.402 713.5C899.6 713.5 900.713 713.856 901.643 714.468L923.819 689.304C922.454 687.575 921.64 685.393 921.64 683.021C921.64 682.62 921.663 682.224 921.708 681.834L852.634 667.926C851.416 672.167 847.51 675.271 842.871 675.271C840.596 675.271 838.495 674.521 836.802 673.254L790.224 726.11C791.987 727.935 793.071 730.419 793.071 733.156C793.071 737.339 790.542 740.93 786.928 742.487L809.414 809.252C810.198 809.058 811.017 808.956 811.86 808.956C817.471 808.956 822.017 813.505 822.017 819.108C822.017 822.338 820.508 825.218 818.155 827.078L831.26 846.79C831.679 846.629 832.135 846.541 832.61 846.541C834.692 846.541 836.385 848.233 836.385 850.319C836.385 852.401 834.692 854.093 832.61 854.093C832.301 854.093 832.001 854.056 831.713 853.986L819.289 879.024C820.838 880.087 821.852 881.868 821.852 883.884C821.852 886.196 820.529 888.196 818.597 889.166L825.423 909.435C825.552 909.422 825.683 909.415 825.816 909.415C827.876 909.415 829.552 911.061 829.593 913.107L854.128 918.044C854.543 917.384 855.279 916.945 856.118 916.945C856.41 916.945 856.69 916.998 856.948 917.094L874.483 897.204C874.308 896.875 874.209 896.5 874.209 896.103C874.209 895.365 874.546 894.71 875.075 894.28L867.773 872.608C867.422 872.673 867.06 872.707 866.69 872.707C863.435 872.707 860.793 870.066 860.793 866.802C860.793 863.551 863.435 860.901 866.69 860.901C867.889 860.901 869.004 861.259 869.935 861.874L885.054 844.711C884.882 844.384 884.784 844.012 884.784 843.617C884.784 842.881 885.119 842.225 885.643 841.794L877.653 818.077C877.526 818.089 877.397 818.096 877.266 818.096C875.18 818.096 873.488 816.404 873.488 814.322C873.488 812.236 875.18 810.54 877.266 810.54C879.352 810.54 881.04 812.236 881.04 814.322C881.04 815.689 880.313 816.887 879.223 817.55L887.21 841.263C888.474 841.307 889.483 842.343 889.483 843.617C889.483 844.911 888.429 845.964 887.127 845.964C886.834 845.964 886.553 845.91 886.295 845.811L871.175 862.969C872.058 864.002 872.592 865.341 872.592 866.802C872.592 869.111 871.269 871.109 869.341 872.08L876.646 893.757C877.901 893.802 878.908 894.829 878.908 896.103C878.908 897.397 877.855 898.45 876.561 898.45C876.266 898.45 875.985 898.396 875.726 898.298L858.194 918.185C858.37 918.514 858.47 918.889 858.47 919.288C858.47 920.59 857.42 921.643 856.118 921.643C854.949 921.643 853.981 920.789 853.801 919.667L829.267 914.727C828.677 916.047 827.354 916.967 825.816 916.967C823.734 916.967 822.038 915.275 822.038 913.185C822.038 911.82 822.766 910.625 823.855 909.963L817.033 889.691C816.682 889.756 816.321 889.79 815.951 889.79C812.695 889.79 810.054 887.148 810.054 883.884C810.054 880.633 812.695 877.991 815.951 877.991C816.599 877.991 817.222 878.096 817.805 878.288L830.228 853.247C829.376 852.555 828.832 851.5 828.832 850.319C828.832 849.307 829.231 848.388 829.879 847.709L816.774 827.998C815.318 828.804 813.643 829.264 811.86 829.264C806.75 829.264 802.519 825.486 801.808 820.572L780.339 821.926C780.107 824.972 777.565 827.368 774.454 827.368C773.807 827.368 773.185 827.263 772.603 827.071L760.183 852.111C761.034 852.802 761.578 853.856 761.578 855.041C761.578 857.123 759.886 858.819 757.8 858.819C757.493 858.819 757.196 858.783 756.911 858.714L739.036 894.727C741.979 896.506 743.946 899.738 743.946 903.429C743.946 907.609 741.419 911.198 737.809 912.755L746.461 938.438C746.493 938.437 746.524 938.437 746.556 938.437C748.14 938.437 749.43 939.722 749.43 941.311C749.43 942.899 748.14 944.184 746.556 944.184C746.127 944.184 745.72 944.091 745.354 943.923L722.561 969.781C722.836 970.221 722.995 970.74 722.995 971.296C722.995 971.853 722.836 972.373 722.562 972.815L739.322 991.833C739.861 991.536 740.48 991.367 741.14 991.367C742.859 991.367 744.307 992.516 744.764 994.089L772.657 992.325C772.892 989.283 775.436 986.883 778.537 986.883C781.801 986.883 784.438 989.528 784.438 992.784C784.438 994.534 783.676 996.108 782.463 997.19L800.24 1023.94L800.032 1024.36L785.007 1054.64C785.859 1055.33 786.402 1056.38 786.402 1057.56C786.402 1059.65 784.715 1061.34 782.628 1061.34C780.542 1061.34 778.85 1059.65 778.85 1057.56C778.85 1055.48 780.542 1053.8 782.628 1053.8C782.937 1053.8 783.237 1053.83 783.524 1053.9L798.332 1024.06L781.081 998.11C780.311 998.479 779.448 998.685 778.537 998.685C775.691 998.685 773.314 996.664 772.761 993.981L744.867 995.744C744.581 997.54 743.022 998.918 741.14 998.918C739.054 998.918 737.366 997.227 737.366 995.149C737.366 994.32 737.631 993.554 738.081 992.932L721.321 973.914C720.956 974.083 720.549 974.178 720.12 974.178C718.627 974.178 717.395 973.028 717.259 971.565L685.523 965.177C684.81 967.022 683.019 968.333 680.921 968.333C680.661 968.333 680.407 968.313 680.159 968.274L672.267 991.712C672.793 992.143 673.128 992.798 673.128 993.529C673.128 994.823 672.079 995.885 670.781 995.885C670.27 995.885 669.797 995.72 669.412 995.442L635.042 1018.27C635.312 1018.88 635.463 1019.56 635.463 1020.27C635.463 1022.99 633.261 1025.19 630.54 1025.19C627.824 1025.19 625.613 1022.99 625.613 1020.27C625.613 1017.55 627.824 1015.35 630.54 1015.35C631.954 1015.35 633.228 1015.94 634.125 1016.9L668.49 994.058C668.45 993.888 668.429 993.711 668.429 993.529C668.429 992.263 669.438 991.227 670.697 991.183L678.589 967.744C677.05 966.91 676.002 965.278 676.002 963.403C676.002 961.535 677.051 959.903 678.592 959.069L667.494 926.109L624.956 905.002L593.553 925.875C594.358 927.33 594.816 929.004 594.816 930.785C594.816 935.889 591.044 940.119 586.126 940.831L588.163 973.119C591.208 973.354 593.601 975.905 593.601 979.003C593.601 982.258 590.964 984.908 587.704 984.908C585.95 984.908 584.375 984.141 583.294 982.925L550.983 1004.4C551.142 1004.81 551.229 1005.26 551.229 1005.74C551.229 1007.45 550.09 1008.89 548.527 1009.35L551.198 1051.7C552.177 1051.99 552.894 1052.89 552.894 1053.96C552.894 1055.26 551.841 1056.3 550.543 1056.3C549.245 1056.3 548.195 1055.26 548.195 1053.96C548.195 1053.02 548.747 1052.21 549.545 1051.83L546.871 1009.45C545.105 1009.17 543.752 1007.67 543.707 1005.83L510.377 999.114L487.888 1024.62C488.337 1025.24 488.602 1026 488.602 1026.83C488.602 1028.91 486.922 1030.59 484.836 1030.59C482.788 1030.59 481.122 1028.96 481.075 1026.91L452.141 1021.09C451.421 1022.98 449.588 1024.33 447.434 1024.33C444.656 1024.33 442.399 1022.07 442.399 1019.3C442.399 1017.37 443.479 1015.7 445.064 1014.85L434.63 983.855L407.684 978.425C406.466 982.666 402.557 985.773 397.92 985.773C395.625 985.773 393.509 985.011 391.808 983.727L373.422 1004.38L373.425 1004.38L351.478 1029.27C352.184 1030.14 352.607 1031.24 352.607 1032.44C352.607 1035.23 350.355 1037.48 347.572 1037.48C344.793 1037.48 342.537 1035.23 342.537 1032.44C342.537 1032.39 342.538 1032.33 342.54 1032.28L312.942 1026.31C312.431 1027.32 311.383 1028.02 310.174 1028.02C308.461 1028.02 307.072 1026.62 307.072 1024.92C307.072 1023.84 307.613 1022.9 308.436 1022.35L297.887 991.024C296.683 990.966 295.73 989.977 295.73 988.758C295.73 987.502 296.742 986.486 297.999 986.486C299.255 986.486 300.276 987.502 300.276 988.758C300.276 989.46 299.958 990.085 299.458 990.5L310.006 1021.82C310.062 1021.82 310.118 1021.82 310.174 1021.82C311.812 1021.82 313.153 1023.08 313.268 1024.69L342.866 1030.65C343.59 1028.76 345.425 1027.41 347.572 1027.41C348.55 1027.41 349.464 1027.69 350.236 1028.17L372.181 1003.28L372.989 1003.99L372.182 1003.28L390.571 982.624C388.834 980.802 387.767 978.335 387.767 975.621C387.767 970.01 392.312 965.461 397.92 965.461C403.531 965.461 408.076 970.01 408.076 975.621C408.076 976.019 408.053 976.413 408.008 976.799L435.432 982.325L435.264 983.144L436.052 982.876L446.638 1014.32C446.897 1014.28 447.163 1014.26 447.434 1014.26C450.221 1014.26 452.469 1016.51 452.469 1019.3C452.469 1019.35 452.468 1019.41 452.466 1019.46L481.401 1025.29C481.988 1023.98 483.305 1023.07 484.836 1023.07C485.492 1023.07 486.108 1023.24 486.644 1023.53L509.446 997.656L510.069 998.208L510.235 997.397L544.035 1004.2C544.622 1002.89 545.935 1001.98 547.464 1001.98C548.472 1001.98 549.388 1002.38 550.063 1003.02L582.379 981.55C582.009 980.778 581.802 979.914 581.802 979.003C581.802 976.16 583.822 973.777 586.508 973.223L584.47 940.935C578.953 940.836 574.507 936.326 574.507 930.785C574.507 929.002 574.966 927.327 575.772 925.872L544.367 904.999L506.75 923.664C506.944 924.249 507.049 924.875 507.049 925.525C507.049 928.776 504.412 931.426 501.152 931.426C497.892 931.426 495.25 928.776 495.25 925.525C495.25 924.329 495.607 923.215 496.219 922.284L474.73 903.34C474.11 903.787 473.348 904.051 472.521 904.051C470.448 904.051 468.76 902.368 468.76 900.298C468.76 898.244 470.403 896.577 472.439 896.534L479.343 862.263L513.874 850.64C513.918 849.378 514.95 848.381 516.224 848.381C517.518 848.381 518.572 849.422 518.572 850.724C518.572 852.018 517.518 853.072 516.224 853.072C515.49 853.072 514.835 852.736 514.405 852.212L480.774 863.524L474.063 896.86C475.376 897.448 476.287 898.765 476.287 900.298C476.287 900.95 476.12 901.564 475.827 902.099L497.316 921.039C498.347 920.154 499.687 919.619 501.152 919.619C503.171 919.619 504.952 920.636 506.014 922.184L544.483 903.088L576.69 924.493C578.549 922.141 581.427 920.633 584.656 920.633C587.892 920.633 590.774 922.142 592.634 924.495L624.836 903.09L668.54 924.779L668.17 925.527L668.959 925.258L680.162 958.539C680.409 958.5 680.663 958.48 680.921 958.48C683.645 958.48 685.852 960.695 685.852 963.403C685.852 963.453 685.851 963.503 685.849 963.553L717.587 969.941C718.072 969.04 719.026 968.426 720.12 968.426C720.548 968.426 720.954 968.519 721.319 968.687L744.11 942.831C743.833 942.39 743.673 941.869 743.673 941.311C743.673 940.343 744.153 939.489 744.887 938.968L736.237 913.284C735.453 913.478 734.633 913.581 733.789 913.581C728.182 913.581 723.637 909.036 723.637 903.429C723.637 897.818 728.182 893.269 733.789 893.269C735.117 893.269 736.386 893.523 737.548 893.987L755.423 857.977C754.568 857.284 754.021 856.225 754.021 855.041C754.021 854.027 754.42 853.108 755.069 852.431L732.813 818.951C731.358 819.757 729.683 820.216 727.9 820.216C722.788 820.216 718.56 816.439 717.849 811.524L677.71 814.058C677.422 815.853 675.869 817.221 673.992 817.221C673.685 817.221 673.388 817.185 673.103 817.116L653.321 856.98C654.87 858.042 655.883 859.823 655.883 861.841C655.883 865.105 653.245 867.742 649.982 867.742C646.726 867.742 644.084 865.105 644.084 861.841C644.084 860.931 644.29 860.07 644.659 859.301L612.344 837.828C611.669 838.471 610.754 838.866 609.746 838.866C608.57 838.866 607.519 838.326 606.828 837.482L568.809 856.345C568.817 856.423 568.821 856.501 568.821 856.58C568.821 857.883 567.767 858.932 566.465 858.932C565.171 858.932 564.122 857.883 564.122 856.58C564.122 855.286 565.171 854.233 566.465 854.233C567.084 854.233 567.647 854.471 568.068 854.86L606.086 835.996C606.017 835.712 605.98 835.414 605.98 835.108C605.98 833.743 606.706 832.55 607.793 831.891L594.251 791.669C592.99 791.626 591.98 790.59 591.98 789.323C591.98 788.021 593.034 786.967 594.332 786.967C595.63 786.967 596.679 788.021 596.679 789.323C596.679 790.055 596.344 790.71 595.817 791.141L609.361 831.366C609.487 831.354 609.616 831.347 609.746 831.347C611.828 831.347 613.511 833.027 613.511 835.108C613.511 835.581 613.424 836.034 613.264 836.451L645.577 857.922C646.657 856.711 648.231 855.948 649.982 855.948C650.628 855.948 651.25 856.052 651.832 856.243L671.615 816.377C670.769 815.687 670.23 814.635 670.23 813.456C670.23 812.097 670.952 810.905 672.036 810.245L663.762 785.685C662.501 785.644 661.494 784.607 661.494 783.339C661.494 782.037 662.543 780.984 663.841 780.984C665.139 780.984 666.192 782.037 666.192 783.339C666.192 784.071 665.856 784.725 665.329 785.156L673.604 809.718C673.731 809.705 673.861 809.699 673.992 809.699C675.706 809.699 677.15 810.84 677.607 812.401L717.745 809.864C717.848 804.342 722.353 799.904 727.9 799.904C729.227 799.904 730.494 800.158 731.656 800.62L743.602 776.547L726.35 750.597C725.58 750.966 724.716 751.172 723.804 751.172C720.958 751.172 718.581 749.153 718.028 746.468L690.134 748.231C689.849 750.032 688.291 751.414 686.411 751.414C684.321 751.414 682.633 749.718 682.633 747.636C682.633 746.809 682.899 746.043 683.35 745.42L666.221 725.988C665.962 726.086 665.682 726.14 665.39 726.14C664.092 726.14 663.043 725.087 663.043 723.789C663.043 722.524 664.046 721.489 665.304 721.443L673.578 696.894C672.489 696.231 671.76 695.032 671.76 693.664C671.76 691.578 673.453 689.89 675.539 689.89C677.621 689.89 679.309 691.578 679.309 693.664C679.309 695.75 677.621 697.442 675.539 697.442C675.406 697.442 675.275 697.435 675.146 697.422L666.877 721.972C667.404 722.403 667.742 723.057 667.742 723.789C667.742 724.188 667.642 724.563 667.466 724.893L684.59 744.324C685.13 744.027 685.75 743.858 686.411 743.858C688.126 743.858 689.574 745.006 690.031 746.577L717.924 744.815C718.157 741.772 720.702 739.374 723.804 739.374C727.068 739.374 729.706 742.016 729.706 745.271C729.706 747.024 728.942 748.599 727.729 749.68L745.51 776.427L745.302 776.854L733.144 801.358C736.089 803.135 738.057 806.364 738.057 810.056C738.057 813.289 736.548 816.17 734.195 818.03L756.451 851.515C756.87 851.355 757.324 851.268 757.8 851.268C758.109 851.268 758.41 851.305 758.697 851.375L771.12 826.335C769.574 825.272 768.561 823.491 768.561 821.47C768.561 818.215 771.199 815.569 774.454 815.569C777.309 815.569 779.685 817.593 780.235 820.279L801.705 818.919C801.78 814.822 804.287 811.315 807.844 809.781L785.353 743.016C784.57 743.209 783.75 743.312 782.906 743.312C777.307 743.312 772.758 738.767 772.758 733.156C772.758 727.549 777.307 723.004 782.906 723.004C785.184 723.004 787.286 723.752 788.981 725.015L835.559 672.156C833.803 670.33 832.723 667.848 832.723 665.115C832.723 660.935 835.249 657.343 838.857 655.785L825.876 617.234C825.527 617.298 825.167 617.331 824.799 617.331C821.539 617.331 818.897 614.694 818.897 611.434C818.897 611.32 818.9 611.206 818.907 611.093L772.71 601.794C772.12 603.111 770.797 604.029 769.261 604.029C768.604 604.029 767.986 603.86 767.448 603.564L736.298 638.915C737.18 639.946 737.713 641.284 737.713 642.746C737.713 646.005 735.071 648.647 731.811 648.647C728.556 648.647 725.914 646.005 725.914 642.746C725.914 639.49 728.556 636.849 731.811 636.849C733.009 636.849 734.123 637.205 735.053 637.818L766.207 602.469C765.754 601.846 765.487 601.079 765.487 600.251C765.487 598.165 767.179 596.477 769.261 596.477C771.319 596.477 772.993 598.119 773.038 600.166L819.234 609.465C819.916 607.543 821.568 606.078 823.601 605.659L822.166 582.895C820.806 582.599 819.789 581.387 819.789 579.941C819.789 578.274 821.141 576.918 822.813 576.918C823.562 576.918 824.247 577.19 824.775 577.642L846.211 563.39C846.118 563.1 846.068 562.791 846.068 562.47C846.068 560.803 847.42 559.447 849.091 559.447C850.763 559.447 852.115 560.803 852.115 562.47C852.115 562.658 852.097 562.842 852.064 563.021L872.491 573.159C873.555 571.612 875.337 570.599 877.354 570.599C880.618 570.599 883.256 573.237 883.256 576.497C883.256 579.752 880.618 582.394 877.354 582.394C874.098 582.394 871.457 579.752 871.457 576.497C871.457 575.847 871.561 575.223 871.755 574.639L851.326 564.506C850.773 565.112 849.977 565.493 849.091 565.493C848.343 565.493 847.658 565.221 847.13 564.771L825.694 579.023C825.786 579.312 825.836 579.621 825.836 579.941C825.836 581.255 824.997 582.375 823.823 582.791L825.257 605.555C828.302 605.788 830.696 608.333 830.696 611.434C830.696 613.741 829.375 615.737 827.447 616.706L840.426 655.256C841.209 655.062 842.028 654.959 842.871 654.959C848.487 654.959 853.028 659.508 853.028 665.115C853.028 665.515 853.005 665.91 852.96 666.299L922.034 680.21C923.254 675.967 927.164 672.865 931.797 672.865C937.408 672.865 941.953 677.41 941.953 683.021C941.953 687.203 939.425 690.794 935.812 692.349L959.18 761.755C959.677 761.619 960.201 761.547 960.741 761.547C964.001 761.547 966.643 764.184 966.643 767.448C966.643 768.08 966.543 768.689 966.359 769.26L996.061 775.239C996.649 773.921 997.972 773 999.513 773C1000.81 773 1001.96 773.66 1002.64 774.661L1030.31 763.83C1030.3 763.736 1030.3 763.642 1030.3 763.546C1030.3 761.87 1031.65 760.518 1033.32 760.518C1034.92 760.518 1036.22 761.742 1036.34 763.304L1068.65 769.803C1069.24 768.486 1070.56 767.568 1072.1 767.568C1072.76 767.568 1073.38 767.737 1073.91 768.036L1097.73 741.011C1097.46 740.602 1097.29 740.124 1097.25 739.612L1071.12 734.35C1070.78 734.789 1070.25 735.071 1069.65 735.071C1068.62 735.071 1067.79 734.237 1067.79 733.204C1067.79 732.694 1068 732.231 1068.33 731.895L1062.13 713.465C1061.34 713.659 1060.52 713.762 1059.68 713.762C1054.07 713.762 1049.52 709.217 1049.52 703.611C1049.52 702.282 1049.78 701.014 1050.24 699.851L1037.2 693.381C1036.78 693.771 1036.22 694.011 1035.6 694.011C1034.3 694.011 1033.25 692.957 1033.25 691.663C1033.25 690.533 1034.05 689.588 1035.11 689.363L1039.79 658.512C1038.74 658.034 1038.02 656.982 1038.02 655.764C1038.02 654.097 1039.38 652.741 1041.05 652.741C1042.03 652.741 1042.9 653.206 1043.45 653.927L1071.83 642.818C1071.88 641.35 1072.98 640.146 1074.4 639.934L1079.15 608.677C1078.54 608.334 1078.09 607.723 1077.97 607.003L1029.07 597.155C1028.57 598.127 1027.55 598.793 1026.38 598.793C1025.91 598.793 1025.47 598.688 1025.08 598.5L994.505 633.193C995.386 634.224 995.916 635.56 995.916 637.021C995.916 639.324 994.6 641.319 992.675 642.291L1006.5 683.335C1006.85 683.271 1007.21 683.237 1007.58 683.237C1010.84 683.237 1013.48 685.875 1013.48 689.134C1013.48 692.39 1010.84 695.031 1007.58 695.031C1004.32 695.031 1001.68 692.39 1001.68 689.134C1001.68 686.83 1003 684.836 1004.93 683.866L991.101 642.823C990.749 642.888 990.386 642.922 990.015 642.922C986.763 642.922 984.122 640.281 984.122 637.021C984.122 633.766 986.763 631.124 990.015 631.124C991.214 631.124 992.328 631.48 993.258 632.092L1023.83 597.408C1023.53 596.935 1023.35 596.373 1023.35 595.77C1023.35 594.103 1024.71 592.747 1026.38 592.747C1027.97 592.747 1029.27 593.975 1029.4 595.531L1078.3 605.376C1078.72 604.716 1079.46 604.278 1080.3 604.278C1080.99 604.278 1081.61 604.577 1082.04 605.052L1112.61 593.081C1112.75 592.386 1113.37 591.862 1114.11 591.862C1114.95 591.862 1115.63 592.547 1115.63 593.389C1115.63 594.23 1114.95 594.915 1114.11 594.915C1113.78 594.915 1113.47 594.808 1113.22 594.628L1082.64 606.598L1082.64 606.625C1082.64 607.757 1081.85 608.703 1080.78 608.927L1076.05 640.149C1077.13 640.614 1077.88 641.683 1077.88 642.924C1077.88 643.221 1077.83 643.509 1077.75 643.78L1099.17 660.891C1100.23 659.896 1101.65 659.286 1103.22 659.286C1105.42 659.286 1107.35 660.494 1108.36 662.283L1134.88 651.901C1134.91 650.738 1135.86 649.803 1137.03 649.803C1138.22 649.803 1139.18 650.765 1139.18 651.951C1139.18 651.998 1139.18 652.045 1139.18 652.092L1163.76 664.283C1165.53 661.339 1168.77 659.371 1172.46 659.371C1175.69 659.371 1178.57 660.881 1180.43 663.235L1203.29 648.032C1203.26 647.902 1203.25 647.768 1203.25 647.632C1203.25 646.792 1203.73 646.06 1204.43 645.708L1202.26 611.19C1200.64 611.135 1199.35 609.801 1199.35 608.168C1199.35 606.497 1200.7 605.141 1202.37 605.141C1204.03 605.141 1205.39 606.497 1205.39 608.168C1205.39 609.279 1204.79 610.252 1203.89 610.777L1206.09 645.601C1206.94 645.893 1207.54 646.695 1207.54 647.632C1207.54 648.818 1206.58 649.776 1205.38 649.776C1204.94 649.776 1204.54 649.644 1204.2 649.417L1181.35 664.61C1182.15 666.067 1182.61 667.743 1182.61 669.527C1182.61 675.134 1178.07 679.679 1172.46 679.679C1166.85 679.679 1162.3 675.134 1162.3 669.527C1162.3 668.199 1162.55 666.93 1163.02 665.768L1138.44 653.572C1138.06 653.897 1137.57 654.095 1137.03 654.095C1136.43 654.095 1135.88 653.845 1135.49 653.445L1108.96 663.828C1109.07 664.265 1109.12 664.72 1109.12 665.188C1109.12 668.447 1106.48 671.085 1103.22 671.085C1099.96 671.085 1097.32 668.447 1097.32 665.188C1097.32 664.093 1097.61 663.068 1098.13 662.19L1076.85 645.191C1076.32 645.662 1075.62 645.947 1074.85 645.947C1073.73 645.947 1072.76 645.341 1072.24 644.44L1044.06 655.472C1044.07 655.568 1044.08 655.666 1044.08 655.764C1044.08 657.303 1042.92 658.576 1041.43 658.763L1036.75 689.614C1037.47 690.017 1037.95 690.784 1037.95 691.663C1037.95 691.741 1037.94 691.819 1037.94 691.895L1050.98 698.366C1052.76 695.422 1055.99 693.454 1059.68 693.454C1065.28 693.454 1069.83 698 1069.83 703.611C1069.83 707.791 1067.3 711.381 1063.69 712.937L1069.9 731.359C1070.65 731.46 1071.26 732.007 1071.45 732.725L1097.58 737.987C1098.09 737.014 1099.1 736.349 1100.27 736.349C1100.74 736.349 1101.18 736.455 1101.58 736.643L1127.57 707.141C1126.69 706.11 1126.15 704.771 1126.15 703.307C1126.15 700.051 1128.8 697.41 1132.06 697.41C1135.32 697.41 1137.96 700.051 1137.96 703.307C1137.96 706.566 1135.32 709.208 1132.06 709.208C1130.86 709.208 1129.75 708.851 1128.82 708.239L1102.82 737.737C1103.08 738.146 1103.25 738.623 1103.29 739.135L1128.9 744.294C1129.32 743.631 1130.06 743.191 1130.89 743.191C1132.2 743.191 1133.24 744.244 1133.24 745.542C1133.24 746.276 1132.91 746.931 1132.38 747.362L1140.95 772.793C1142.21 772.837 1143.21 773.872 1143.21 775.138C1143.21 776.44 1142.16 777.486 1140.86 777.486C1139.56 777.486 1138.51 776.44 1138.51 775.138C1138.51 774.407 1138.85 773.753 1139.37 773.323L1130.81 747.888C1129.68 747.848 1128.75 747.008 1128.57 745.92L1102.96 740.761C1102.46 741.733 1101.45 742.4 1100.27 742.4C1099.81 742.4 1099.36 742.294 1098.97 742.105L1075.15 769.13C1075.6 769.754 1075.87 770.521 1075.87 771.35C1075.87 772.715 1075.14 773.917 1074.05 774.582L1099.96 851.503C1100.31 851.438 1100.67 851.404 1101.04 851.404C1104.3 851.404 1106.94 854.046 1106.94 857.301C1106.94 857.417 1106.94 857.533 1106.93 857.647L1175.51 871.453C1177.17 865.029 1183.01 860.284 1189.95 860.284C1193.44 860.284 1196.65 861.479 1199.19 863.481L1245.44 810.998C1244.56 809.967 1244.02 808.626 1244.02 807.158C1244.02 804.853 1245.34 802.858 1247.27 801.889L1230.75 752.817C1230.7 752.819 1230.65 752.82 1230.61 752.82C1228.94 752.82 1227.58 751.464 1227.58 749.797C1227.58 748.125 1228.94 746.774 1230.61 746.774C1231.07 746.774 1231.51 746.878 1231.9 747.064L1263.31 711.426C1261.55 709.6 1260.47 707.116 1260.47 704.38C1260.47 700.199 1263 696.605 1266.61 695.049L1252.38 652.812C1252.04 652.876 1251.68 652.909 1251.31 652.909C1248.05 652.909 1245.42 650.267 1245.42 647.012C1245.42 643.752 1248.05 641.111 1251.31 641.111C1252.51 641.111 1253.62 641.466 1254.55 642.078L1288.78 603.224C1288.48 602.754 1288.31 602.196 1288.31 601.597C1288.31 599.926 1289.66 598.57 1291.33 598.57C1292.92 598.57 1294.22 599.798 1294.35 601.357L1340.92 610.734C1342.14 606.493 1346.05 603.388 1350.68 603.388C1352.96 603.388 1355.06 604.137 1356.75 605.402L1388.16 569.763C1387.86 569.291 1387.68 568.731 1387.68 568.13C1387.68 567.664 1387.79 567.224 1387.98 566.83L1333.37 518.719C1332.34 519.601 1331.01 520.134 1329.54 520.134C1327.23 520.134 1325.24 518.811 1324.27 516.885L1282.68 530.888C1282.74 531.238 1282.78 531.6 1282.78 531.969C1282.78 535.224 1280.14 537.866 1276.88 537.866C1273.62 537.866 1270.98 535.224 1270.98 531.969C1270.98 530.77 1271.33 529.656 1271.95 528.725L1236.82 497.781C1236.35 498.083 1235.79 498.258 1235.19 498.258C1233.52 498.258 1232.17 496.902 1232.17 495.235C1232.17 493.564 1233.52 492.212 1235.19 492.212C1236.87 492.212 1238.22 493.564 1238.22 495.235C1238.22 495.7 1238.11 496.14 1237.92 496.534L1273.05 527.481C1274.08 526.6 1275.42 526.068 1276.88 526.068C1279.19 526.068 1281.18 527.391 1282.15 529.319L1323.74 515.315C1323.68 514.965 1323.64 514.605 1323.64 514.237C1323.64 510.977 1326.28 508.335 1329.54 508.335C1329.66 508.335 1329.77 508.339 1329.88 508.345L1339.13 462.449C1338.16 461.948 1337.49 460.933 1337.49 459.76C1337.49 459.294 1337.59 458.852 1337.78 458.457L1302.66 427.511C1301.63 428.393 1300.29 428.926 1298.82 428.926C1295.56 428.926 1292.92 426.288 1292.92 423.029C1292.92 419.773 1295.56 417.132 1298.82 417.132C1302.09 417.132 1304.72 419.773 1304.72 423.029C1304.72 424.225 1304.37 425.337 1303.76 426.266L1338.88 457.217C1339.35 456.913 1339.91 456.737 1340.51 456.737C1342.18 456.737 1343.54 458.093 1343.54 459.76C1343.54 461.35 1342.31 462.65 1340.75 462.774L1331.51 508.67C1333.8 509.479 1335.44 511.666 1335.44 514.237C1335.44 515.432 1335.08 516.546 1334.47 517.475L1389.08 565.584C1389.55 565.282 1390.11 565.106 1390.71 565.106C1391.74 565.106 1392.65 565.626 1393.2 566.417L1464.94 542.26C1464.94 542.213 1464.94 542.165 1464.94 542.118C1464.94 540.532 1466.17 539.229 1467.73 539.104L1481.25 471.958C1477.01 470.738 1473.9 466.828 1473.9 462.196C1473.9 459.921 1474.65 457.819 1475.92 456.125L1424.53 410.847C1424.06 411.151 1423.5 411.327 1422.9 411.327C1421.23 411.327 1419.87 409.975 1419.87 408.303C1419.87 406.632 1421.23 405.28 1422.9 405.28C1424.57 405.28 1425.92 406.632 1425.92 408.303ZM1449.07 772.743C1449.07 770.396 1450.97 768.501 1453.3 768.501C1455.65 768.501 1457.56 770.396 1457.56 772.743C1457.56 775.09 1455.65 776.986 1453.3 776.986C1452.96 776.986 1452.62 776.944 1452.3 776.866L1435.65 810.428L1455.05 839.616C1455.92 839.202 1456.89 838.97 1457.91 838.97C1461.11 838.97 1463.79 841.237 1464.41 844.257L1495.78 842.28C1496.11 840.256 1497.86 838.706 1499.98 838.706C1502.32 838.706 1504.22 840.61 1504.22 842.953C1504.22 843.88 1503.92 844.739 1503.42 845.438L1522.26 866.831C1522.67 866.642 1523.13 866.536 1523.61 866.536C1525.29 866.536 1526.69 867.826 1526.84 869.471L1562.53 876.655C1563.33 874.578 1565.34 873.103 1567.7 873.103C1567.99 873.103 1568.28 873.126 1568.56 873.169L1577.44 846.812C1576.85 846.327 1576.47 845.592 1576.47 844.767C1576.47 843.308 1577.65 842.117 1579.11 842.117C1579.69 842.117 1580.22 842.303 1580.66 842.618L1619.3 816.944C1618.99 816.256 1618.82 815.495 1618.82 814.695C1618.82 811.635 1621.31 809.151 1624.37 809.151C1627.42 809.151 1629.91 811.635 1629.91 814.695C1629.91 817.747 1627.42 820.231 1624.37 820.231C1622.78 820.231 1621.35 819.562 1620.34 818.492L1581.69 844.175C1581.74 844.365 1581.76 844.564 1581.76 844.767C1581.76 846.196 1580.62 847.358 1579.21 847.407L1570.33 873.764C1572.06 874.701 1573.25 876.537 1573.25 878.648C1573.25 880.759 1572.06 882.592 1570.32 883.526L1582.81 920.594L1630.65 944.338L1665.97 920.858C1665.07 919.222 1664.55 917.341 1664.55 915.339C1664.55 909.593 1668.79 904.834 1674.32 904.033L1672.04 867.724C1668.61 867.459 1665.92 864.6 1665.92 861.104C1665.92 857.446 1668.89 854.465 1672.55 854.465C1674.53 854.465 1676.3 855.328 1677.51 856.696L1713.85 832.538C1713.67 832.069 1713.58 831.561 1713.58 831.03C1713.58 829.113 1714.86 827.488 1716.61 826.971L1713.61 779.34C1712.51 779.021 1711.71 778.006 1711.71 776.799C1711.71 775.339 1712.89 774.157 1714.35 774.157C1715.8 774.157 1716.99 775.339 1716.99 776.799C1716.99 777.859 1716.37 778.772 1715.47 779.194L1718.48 826.853C1720.47 827.169 1721.99 828.872 1722.03 830.932L1759.52 838.486L1784.82 809.795C1784.31 809.097 1784.01 808.24 1784.01 807.312C1784.01 804.973 1785.91 803.078 1788.25 803.078C1790.56 803.078 1792.43 804.921 1792.48 807.216L1825.03 813.769C1825.84 811.637 1827.9 810.12 1830.32 810.12C1833.44 810.12 1835.98 812.662 1835.98 815.789C1835.98 817.949 1834.77 819.827 1832.98 820.78L1844.72 855.649L1875.03 861.756C1876.4 856.982 1880.79 853.494 1886.01 853.494C1888.59 853.494 1890.97 854.349 1892.89 855.791L1913.56 832.567L1913.56 832.563L1938.24 804.569C1937.45 803.594 1936.97 802.351 1936.97 800.997C1936.97 797.866 1939.5 795.328 1942.64 795.328C1945.76 795.328 1948.3 797.866 1948.3 800.997C1948.3 801.06 1948.3 801.124 1948.3 801.187L1981.59 807.894C1982.17 806.763 1983.34 805.986 1984.71 805.986C1986.63 805.986 1988.19 807.549 1988.19 809.465C1988.19 810.669 1987.58 811.73 1986.66 812.356L1998.52 847.582C1999.88 847.652 2000.95 848.772 2000.95 850.133C2000.95 851.543 1999.81 852.692 1998.39 852.692C1996.98 852.692 1995.83 851.543 1995.83 850.133C1995.83 849.349 1996.19 848.645 1996.75 848.176L1984.89 812.948C1984.83 812.951 1984.77 812.953 1984.71 812.953C1982.86 812.953 1981.35 811.527 1981.22 809.716L1947.93 803.013C1947.12 805.142 1945.05 806.657 1942.64 806.657C1941.54 806.657 1940.51 806.344 1939.64 805.803L1914.96 833.795L1913.92 832.881L1914.95 833.804L1894.28 857.029C1896.23 859.079 1897.44 861.857 1897.44 864.919C1897.44 871.227 1892.32 876.34 1886.01 876.34C1879.69 876.34 1874.59 871.227 1874.59 864.919C1874.59 864.468 1874.62 864.023 1874.67 863.586L1843.82 857.368L1844.01 856.454L1843.12 856.75L1831.21 821.375C1830.92 821.421 1830.62 821.445 1830.32 821.445C1827.18 821.445 1824.66 818.911 1824.66 815.789C1824.66 815.727 1824.66 815.665 1824.66 815.603L1792.12 809.04C1791.46 810.518 1789.97 811.546 1788.25 811.546C1787.51 811.546 1786.82 811.358 1786.21 811.027L1760.57 840.121L1759.87 839.505L1759.69 840.422L1721.67 832.757C1721.01 834.233 1719.54 835.264 1717.81 835.264C1716.68 835.264 1715.65 834.82 1714.89 834.096L1678.54 858.245C1678.95 859.112 1679.18 860.082 1679.18 861.104C1679.18 864.313 1676.92 866.986 1673.9 867.607L1676.19 903.916C1682.39 904.03 1687.39 909.103 1687.39 915.339C1687.39 917.342 1686.88 919.225 1685.97 920.862L1721.3 944.339L1763.6 923.345C1763.38 922.689 1763.27 921.986 1763.27 921.256C1763.27 917.599 1766.23 914.625 1769.91 914.625C1773.56 914.625 1776.54 917.599 1776.54 921.256C1776.54 922.604 1776.14 923.858 1775.45 924.905L1799.61 946.208C1800.31 945.7 1801.17 945.399 1802.1 945.399C1804.43 945.399 1806.33 947.303 1806.33 949.633C1806.33 951.943 1804.48 953.819 1802.19 953.867L1794.44 992.411L1755.6 1005.48C1755.55 1006.9 1754.38 1008.03 1752.95 1008.03C1751.49 1008.03 1750.31 1006.85 1750.31 1005.39C1750.31 1003.93 1751.49 1002.74 1752.95 1002.74C1753.78 1002.74 1754.52 1003.12 1755 1003.72L1792.81 990.984L1800.36 953.497C1798.89 952.835 1797.87 951.354 1797.87 949.633C1797.87 948.902 1798.05 948.213 1798.38 947.611L1774.21 926.304C1773.05 927.296 1771.55 927.896 1769.91 927.896C1767.63 927.896 1765.62 926.755 1764.43 925.014L1721.17 946.491L1684.94 922.412C1682.85 925.063 1679.61 926.764 1675.98 926.764C1672.34 926.764 1669.1 925.066 1667.01 922.419L1630.78 946.491L1581.63 922.09L1582.04 921.261L1581.16 921.556L1568.55 884.119C1568.28 884.162 1567.99 884.184 1567.7 884.184C1564.64 884.184 1562.16 881.708 1562.16 878.648C1562.16 878.593 1562.16 878.539 1562.16 878.485L1526.47 871.296C1525.92 872.314 1524.84 873.006 1523.61 873.006C1523.13 873.006 1522.67 872.899 1522.26 872.709L1496.63 901.795C1496.94 902.29 1497.12 902.874 1497.12 903.502C1497.12 904.59 1496.58 905.549 1495.76 906.133L1505.49 935.021C1506.37 934.804 1507.29 934.689 1508.24 934.689C1514.55 934.689 1519.66 939.802 1519.66 946.11C1519.66 952.418 1514.55 957.535 1508.24 957.535C1506.75 957.535 1505.32 957.249 1504.01 956.728L1483.91 997.227C1484.87 998.006 1485.49 999.197 1485.49 1000.53C1485.49 1001.67 1485.04 1002.71 1484.31 1003.47L1509.34 1041.13C1510.98 1040.22 1512.86 1039.7 1514.87 1039.7C1520.62 1039.7 1525.38 1043.95 1526.18 1049.47L1571.32 1046.63C1571.64 1044.61 1573.39 1043.06 1575.5 1043.06C1575.85 1043.06 1576.18 1043.11 1576.5 1043.18L1598.75 998.351C1597.01 997.152 1595.87 995.146 1595.87 992.881C1595.87 989.211 1598.84 986.242 1602.5 986.242C1606.17 986.242 1609.14 989.211 1609.14 992.881C1609.14 993.904 1608.9 994.874 1608.49 995.74L1644.83 1019.89C1645.59 1019.17 1646.62 1018.72 1647.76 1018.72C1649.08 1018.72 1650.27 1019.33 1651.05 1020.28L1693.8 999.065C1693.8 998.977 1693.79 998.888 1693.79 998.798C1693.79 997.338 1694.98 996.16 1696.44 996.16C1697.89 996.16 1699.07 997.338 1699.07 998.798C1699.07 1000.26 1697.89 1001.45 1696.44 1001.45C1695.74 1001.45 1695.11 1001.18 1694.63 1000.73L1651.88 1021.95C1651.96 1022.27 1652 1022.61 1652 1022.96C1652 1024.48 1651.18 1025.82 1649.96 1026.57L1665.19 1071.81C1666.61 1071.86 1667.74 1073.02 1667.74 1074.44C1667.74 1075.91 1666.56 1077.09 1665.1 1077.09C1663.64 1077.09 1662.46 1075.91 1662.46 1074.44C1662.46 1073.62 1662.83 1072.89 1663.42 1072.4L1648.19 1027.16C1648.05 1027.18 1647.9 1027.19 1647.76 1027.19C1645.41 1027.19 1643.53 1025.29 1643.53 1022.96C1643.53 1022.42 1643.63 1021.91 1643.81 1021.44L1607.46 997.291C1606.25 998.658 1604.48 999.521 1602.5 999.521C1601.77 999.521 1601.07 999.402 1600.41 999.184L1578.17 1044.01C1579.12 1044.79 1579.73 1045.97 1579.73 1047.29C1579.73 1048.83 1578.92 1050.17 1577.7 1050.91L1587.01 1078.54C1588.42 1078.58 1589.56 1079.75 1589.56 1081.18C1589.56 1082.64 1588.37 1083.82 1586.92 1083.82C1585.46 1083.82 1584.27 1082.64 1584.27 1081.18C1584.27 1080.35 1584.65 1079.62 1585.24 1079.13L1575.94 1051.51C1575.8 1051.52 1575.65 1051.53 1575.5 1051.53C1573.58 1051.53 1571.95 1050.24 1571.44 1048.49L1526.29 1051.33C1526.18 1057.55 1521.1 1062.55 1514.87 1062.55C1513.37 1062.55 1511.95 1062.26 1510.64 1061.74L1497.2 1088.82L1516.61 1118C1517.48 1117.58 1518.45 1117.35 1519.48 1117.35C1522.67 1117.35 1525.34 1119.62 1525.96 1122.65L1557.35 1120.67C1557.67 1118.64 1559.42 1117.09 1561.53 1117.09C1563.88 1117.09 1565.78 1118.99 1565.78 1121.34C1565.78 1122.26 1565.48 1123.12 1564.98 1123.82L1584.24 1145.68C1584.53 1145.57 1584.85 1145.51 1585.18 1145.51C1586.63 1145.51 1587.81 1146.69 1587.81 1148.15C1587.81 1149.58 1586.68 1150.75 1585.27 1150.8L1575.97 1178.41C1577.19 1179.15 1578.01 1180.5 1578.01 1182.04C1578.01 1184.38 1576.11 1186.28 1573.76 1186.28C1571.42 1186.28 1569.51 1184.38 1569.51 1182.04C1569.51 1179.69 1571.42 1177.79 1573.76 1177.79C1573.91 1177.79 1574.06 1177.8 1574.2 1177.81L1583.51 1150.2C1582.91 1149.72 1582.53 1148.98 1582.53 1148.15C1582.53 1147.7 1582.64 1147.28 1582.84 1146.92L1563.58 1125.06C1562.97 1125.39 1562.27 1125.58 1561.53 1125.58C1559.6 1125.58 1557.97 1124.29 1557.46 1122.52L1526.08 1124.51C1525.81 1127.93 1522.96 1130.63 1519.48 1130.63C1515.8 1130.63 1512.84 1127.65 1512.84 1123.99C1512.84 1122.02 1513.69 1120.25 1515.05 1119.04L1495.06 1088.95L1508.97 1060.91C1505.66 1058.91 1503.45 1055.28 1503.45 1051.12C1503.45 1047.49 1505.14 1044.25 1507.79 1042.16L1482.75 1004.49C1482.28 1004.67 1481.77 1004.77 1481.23 1004.77C1480.89 1004.77 1480.55 1004.73 1480.23 1004.65L1466.26 1032.81C1467.99 1034.01 1469.13 1036.02 1469.13 1038.29C1469.13 1041.95 1466.17 1044.93 1462.5 1044.93C1459.3 1044.93 1456.62 1042.65 1456 1039.64L1431.85 1041.16C1431.76 1045.77 1428.95 1049.71 1424.96 1051.44L1450.24 1126.53C1451.13 1126.31 1452.05 1126.19 1453 1126.19C1459.3 1126.19 1464.41 1131.31 1464.41 1137.62C1464.41 1143.93 1459.3 1149.04 1453 1149.04C1450.44 1149.04 1448.07 1148.2 1446.16 1146.78L1393.77 1206.22C1395.75 1208.28 1396.97 1211.07 1396.97 1214.15C1396.97 1218.85 1394.13 1222.89 1390.07 1224.64L1404.67 1268C1405.06 1267.92 1405.47 1267.89 1405.89 1267.89C1409.55 1267.89 1412.51 1270.86 1412.51 1274.53C1412.51 1274.65 1412.51 1274.78 1412.5 1274.9L1464.46 1285.37C1465.13 1283.89 1466.62 1282.86 1468.35 1282.86C1469.08 1282.86 1469.78 1283.05 1470.38 1283.38L1505.42 1243.62C1504.43 1242.46 1503.83 1240.95 1503.83 1239.31C1503.83 1235.64 1506.8 1232.67 1510.47 1232.67C1514.13 1232.67 1517.1 1235.64 1517.1 1239.31C1517.1 1242.97 1514.13 1245.94 1510.47 1245.94C1509.12 1245.94 1507.87 1245.54 1506.82 1244.86L1471.78 1284.61C1472.29 1285.31 1472.59 1286.17 1472.59 1287.1C1472.59 1289.45 1470.69 1291.35 1468.35 1291.35C1466.03 1291.35 1464.15 1289.5 1464.1 1287.2L1412.14 1276.74C1411.37 1278.9 1409.52 1280.55 1407.23 1281.02L1408.84 1306.63C1410.37 1306.96 1411.52 1308.32 1411.52 1309.95C1411.52 1311.82 1409.99 1313.35 1408.12 1313.35C1407.27 1313.35 1406.5 1313.04 1405.91 1312.54L1381.8 1328.56C1381.91 1328.89 1381.96 1329.23 1381.96 1329.6C1381.96 1331.47 1380.44 1332.99 1378.56 1332.99C1376.67 1332.99 1375.16 1331.47 1375.16 1329.6C1375.16 1329.39 1375.18 1329.18 1375.21 1328.98L1352.23 1317.58C1351.04 1319.32 1349.03 1320.46 1346.77 1320.46C1343.1 1320.46 1340.14 1317.48 1340.14 1313.83C1340.14 1310.16 1343.1 1307.19 1346.77 1307.19C1350.43 1307.19 1353.4 1310.16 1353.4 1313.83C1353.4 1314.55 1353.29 1315.25 1353.07 1315.91L1376.04 1327.31C1376.66 1326.62 1377.56 1326.2 1378.56 1326.2C1379.4 1326.2 1380.17 1326.5 1380.77 1327.01L1404.87 1310.98C1404.77 1310.66 1404.71 1310.31 1404.71 1309.95C1404.71 1308.47 1405.65 1307.21 1406.98 1306.74L1405.37 1281.14C1401.94 1280.87 1399.25 1278.01 1399.25 1274.53C1399.25 1271.93 1400.73 1269.69 1402.9 1268.6L1388.3 1225.24C1387.42 1225.46 1386.5 1225.57 1385.55 1225.57C1379.24 1225.57 1374.12 1220.45 1374.12 1214.15C1374.12 1213.7 1374.15 1213.25 1374.2 1212.82L1296.52 1197.17C1295.14 1201.94 1290.75 1205.44 1285.53 1205.44C1279.22 1205.44 1274.11 1200.32 1274.11 1194.01C1274.11 1189.3 1276.95 1185.26 1281.01 1183.51L1254.73 1105.46C1254.17 1105.62 1253.59 1105.7 1252.98 1105.7C1249.31 1105.7 1246.34 1102.72 1246.34 1099.06C1246.34 1098.35 1246.45 1097.66 1246.66 1097.02L1213.25 1090.29C1212.59 1091.77 1211.1 1092.8 1209.37 1092.8C1207.91 1092.8 1206.62 1092.06 1205.85 1090.93L1174.73 1103.12C1174.74 1103.23 1174.74 1103.34 1174.74 1103.45C1174.74 1105.32 1173.22 1106.85 1171.34 1106.85C1169.55 1106.85 1168.09 1105.47 1167.95 1103.71L1131.62 1096.4C1130.95 1097.88 1129.46 1098.91 1127.73 1098.91C1126.99 1098.91 1126.3 1098.72 1125.7 1098.39L1098.91 1128.79C1099.21 1129.25 1099.4 1129.79 1099.44 1130.36L1128.83 1136.28C1129.21 1135.78 1129.81 1135.46 1130.49 1135.46C1131.65 1135.46 1132.59 1136.4 1132.59 1137.56C1132.59 1138.14 1132.35 1138.66 1131.97 1139.04L1138.95 1159.77C1139.84 1159.55 1140.76 1159.44 1141.71 1159.44C1148.01 1159.44 1153.12 1164.54 1153.12 1170.85C1153.12 1172.34 1152.84 1173.77 1152.32 1175.08L1166.97 1182.36C1167.45 1181.91 1168.08 1181.64 1168.78 1181.64C1170.24 1181.64 1171.42 1182.82 1171.42 1184.29C1171.42 1185.57 1170.52 1186.62 1169.33 1186.87L1164.07 1221.57C1165.24 1222.11 1166.06 1223.29 1166.06 1224.66C1166.06 1226.54 1164.53 1228.07 1162.65 1228.07C1161.55 1228.07 1160.57 1227.54 1159.95 1226.73L1128.03 1239.23C1127.97 1240.88 1126.73 1242.23 1125.14 1242.47L1119.8 1277.63C1120.49 1278.02 1120.99 1278.7 1121.12 1279.51L1176.13 1290.59C1176.7 1289.49 1177.84 1288.75 1179.16 1288.75C1179.68 1288.75 1180.17 1288.86 1180.61 1289.07L1215 1250.06C1214.01 1248.9 1213.41 1247.39 1213.41 1245.75C1213.41 1243.15 1214.89 1240.91 1217.06 1239.81L1201.52 1193.66C1201.13 1193.74 1200.72 1193.77 1200.3 1193.77C1196.63 1193.77 1193.66 1190.8 1193.66 1187.13C1193.66 1183.47 1196.63 1180.5 1200.3 1180.5C1203.96 1180.5 1206.93 1183.47 1206.93 1187.13C1206.93 1189.73 1205.45 1191.97 1203.28 1193.07L1218.82 1239.22C1219.22 1239.14 1219.63 1239.1 1220.05 1239.1C1223.71 1239.1 1226.68 1242.08 1226.68 1245.75C1226.68 1249.41 1223.71 1252.39 1220.05 1252.39C1218.7 1252.39 1217.45 1251.98 1216.4 1251.29L1182.02 1290.3C1182.36 1290.83 1182.56 1291.46 1182.56 1292.14C1182.56 1294.02 1181.03 1295.54 1179.16 1295.54C1177.37 1295.54 1175.9 1294.17 1175.77 1292.41L1120.75 1281.34C1120.28 1282.08 1119.45 1282.57 1118.5 1282.57C1117.73 1282.57 1117.03 1282.24 1116.55 1281.7L1082.17 1295.16C1082.01 1295.95 1081.32 1296.54 1080.49 1296.54C1079.54 1296.54 1078.77 1295.77 1078.77 1294.82C1078.77 1293.87 1079.54 1293.11 1080.49 1293.11C1080.86 1293.11 1081.21 1293.23 1081.49 1293.43L1115.87 1279.97L1115.87 1279.94C1115.87 1278.66 1116.76 1277.6 1117.96 1277.35L1123.28 1242.23C1122.08 1241.71 1121.23 1240.51 1121.23 1239.11C1121.23 1238.77 1121.28 1238.45 1121.37 1238.15L1097.28 1218.9C1096.09 1220.02 1094.49 1220.71 1092.73 1220.71C1090.24 1220.71 1088.08 1219.35 1086.94 1217.33L1057.11 1229.01C1057.08 1230.32 1056.02 1231.37 1054.71 1231.37C1053.36 1231.37 1052.28 1230.29 1052.28 1228.96C1052.28 1228.9 1052.29 1228.85 1052.29 1228.8L1024.64 1215.09C1022.64 1218.4 1019 1220.61 1014.85 1220.61C1011.22 1220.61 1007.98 1218.91 1005.89 1216.27L980.182 1233.35C980.211 1233.5 980.226 1233.66 980.226 1233.81C980.226 1234.76 979.676 1235.58 978.882 1235.98L981.327 1274.8C983.153 1274.86 984.618 1276.36 984.618 1278.2C984.618 1280.08 983.092 1281.6 981.213 1281.6C979.326 1281.6 977.817 1280.08 977.817 1278.2C977.817 1276.95 978.488 1275.86 979.495 1275.27L977.025 1236.09C976.08 1235.77 975.403 1234.86 975.403 1233.81C975.403 1232.48 976.481 1231.4 977.817 1231.4C978.309 1231.4 978.769 1231.55 979.152 1231.81L1004.86 1214.72C1003.95 1213.08 1003.43 1211.19 1003.43 1209.19C1003.43 1202.88 1008.54 1197.76 1014.85 1197.76C1021.16 1197.76 1026.28 1202.88 1026.28 1209.19C1026.28 1210.68 1025.99 1212.11 1025.47 1213.42L1053.12 1227.13C1053.54 1226.77 1054.1 1226.54 1054.71 1226.54C1055.38 1226.54 1055.99 1226.83 1056.43 1227.28L1086.26 1215.6C1086.15 1215.11 1086.09 1214.6 1086.09 1214.07C1086.09 1210.41 1089.06 1207.44 1092.73 1207.44C1096.39 1207.44 1099.37 1210.41 1099.37 1214.07C1099.37 1215.31 1099.03 1216.46 1098.45 1217.45L1122.38 1236.56C1122.98 1236.03 1123.77 1235.71 1124.63 1235.71C1125.88 1235.71 1126.98 1236.39 1127.57 1237.4L1159.27 1224.99C1159.26 1224.88 1159.26 1224.77 1159.26 1224.66C1159.26 1222.93 1160.55 1221.5 1162.23 1221.29L1167.49 1186.6C1166.68 1186.15 1166.14 1185.28 1166.14 1184.29C1166.14 1184.2 1166.14 1184.11 1166.15 1184.02L1151.49 1176.75C1149.49 1180.06 1145.85 1182.28 1141.71 1182.28C1135.38 1182.28 1130.29 1177.16 1130.29 1170.85C1130.29 1166.15 1133.12 1162.11 1137.19 1160.36L1130.2 1139.64C1129.36 1139.53 1128.68 1138.91 1128.46 1138.11L1099.07 1132.18C1098.5 1133.28 1097.35 1134.02 1096.04 1134.02C1095.52 1134.02 1095.03 1133.91 1094.58 1133.7L1065.34 1166.88C1066.33 1168.04 1066.93 1169.55 1066.93 1171.2C1066.93 1174.86 1063.96 1177.83 1060.29 1177.83C1056.62 1177.83 1053.65 1174.86 1053.65 1171.2C1053.65 1167.53 1056.62 1164.55 1060.29 1164.55C1061.64 1164.55 1062.89 1164.95 1063.93 1165.64L1093.18 1132.46C1092.88 1132 1092.69 1131.47 1092.65 1130.89L1063.84 1125.09C1063.38 1125.84 1062.55 1126.33 1061.61 1126.33C1060.14 1126.33 1058.96 1125.15 1058.96 1123.69C1058.96 1122.86 1059.33 1122.13 1059.93 1121.64L1050.3 1093.04C1048.87 1092.99 1047.74 1091.83 1047.74 1090.4C1047.74 1088.94 1048.92 1087.76 1050.39 1087.76C1051.85 1087.76 1053.03 1088.94 1053.03 1090.4C1053.03 1091.22 1052.65 1091.96 1052.06 1092.45L1061.69 1121.05C1062.96 1121.09 1064.01 1122.03 1064.21 1123.27L1093.01 1129.07C1093.58 1127.97 1094.73 1127.22 1096.04 1127.22C1096.57 1127.22 1097.06 1127.34 1097.51 1127.55L1124.3 1097.16C1123.79 1096.46 1123.49 1095.6 1123.49 1094.67C1123.49 1093.13 1124.31 1091.78 1125.53 1091.03L1096.39 1004.52C1096 1004.59 1095.59 1004.63 1095.18 1004.63C1091.51 1004.63 1088.55 1001.65 1088.55 997.988C1088.55 997.86 1088.55 997.734 1088.56 997.608L1011.41 982.079C1009.54 989.3 1002.98 994.631 995.176 994.631C991.256 994.631 987.652 993.29 984.797 991.041L932.769 1050.07C933.76 1051.23 934.359 1052.73 934.359 1054.38C934.359 1056.97 932.871 1059.22 930.706 1060.31L949.291 1115.51C949.345 1115.5 949.4 1115.5 949.455 1115.5C951.326 1115.5 952.852 1117.03 952.852 1118.91C952.852 1120.78 951.326 1122.31 949.455 1122.31C948.931 1122.31 948.435 1122.19 947.992 1121.98L912.664 1162.06C914.644 1164.11 915.861 1166.91 915.861 1169.98C915.861 1174.69 913.018 1178.73 908.956 1180.48L924.95 1227.98C925.344 1227.91 925.75 1227.87 926.166 1227.87C929.828 1227.87 932.797 1230.85 932.797 1234.51C932.797 1238.18 929.828 1241.15 926.166 1241.15C924.818 1241.15 923.565 1240.75 922.518 1240.06L884.01 1283.76C884.351 1284.29 884.549 1284.92 884.549 1285.59C884.549 1287.47 883.027 1289 881.153 1289C879.361 1289 877.895 1287.62 877.758 1285.86L825.369 1275.31C824.001 1280.09 819.607 1283.58 814.397 1283.58C811.834 1283.58 809.47 1282.74 807.565 1281.31L772.245 1321.4C772.585 1321.93 772.782 1322.56 772.782 1323.23C772.782 1323.76 772.663 1324.25 772.45 1324.7L833.858 1378.81C835.018 1377.81 836.525 1377.21 838.174 1377.21C840.77 1377.21 843.017 1378.7 844.107 1380.87L890.879 1365.12C890.807 1364.73 890.768 1364.32 890.768 1363.91C890.768 1360.24 893.738 1357.27 897.404 1357.27C901.066 1357.27 904.04 1360.24 904.04 1363.91C904.04 1365.25 903.638 1366.5 902.949 1367.55L942.458 1402.36C942.987 1402.02 943.617 1401.82 944.295 1401.82C946.166 1401.82 947.696 1403.35 947.696 1405.22C947.696 1407.1 946.166 1408.63 944.295 1408.63C942.408 1408.63 940.89 1407.1 940.89 1405.22C940.89 1404.7 941.008 1404.2 941.22 1403.76L901.714 1368.95C900.554 1369.94 899.048 1370.54 897.404 1370.54C894.809 1370.54 892.563 1369.05 891.472 1366.88L844.699 1382.64C844.772 1383.03 844.81 1383.43 844.81 1383.85C844.81 1387.51 841.84 1390.49 838.174 1390.49C838.046 1390.49 837.918 1390.48 837.792 1390.48L827.389 1442.09C828.486 1442.66 829.238 1443.8 829.238 1445.12C829.238 1445.64 829.118 1446.14 828.904 1446.59L868.407 1481.39C869.568 1480.4 871.077 1479.8 872.727 1479.8C876.389 1479.8 879.359 1482.77 879.359 1486.44C879.359 1490.09 876.389 1493.08 872.727 1493.08C869.053 1493.08 866.083 1490.09 866.083 1486.44C866.083 1485.09 866.484 1483.84 867.173 1482.79L827.673 1447.98C827.143 1448.32 826.512 1448.52 825.837 1448.52C823.954 1448.52 822.432 1446.99 822.432 1445.12C822.432 1443.34 823.809 1441.87 825.564 1441.73L835.963 1390.11C833.383 1389.2 831.538 1386.74 831.538 1383.85C831.538 1382.5 831.938 1381.25 832.625 1380.21L771.214 1326.09C770.684 1326.43 770.055 1326.63 769.381 1326.63C768.219 1326.63 767.195 1326.05 766.582 1325.16L685.882 1352.33C685.884 1352.38 685.886 1352.44 685.886 1352.49C685.886 1354.28 684.5 1355.74 682.754 1355.88L667.545 1431.4C672.314 1432.77 675.805 1437.17 675.805 1442.38C675.805 1444.94 674.962 1447.3 673.538 1449.21L731.339 1500.14C731.868 1499.8 732.497 1499.6 733.171 1499.6C735.046 1499.6 736.576 1501.12 736.576 1502.99C736.576 1504.88 735.046 1506.4 733.171 1506.4C731.297 1506.4 729.77 1504.88 729.77 1502.99C729.77 1502.47 729.889 1501.98 730.101 1501.54L672.302 1450.61C670.248 1452.59 667.455 1453.8 664.379 1453.8C658.063 1453.8 652.953 1448.69 652.953 1442.38C652.953 1436.07 658.063 1430.95 664.379 1430.95C664.831 1430.95 665.277 1430.98 665.715 1431.03L680.924 1355.51C679.826 1354.95 679.076 1353.81 679.076 1352.49C679.076 1350.61 680.602 1349.09 682.485 1349.09C683.642 1349.09 684.669 1349.67 685.284 1350.56L765.984 1323.39C765.981 1323.34 765.98 1323.29 765.98 1323.23C765.98 1321.35 767.498 1319.83 769.381 1319.83C769.905 1319.83 770.401 1319.95 770.845 1320.16L806.169 1280.08C804.188 1278.03 802.971 1275.24 802.971 1272.16C802.971 1265.84 808.081 1260.73 814.397 1260.73C820.701 1260.73 825.81 1265.84 825.81 1272.16C825.81 1272.61 825.784 1273.05 825.734 1273.49L878.126 1284.03C878.691 1282.94 879.833 1282.19 881.153 1282.19C881.675 1282.19 882.17 1282.31 882.612 1282.52L921.12 1238.83C920.126 1237.67 919.526 1236.16 919.526 1234.51C919.526 1231.92 921.013 1229.67 923.184 1228.58L907.186 1181.08C906.305 1181.29 905.384 1181.41 904.436 1181.41C898.128 1181.41 893.014 1176.29 893.014 1169.98C893.014 1169.53 893.04 1169.09 893.091 1168.65L840.71 1158.11C840.144 1159.2 839.001 1159.95 837.687 1159.95C837.161 1159.95 836.663 1159.83 836.219 1159.62L797.707 1203.31C798.701 1204.47 799.301 1205.98 799.301 1207.62C799.301 1211.29 796.332 1214.26 792.67 1214.26C789 1214.26 786.03 1211.29 786.03 1207.62C786.03 1203.96 789 1200.99 792.67 1200.99C794.013 1200.99 795.263 1201.39 796.307 1202.08L834.821 1158.38C834.48 1157.85 834.282 1157.22 834.282 1156.55C834.282 1154.67 835.804 1153.15 837.687 1153.15C839.471 1153.15 840.939 1154.52 841.077 1156.28L893.458 1166.82C894.83 1162.05 899.225 1158.56 904.436 1158.56C906.996 1158.56 909.359 1159.4 911.263 1160.83L946.587 1120.74C946.245 1120.21 946.046 1119.58 946.046 1118.91C946.046 1117.74 946.632 1116.71 947.529 1116.1L928.939 1060.91C928.546 1060.98 928.141 1061.02 927.727 1061.02C924.057 1061.02 921.087 1058.04 921.087 1054.38C921.087 1054.25 921.091 1054.12 921.098 1054L863.998 1042.5C863.431 1043.59 862.285 1044.35 860.971 1044.35C860.444 1044.35 859.945 1044.23 859.5 1044.01L820.996 1087.71C821.989 1088.87 822.589 1090.38 822.589 1092.02C822.589 1095.68 819.62 1098.66 815.953 1098.66C812.283 1098.66 809.318 1095.68 809.318 1092.02C809.318 1088.36 812.283 1085.38 815.953 1085.38C817.3 1085.38 818.552 1085.78 819.597 1086.47L858.104 1042.77C857.763 1042.24 857.566 1041.61 857.566 1040.94C857.566 1039.07 859.088 1037.54 860.971 1037.54C862.755 1037.54 864.227 1038.93 864.365 1040.67L921.464 1052.17C922.374 1049.59 924.832 1047.75 927.727 1047.75C929.07 1047.75 930.321 1048.15 931.366 1048.83L983.395 989.805C980.306 986.761 978.392 982.528 978.392 977.848C978.392 968.588 985.898 961.074 995.176 961.074C1004.44 961.074 1011.95 968.588 1011.95 977.848C1011.95 978.663 1011.89 979.465 1011.78 980.249L1088.92 995.778C1089.83 993.198 1092.29 991.349 1095.18 991.349C1098.85 991.349 1101.81 994.322 1101.81 997.988C1101.81 1000.58 1100.33 1002.83 1098.16 1003.92L1127.3 1090.44C1127.44 1090.42 1127.59 1090.41 1127.73 1090.41C1130.04 1090.41 1131.93 1092.27 1131.99 1094.56L1168.32 1101.89C1168.88 1100.79 1170.02 1100.04 1171.34 1100.04C1172.44 1100.04 1173.42 1100.57 1174.04 1101.38L1205.17 1089.2C1205.14 1088.99 1205.13 1088.78 1205.13 1088.56C1205.13 1087.02 1205.94 1085.67 1207.17 1084.93L1197.93 1057.49C1197.04 1057.71 1196.12 1057.82 1195.18 1057.82C1188.86 1057.82 1183.75 1052.71 1183.75 1046.4C1183.75 1040.1 1188.86 1034.98 1195.18 1034.98C1197.74 1034.98 1200.1 1035.82 1202 1037.24L1227.33 1008.5C1226.83 1007.8 1226.53 1006.94 1226.53 1006.01C1226.53 1004.48 1227.34 1003.13 1228.56 1002.38L1214.8 961.516C1214.41 961.589 1214 961.627 1213.59 961.627C1209.92 961.627 1206.95 958.653 1206.95 954.983C1206.95 954.855 1206.95 954.728 1206.96 954.602L1164.68 946.084C1164.02 947.568 1162.53 948.603 1160.8 948.603C1160.06 948.603 1159.36 948.414 1158.76 948.082L1130.25 980.434C1131.25 981.595 1131.85 983.103 1131.85 984.753C1131.85 988.411 1128.87 991.384 1125.21 991.384C1121.54 991.384 1118.57 988.411 1118.57 984.753C1118.57 981.083 1121.54 978.114 1125.21 978.114C1126.56 978.114 1127.81 978.514 1128.86 979.203L1157.36 946.855C1156.85 946.153 1156.55 945.288 1156.55 944.352C1156.55 942.017 1158.45 940.114 1160.8 940.114C1163.12 940.114 1165.01 941.972 1165.05 944.268L1207.33 952.777C1208.24 950.198 1210.7 948.344 1213.59 948.344C1217.25 948.344 1220.23 951.325 1220.23 954.983C1220.23 957.58 1218.74 959.828 1216.57 960.921L1230.33 1001.79C1230.48 1001.77 1230.62 1001.76 1230.77 1001.76C1233.12 1001.76 1235.02 1003.68 1235.02 1006.01C1235.02 1008.36 1233.12 1010.26 1230.77 1010.26C1230.03 1010.26 1229.33 1010.07 1228.73 1009.74L1203.4 1038.48C1205.38 1040.53 1206.6 1043.33 1206.6 1046.4C1206.6 1051.11 1203.76 1055.15 1199.69 1056.9L1208.93 1084.33C1209.08 1084.32 1209.22 1084.31 1209.37 1084.31C1211.69 1084.31 1213.57 1086.16 1213.62 1088.46L1247.51 1095.29C1248.71 1093.55 1250.71 1092.42 1252.98 1092.42C1256.63 1092.42 1259.62 1095.39 1259.62 1099.06C1259.62 1101.45 1258.34 1103.55 1256.44 1104.72L1282.78 1182.92C1283.66 1182.7 1284.58 1182.58 1285.53 1182.58C1288.5 1182.58 1291.2 1183.71 1293.23 1185.57L1318.05 1157.4C1317.06 1156.24 1316.46 1154.74 1316.46 1153.1C1316.46 1150.51 1317.94 1148.26 1320.11 1147.17L1305.87 1104.9C1305.48 1104.97 1305.07 1105.01 1304.66 1105.01C1300.99 1105.01 1298.02 1102.03 1298.02 1098.37C1298.02 1094.71 1300.99 1091.73 1304.66 1091.73C1308.32 1091.73 1311.29 1094.71 1311.29 1098.37C1311.29 1100.96 1309.81 1103.21 1307.64 1104.3L1321.88 1146.57C1322.27 1146.5 1322.68 1146.46 1323.1 1146.46C1325.98 1146.46 1328.45 1148.31 1329.36 1150.88L1350.06 1146.71C1350.12 1144.41 1351.99 1142.57 1354.3 1142.57C1354.45 1142.57 1354.6 1142.58 1354.74 1142.59L1361.48 1122.58C1359.31 1121.49 1357.83 1119.24 1357.83 1116.64C1357.83 1112.98 1360.8 1110.01 1364.47 1110.01C1368.13 1110.01 1371.1 1112.98 1371.1 1116.64C1371.1 1120.31 1368.13 1123.28 1364.47 1123.28C1364.05 1123.28 1363.64 1123.25 1363.25 1123.17L1356.51 1143.18C1357.74 1143.93 1358.56 1145.28 1358.56 1146.81C1358.56 1149.15 1356.65 1151.06 1354.3 1151.06C1352.58 1151.06 1351.09 1150.03 1350.43 1148.55L1329.73 1152.71C1329.73 1152.84 1329.74 1152.97 1329.74 1153.1C1329.74 1156.76 1326.76 1159.73 1323.1 1159.73C1321.75 1159.73 1320.5 1159.33 1319.45 1158.64L1294.51 1186.94C1296.04 1188.88 1296.96 1191.34 1296.96 1194.01C1296.96 1194.46 1296.93 1194.91 1296.88 1195.35L1374.57 1210.99C1375.94 1206.22 1380.34 1202.73 1385.55 1202.73C1388.11 1202.73 1390.47 1203.57 1392.38 1204.99L1444.76 1145.55C1442.78 1143.49 1441.56 1140.7 1441.56 1137.62C1441.56 1132.91 1444.41 1128.87 1448.47 1127.12L1423.18 1052.04C1422.3 1052.25 1421.38 1052.37 1420.43 1052.37C1414.12 1052.37 1409.01 1047.25 1409.01 1040.94C1409.01 1037.31 1410.71 1034.07 1413.35 1031.98L1398.61 1009.81C1398.14 1009.98 1397.63 1010.08 1397.1 1010.08C1394.75 1010.08 1392.85 1008.19 1392.85 1005.84C1392.85 1003.5 1394.75 1001.59 1397.1 1001.59C1397.44 1001.59 1397.78 1001.64 1398.1 1001.71L1412.08 973.56C1410.34 972.362 1409.2 970.353 1409.2 968.084C1409.2 965.486 1410.68 963.238 1412.85 962.148L1405.18 939.35C1405.03 939.365 1404.88 939.373 1404.73 939.373C1402.42 939.373 1400.53 937.523 1400.49 935.22L1372.89 929.667C1372.43 930.414 1371.6 930.908 1370.65 930.908C1370.32 930.908 1370.01 930.848 1369.72 930.739L1350 953.106C1350.2 953.477 1350.31 953.9 1350.31 954.351C1350.31 955.178 1349.93 955.915 1349.34 956.399L1357.55 980.772C1357.94 980.7 1358.35 980.661 1358.77 980.661C1362.42 980.661 1365.39 983.635 1365.39 987.297C1365.39 990.963 1362.42 993.936 1358.77 993.936C1357.41 993.936 1356.16 993.534 1355.11 992.843L1338.11 1012.14C1338.3 1012.51 1338.42 1012.93 1338.42 1013.38C1338.42 1014.21 1338.04 1014.94 1337.45 1015.43L1346.43 1042.1C1346.57 1042.09 1346.72 1042.08 1346.86 1042.08C1349.21 1042.08 1351.11 1043.99 1351.11 1046.33C1351.11 1048.67 1349.21 1050.58 1346.86 1050.58C1344.52 1050.58 1342.62 1048.67 1342.62 1046.33C1342.62 1044.8 1343.44 1043.44 1344.66 1042.7L1335.68 1016.03C1334.26 1015.98 1333.12 1014.81 1333.12 1013.38C1333.12 1011.92 1334.31 1010.74 1335.78 1010.74C1336.11 1010.74 1336.42 1010.8 1336.72 1010.91L1353.72 991.613C1352.72 990.452 1352.12 988.944 1352.12 987.297C1352.12 984.704 1353.61 982.456 1355.78 981.365L1347.57 956.991C1346.16 956.943 1345.02 955.78 1345.02 954.351C1345.02 952.883 1346.21 951.706 1347.67 951.706C1348 951.706 1348.31 951.765 1348.6 951.875L1368.32 929.505C1368.12 929.134 1368.01 928.709 1368.01 928.258C1368.01 926.803 1369.19 925.621 1370.65 925.621C1371.97 925.621 1373.06 926.583 1373.26 927.84L1400.86 933.397C1401.52 931.916 1403.01 930.884 1404.73 930.884C1407.07 930.884 1408.99 932.788 1408.99 935.135C1408.99 936.668 1408.17 938.009 1406.95 938.753L1414.62 961.555C1415.02 961.483 1415.42 961.445 1415.84 961.445C1419.49 961.445 1422.46 964.414 1422.46 968.084C1422.46 971.742 1419.49 974.724 1415.84 974.724C1415.11 974.724 1414.4 974.606 1413.75 974.388L1399.77 1002.54C1400.73 1003.32 1401.34 1004.51 1401.34 1005.84C1401.34 1006.98 1400.9 1008.01 1400.17 1008.77L1414.9 1030.95C1416.54 1030.04 1418.43 1029.52 1420.43 1029.52C1426.18 1029.52 1430.93 1033.77 1431.73 1039.3L1455.88 1037.77C1456.15 1034.35 1459.01 1031.65 1462.5 1031.65C1463.23 1031.65 1463.93 1031.77 1464.59 1031.98L1478.56 1003.83C1477.6 1003.05 1476.99 1001.86 1476.99 1000.53C1476.99 998.184 1478.89 996.281 1481.23 996.281C1481.58 996.281 1481.92 996.322 1482.24 996.4L1502.34 955.895C1499.03 953.894 1496.82 950.259 1496.82 946.11C1496.82 941.408 1499.66 937.369 1503.72 935.618L1493.99 906.73C1493.95 906.732 1493.92 906.732 1493.88 906.732C1492.09 906.732 1490.65 905.293 1490.65 903.502C1490.65 901.71 1492.09 900.267 1493.88 900.267C1494.36 900.267 1494.82 900.372 1495.23 900.56L1520.87 871.477C1520.56 870.981 1520.38 870.395 1520.38 869.767C1520.38 869.143 1520.56 868.56 1520.87 868.065L1502.01 846.675C1501.41 847.007 1500.72 847.195 1499.98 847.195C1498.04 847.195 1496.41 845.903 1495.9 844.139L1464.53 846.117C1464.27 849.539 1461.4 852.241 1457.91 852.241C1454.24 852.241 1451.27 849.267 1451.27 845.61C1451.27 843.635 1452.13 841.863 1453.5 840.647L1433.5 810.565L1450.63 776.037C1449.68 775.26 1449.07 774.074 1449.07 772.743Z" id="Combined-Shape" fill="#FFFFFF" opacity="0.07865979" fill-rule="evenodd" stroke="none" />
  </g>
</svg>