<?xml version="1.0" encoding="utf-8"?>
<svg width="148px" height="30px" viewBox="0 0 148 30" version="1.1" xmlns:xlink="http://www.w3.org/1999/xlink" xmlns="http://www.w3.org/2000/svg">
  <desc>Created with Lunacy</desc>
  <g id="logotype">
    <path d="M12.2336 1.5189L12.2336 0L13.6445 0L13.6445 1.5189L12.2336 1.5189ZM17.9332 0.9385L17.7852 1.7045C17.3602 1.5995 16.9282 1.5195 16.4902 1.4565L16.6402 0.6875C16.7082 0.3295 17.0522 0.0975 17.4122 0.1655C17.7702 0.2355 18.0032 0.5815 17.9332 0.9385ZM9.5959 2.3023C9.1849 2.4693 8.7869 2.6553 8.4009 2.8593L8.0699 2.1503C7.9159 1.8193 8.0589 1.4273 8.3889 1.2743C8.7199 1.1193 9.1109 1.2633 9.2649 1.5923L9.5959 2.3023ZM21.6089 3.3319L21.9949 2.6359C22.1709 2.3179 22.0559 1.9159 21.7369 1.7399C21.4199 1.5639 21.0189 1.6789 20.8409 1.9969L20.4569 2.6909C20.8519 2.8859 21.2349 3.0999 21.6089 3.3319ZM23.5665 5.349L17.1995 11.286L21.4175 3.678C21.0445 3.445 20.6605 3.23 20.2645 3.036L16.0465 10.645L17.7095 2.092C17.2845 1.987 16.8525 1.908 16.4145 1.846L14.7525 10.396L13.6925 1.76C13.4785 1.775 13.2655 1.782 13.0505 1.808C12.8285 1.836 12.6055 1.872 12.3825 1.911L13.4435 10.556L9.7635 2.662C9.3525 2.828 8.9535 3.014 8.5685 3.218L12.2495 11.113L6.3105 4.744C5.9735 5.028 5.6525 5.329 5.3475 5.645L11.2845 12.012L3.6735 7.793C3.4415 8.166 3.2275 8.55 3.0335 8.945L10.6465 13.164L2.0985 11.503C1.9925 11.928 1.9085 12.361 1.8455 12.797L10.3945 14.459L1.7505 15.521C1.7815 15.955 1.8355 16.392 1.9115 16.828L10.5535 15.768L2.6705 19.444C2.8375 19.854 3.0225 20.253 3.2275 20.639L11.1125 16.962L4.7425 22.903C5.0265 23.241 5.3295 23.559 5.6455 23.864L12.0105 17.927L7.7945 25.535C8.1675 25.767 8.5505 25.982 8.9465 26.176L13.1645 18.566L11.5025 27.12C11.9265 27.226 12.3595 27.304 12.7965 27.367L14.4585 18.818L15.5185 27.453C15.7325 27.437 15.9455 27.43 16.1605 27.404C16.3825 27.376 16.6065 27.34 16.8285 27.301L15.7665 18.656L19.4495 26.552C19.8585 26.387 20.2575 26.203 20.6455 25.998L16.9625 18.1L22.9055 24.474C23.2415 24.191 23.5625 23.89 23.8685 23.573L17.9255 17.2L25.5425 21.422C25.5795 21.363 25.6185 21.305 25.6545 21.245C25.8465 20.926 26.0215 20.6 26.1825 20.27L17.4995 15.456C17.3265 15.361 17.1315 15.358 16.9585 15.42C16.8135 15.453 16.6805 15.539 16.6055 15.681C16.2135 16.418 15.4535 16.877 14.6185 16.876C13.3785 16.876 12.3705 15.868 12.3695 14.628C12.3705 13.389 13.3745 12.382 14.6185 12.379C15.4805 12.38 16.2765 12.882 16.6485 13.66C16.7065 13.782 16.8085 13.867 16.9235 13.914C17.0515 13.995 17.2015 14.036 17.3545 14.017C17.4205 14.008 17.4875 13.99 17.5525 13.959L26.5405 9.768C26.3735 9.358 26.1895 8.959 25.9835 8.573L18.0995 12.249L24.4695 6.309C24.1855 5.972 23.8815 5.654 23.5665 5.349ZM6.0407 4.4544C5.7037 4.7394 5.3827 5.0404 5.0777 5.3554L4.5407 4.7794C4.2927 4.5134 4.3067 4.0954 4.5737 3.8474C4.8387 3.5994 5.2557 3.6134 5.5047 3.8794L6.0407 4.4544ZM24.7593 6.039L25.3313 5.505C25.5973 5.257 25.6123 4.84 25.3643 4.574C25.1153 4.308 24.6973 4.293 24.4323 4.541L23.8563 5.079C24.1713 5.384 24.4753 5.702 24.7593 6.039ZM127.284 14.6229C127.284 19.1809 123.468 22.7749 118.951 22.7749C114.453 22.7749 110.618 19.1609 110.618 14.6229C110.618 10.0849 114.453 6.4699 118.951 6.4699C123.468 6.4699 127.284 10.0649 127.284 14.6229ZM48.5176 18.2572L48.5176 18.2782C47.0926 21.0482 44.1806 22.7752 41.0686 22.7752C36.5706 22.7752 32.7346 19.1602 32.7346 14.6222C32.7346 10.0852 36.5706 6.4702 41.0686 6.4702C44.1806 6.4702 47.0516 8.1972 48.4976 10.9472L48.4976 10.9682L44.8236 12.6142L44.8036 12.6142C44.0596 11.2292 42.6346 10.3852 41.0686 10.3852C38.7186 10.3852 36.8316 12.2732 36.8316 14.6222C36.8316 16.9722 38.7186 18.8602 41.0686 18.8602C42.6346 18.8602 44.0596 18.0362 44.8036 16.6512L44.8036 16.6312L48.5176 18.2572ZM89.6881 22.474L85.2711 22.474L84.4071 20.185L78.2831 20.185L77.4181 22.474L72.9811 22.474L79.3461 6.791L79.3461 6.771L83.3631 6.771L89.6881 22.474ZM63.521 22.4741L68.381 22.4741L64.967 17.7151C67.055 16.7711 68.059 14.7431 68.059 12.5141C68.059 8.9201 65.73 6.7711 62.176 6.7711L54.505 6.7711L54.505 22.4741L58.542 22.4741L58.542 18.2781L60.549 18.2781L63.521 22.4741ZM107.18 6.7714L100.955 16.7114L100.955 22.4744L96.9192 22.4744L96.9192 16.7114L90.7142 6.7714L95.4932 6.7714L98.9272 12.4344L102.381 6.7714L107.18 6.7714ZM147.969 22.4744L144.535 22.4744L137.588 13.7794L137.588 22.4744L133.531 22.4744L133.531 6.7714L136.965 6.7714L143.933 15.4854L143.933 6.7714L147.969 6.7714L147.969 22.4744ZM2.688 8.7533C2.882 8.3583 3.096 7.9743 3.328 7.6013L2.636 7.2173C2.318 7.0413 1.917 7.1563 1.739 7.4743C1.563 7.7933 1.678 8.1943 1.997 8.3703L2.688 8.7533ZM27.062 8.0701C27.393 7.9171 27.785 8.0591 27.938 8.3891C28.092 8.7191 27.949 9.1111 27.62 9.2651L26.898 9.6011C26.731 9.1911 26.546 8.7921 26.342 8.4061L27.062 8.0701ZM123.609 14.6029C123.609 17.1329 121.622 19.2819 119.051 19.2819C116.421 19.2819 114.292 17.2929 114.292 14.6229C114.292 12.0519 116.38 9.9639 118.951 9.9639C121.541 9.9639 123.609 12.0129 123.609 14.6029ZM61.955 15.0241C63.501 15.0241 64.565 14.1411 64.565 12.5541C64.565 10.9081 63.561 10.0451 61.955 10.0451L58.12 10.0451L58.12 15.0241L61.955 15.0241ZM83.6441 16.932L79.0451 16.932L81.3551 10.787L83.6441 16.932ZM0.6866 12.5727L1.4576 12.7217C1.5196 12.2857 1.6046 11.8527 1.7096 11.4277L0.9386 11.2777C0.5786 11.2097 0.2336 11.4417 0.1656 11.7997C0.0956 12.1567 0.3296 12.5027 0.6866 12.5727ZM1.5195 15.5688L1.5195 16.9777L0 16.9777L0 16.3414C-0.000540414 16.3259 -0.000535096 16.3105 0 16.2953L0 15.5688L1.5195 15.5688ZM1.5915 19.9468L2.3125 19.6108C2.4795 20.0208 2.6645 20.4208 2.8685 20.8058L2.1495 21.1418C2.0845 21.1728 2.0185 21.1908 1.9515 21.1988C1.6755 21.2328 1.3965 21.0888 1.2735 20.8228C1.1195 20.4928 1.2625 20.1008 1.5915 19.9468ZM26.5289 20.4623C26.3639 20.7963 26.1879 21.1263 25.9939 21.4483C25.9609 21.5053 25.9239 21.5593 25.8889 21.6143L26.5759 21.9943C26.7019 22.0653 26.8409 22.0893 26.9749 22.0723C27.1769 22.0483 27.3649 21.9303 27.4719 21.7373C27.6479 21.4193 27.5329 21.0183 27.2149 20.8423L26.5289 20.4623ZM3.8797 23.7073L4.4517 23.1733C4.7367 23.5103 5.0397 23.8283 5.3547 24.1343L4.7787 24.6713C4.6727 24.7703 4.5437 24.8263 4.4097 24.8433C4.2077 24.8683 3.9967 24.7993 3.8477 24.6393C3.5987 24.3723 3.6137 23.9553 3.8797 23.7073ZM23.1757 24.7627C23.5107 24.4797 23.8317 24.1787 24.1387 23.8617L24.6707 24.4327C24.9187 24.6997 24.9047 25.1167 24.6387 25.3647C24.5327 25.4637 24.4027 25.5197 24.2697 25.5367C24.0667 25.5617 23.8567 25.4927 23.7067 25.3327L23.1757 24.7627ZM7.6026 25.8803L7.2166 26.5753C7.0406 26.8943 7.1556 27.2953 7.4746 27.4723C7.6006 27.5423 7.7396 27.5673 7.8736 27.5503C8.0756 27.5253 8.2636 27.4063 8.3706 27.2153L8.7546 26.5223C8.3596 26.3263 7.9766 26.1123 7.6026 25.8803ZM20.8125 26.3578C20.4245 26.5608 20.0255 26.7468 19.6165 26.9118L19.9465 27.6198C20.0705 27.8848 20.3485 28.0298 20.6245 27.9958C20.6915 27.9868 20.7585 27.9678 20.8225 27.9378C21.1525 27.7848 21.2955 27.3918 21.1415 27.0618L20.8125 26.3578ZM11.2783 28.2743L11.4263 27.5073C11.8513 27.6123 12.2833 27.6933 12.7213 27.7553L12.5713 28.5253C12.5163 28.8133 12.2803 29.0203 12.0053 29.0543C11.9383 29.0623 11.8683 29.0603 11.7983 29.0463C11.4413 28.9773 11.2083 28.6313 11.2783 28.2743ZM16.9771 27.6933L15.567 27.6933L15.567 29.212L16.3011 29.212C16.312 29.2123 16.3229 29.2123 16.3339 29.212L16.9771 29.212L16.9771 27.6933Z" id="logotype" fill="#F6FBFE" fill-rule="evenodd" stroke="none" />
  </g>
</svg>