<svg xmlns="http://www.w3.org/2000/svg" width="106" height="13.001" viewBox="0 0 106 13.001">
  <g id="Group_4" data-name="Group 4" transform="translate(-1033.229 -446.42)">
    <path id="Path_26" data-name="Path 26" d="M1036.659,451.583a.286.286,0,0,0-.461-.078.407.407,0,0,0-.1.154l-2.835,7.143a.484.484,0,0,0,.151.573.289.289,0,0,0,.152.045h3.948a.33.33,0,0,0,.3-.236A8.824,8.824,0,0,0,1036.659,451.583Z" fill="#989898" fill-rule="evenodd"/>
    <path id="Path_27" data-name="Path 27" d="M1038.725,446.624a7.752,7.752,0,0,0-.541,8.3l2.359,4.282a.426.426,0,0,0,.375.211h4.891a.4.4,0,0,0,.42-.382.354.354,0,0,0-.044-.17l-6.745-12.246a.417.417,0,0,0-.531-.166A.387.387,0,0,0,1038.725,446.624Z" fill="#989898" fill-rule="evenodd"/>
    <path id="Path_28" data-name="Path 28" d="M1099.229,456.105c0-1.868-.957-2.745-3.655-3.346-1.49-.341-1.851-.682-1.851-1.17,0-.617.533-.877,1.522-.877a8.331,8.331,0,0,1,3.482.893v-2.453a7.648,7.648,0,0,0-3.4-.731c-2.667,0-4.047,1.2-4.047,3.168m0,0c0,1.576.706,2.827,3.467,3.379,1.647.359,1.992.634,1.992,1.2,0,.552-.346.909-1.506.909a8.27,8.27,0,0,1-4-1.121v2.567a7.944,7.944,0,0,0,3.968.894c2.887,0,4.032-1.333,4.032-3.315" fill="#989898" fill-rule="evenodd"/>
    <path id="Path_29" data-name="Path 29" d="M1130.229,448.42v11h2.2v-8.388l.927,2.227,3.11,6.161h2.764v-11h-2.2v7.1l-.833-2.059-2.5-5.04Z" fill="#989898" fill-rule="evenodd"/>
    <rect id="Rectangle_1" data-name="Rectangle 1" width="2" height="11" transform="translate(1113.229 448.42)" fill="#989898"/>
    <path id="Path_30" data-name="Path 30" d="M1110.229,456.105c0-1.868-1.077-2.745-4.112-3.346-1.676-.341-2.082-.682-2.082-1.17,0-.617.6-.877,1.712-.877a10.315,10.315,0,0,1,3.917.893v-2.453a9.518,9.518,0,0,0-3.829-.731c-3,0-4.553,1.2-4.553,3.168,0,1.576.794,2.827,3.9,3.379,1.853.359,2.241.634,2.241,1.2,0,.552-.389.909-1.694.909a10.194,10.194,0,0,1-4.5-1.121v2.567a9.847,9.847,0,0,0,4.465.894c3.247,0,4.535-1.333,4.535-3.315" fill="#989898" fill-rule="evenodd"/>
    <path id="Path_31" data-name="Path 31" d="M1072.229,448.42v11h5.184l.816-2.378h-3.462V448.42Z" fill="#989898" fill-rule="evenodd"/>
    <path id="Path_32" data-name="Path 32" d="M1061.229,448.42V450.8h3.024v8.623h2.739V450.8h3.237V448.42Z" fill="#989898" fill-rule="evenodd"/>
    <path id="Path_33" data-name="Path 33" d="M1056.729,455.584a5.011,5.011,0,0,1-1.4-.2l1.4-4.8,1.4,4.8A4.982,4.982,0,0,1,1056.729,455.584Zm1.682-7.164h-3.363l-3.819,11h2.916l.541-1.853a7.224,7.224,0,0,0,4.085,0l.541,1.853h2.917Z" fill="#989898" fill-rule="evenodd"/>
    <path id="Path_34" data-name="Path 34" d="M1084.229,455.584a4.178,4.178,0,0,1-1.276-.2l1.276-4.8,1.276,4.8A4.146,4.146,0,0,1,1084.229,455.584Zm1.529-7.164H1082.7l-3.471,11h2.651l.493-1.853a5.991,5.991,0,0,0,3.712,0l.492,1.853h2.652Z" fill="#989898" fill-rule="evenodd"/>
    <path id="Path_35" data-name="Path 35" d="M1122.728,455.584a5.007,5.007,0,0,1-1.4-.2l1.4-4.8,1.4,4.8A4.973,4.973,0,0,1,1122.728,455.584Zm1.683-7.164h-3.364l-3.818,11h2.916l.542-1.853a7.221,7.221,0,0,0,4.084,0l.541,1.853h2.917Z" fill="#989898" fill-rule="evenodd"/>
  </g>
</svg>
