<svg xmlns="http://www.w3.org/2000/svg" width="93.591" height="22.096" viewBox="0 0 93.591 22.096">
  <g id="Group_28" data-name="Group 28" transform="translate(-539.759 -306.637)">
    <path id="Path_142" data-name="Path 142" d="M573.671,315.395a.4.4,0,0,1-.292.054.386.386,0,0,1-.248-.162,3.2,3.2,0,0,0-1.167-1.015,3.08,3.08,0,0,0-1.512-.335c-2.041,0-3.3,1.62-3.3,3.931s1.274,3.964,3.326,3.964a3.129,3.129,0,0,0,2.7-1.415.367.367,0,0,1,.248-.162.4.4,0,0,1,.292.043l.972.562a.45.45,0,0,1,.14.108.285.285,0,0,1,.076.162.456.456,0,0,1,0,.173.434.434,0,0,1-.065.162,5.032,5.032,0,0,1-1.879,1.685,5.125,5.125,0,0,1-2.463.561c-3.272,0-5.486-2.376-5.486-5.832s2.214-5.8,5.443-5.8a5.15,5.15,0,0,1,4.331,2.138.691.691,0,0,1,.076.151.5.5,0,0,1,0,.173.524.524,0,0,1-.065.162.421.421,0,0,1-.119.119Z" fill="#989898"/>
    <path id="Path_143" data-name="Path 143" d="M580.82,322.61v.475a.445.445,0,0,0,.032.162.29.29,0,0,0,.1.129.374.374,0,0,0,.14.087.286.286,0,0,0,.162.021h1.069a.338.338,0,0,0,.151-.032.4.4,0,0,0,.13-.086.456.456,0,0,0,.086-.13.417.417,0,0,0,.033-.151v-5.346c0-1.933-1.372-2.732-3.326-2.732a6.686,6.686,0,0,0-3.143.788.412.412,0,0,0-.173.54l.346.734a.291.291,0,0,0,.1.13.361.361,0,0,0,.14.076.431.431,0,0,0,.162.021.344.344,0,0,0,.151-.043,5.05,5.05,0,0,1,2.236-.562c.68,0,1.479.184,1.479.875,0,.724-.874.853-1.954,1l-.259.033c-1.113.151-2.927.507-2.927,2.527,0,1.631,1.177,2.56,2.873,2.56A2.8,2.8,0,0,0,580.82,322.61Zm-1.674-2.754a4.142,4.142,0,0,0,1.566-.465v.951a1.7,1.7,0,0,1-1.857,1.782c-.778,0-1.307-.346-1.307-1.08,0-.8.615-1.005,1.35-1.134a2.287,2.287,0,0,1,.248-.054Z" fill="#989898" fill-rule="evenodd"/>
    <path id="Path_144" data-name="Path 144" d="M584.481,321.378a.417.417,0,0,1,.27-.14.4.4,0,0,1,.292.086,3.765,3.765,0,0,0,2.376.767c.885,0,1.533-.281,1.533-.972,0-.626-.594-.756-2.041-1-1.533-.259-3-.767-3-2.516,0-1.826,1.577-2.592,3.369-2.592a5.012,5.012,0,0,1,3.122,1.026.437.437,0,0,1,.108.129.422.422,0,0,1,.021.324.4.4,0,0,1-.086.141l-.508.6a.413.413,0,0,1-.27.141.453.453,0,0,1-.291-.076,3.567,3.567,0,0,0-2.171-.691c-.756,0-1.415.216-1.415.821,0,.658.929.788,1.858.95,1.976.346,3.239.907,3.239,2.56,0,1.728-1.382,2.8-3.574,2.8a5.216,5.216,0,0,1-3.327-1.08.455.455,0,0,1-.108-.13.358.358,0,0,1-.043-.151.413.413,0,0,1,.022-.162.568.568,0,0,1,.075-.14Zm7.614,1.707V312.674a.445.445,0,0,1,.032-.162.4.4,0,0,1,.087-.13.44.44,0,0,1,.129-.086.417.417,0,0,1,.152-.033h1.177a.41.41,0,0,1,.41.411v3.553a3.16,3.16,0,0,1,1.113-.918,3.058,3.058,0,0,1,1.414-.3,2.713,2.713,0,0,1,2.765,3.013v5.065a.352.352,0,0,1-.032.151.393.393,0,0,1-.087.13.461.461,0,0,1-.129.086.414.414,0,0,1-.151.032H597.8a.4.4,0,0,1-.41-.41v-4.6c0-.885-.281-1.684-1.415-1.684a1.853,1.853,0,0,0-1.89,2.008v4.277a.4.4,0,0,1-.41.41h-1.177a.425.425,0,0,1-.162-.032.4.4,0,0,1-.13-.086.456.456,0,0,1-.086-.13.624.624,0,0,1-.022-.151Z" fill="#989898"/>
    <path id="Path_145" data-name="Path 145" d="M611.513,320.709l.853,2.5a.394.394,0,0,0,.141.206.451.451,0,0,0,.237.086H614.2a.431.431,0,0,0,.195-.043.577.577,0,0,0,.151-.13.386.386,0,0,0,.075-.183.409.409,0,0,0-.021-.2l-3.845-10.411a.419.419,0,0,0-.389-.27h-1.89a.4.4,0,0,0-.226.065.424.424,0,0,0-.152.184l-3.877,10.421a.408.408,0,0,0-.021.2.517.517,0,0,0,.064.183.362.362,0,0,0,.152.13.356.356,0,0,0,.183.043h1.383a.367.367,0,0,0,.237-.075.48.48,0,0,0,.151-.206l.854-2.5Zm-3.769-1.75,1.652-4.87,1.588,4.87Zm9.806-2.71V315.6a.9.9,0,0,0-.021-.162.608.608,0,0,0-.087-.141.416.416,0,0,0-.14-.1.425.425,0,0,0-.162-.032h-1.177a.41.41,0,0,0-.411.41v10.227a.411.411,0,0,0,.411.411h1.177a.41.41,0,0,0,.41-.411v-3.391a2.9,2.9,0,0,0,1.123.951,2.991,2.991,0,0,0,1.437.3c2.257,0,3.726-1.89,3.726-4.342s-1.458-4.319-3.726-4.319a2.991,2.991,0,0,0-1.437.3,2.86,2.86,0,0,0-1.123.94Zm4.19,3.077c0,1.426-.658,2.614-2.041,2.614-1.4,0-2.138-1.177-2.138-2.614s.767-2.581,2.138-2.581S621.74,317.9,621.74,319.326Zm5.325-3.077V315.6a.413.413,0,0,0-.022-.162.6.6,0,0,0-.086-.141.419.419,0,0,0-.141-.1.425.425,0,0,0-.162-.032h-1.177a.4.4,0,0,0-.41.41v10.227a.41.41,0,0,0,.41.411h1.177a.411.411,0,0,0,.411-.411v-3.391a2.888,2.888,0,0,0,1.123.951,2.99,2.99,0,0,0,1.436.3c2.268,0,3.726-1.89,3.726-4.342s-1.458-4.319-3.726-4.319a2.99,2.99,0,0,0-1.436.3,2.846,2.846,0,0,0-1.123.94Zm4.19,3.077c0,1.426-.659,2.614-2.041,2.614-1.4,0-2.138-1.177-2.138-2.614s.766-2.581,2.138-2.581S631.255,317.9,631.255,319.326Z" fill="#989898" fill-rule="evenodd"/>
    <path id="Path_146" data-name="Path 146" d="M561.488,309.823a4.562,4.562,0,0,0-1.09-1.718,4.711,4.711,0,0,0-1.717-1.09,14.684,14.684,0,0,0-4.536-.378H547.46a14.913,14.913,0,0,0-4.515.367,4.572,4.572,0,0,0-1.717,1.091,4.712,4.712,0,0,0-1.091,1.717,14.6,14.6,0,0,0-.378,4.525v6.685a14.907,14.907,0,0,0,.368,4.525,4.559,4.559,0,0,0,1.09,1.717,4.713,4.713,0,0,0,1.717,1.091,14.61,14.61,0,0,0,4.526.378h6.7a14.574,14.574,0,0,0,4.526-.378,4.574,4.574,0,0,0,1.717-1.091,4.7,4.7,0,0,0,1.09-1.717,14.6,14.6,0,0,0,.378-4.525v-6.674A14.561,14.561,0,0,0,561.488,309.823Zm-5.572,4.136a.459.459,0,0,1-.1.151l-.854.853a.478.478,0,0,1-.313.13.467.467,0,0,1-.313-.119,4.6,4.6,0,0,0-2.97-1.091c-.9,0-1.793.292-1.8,1.1s.961,1.091,2.073,1.512c1.944.659,3.542,1.458,3.542,3.359,0,2.062-1.6,3.477-4.222,3.639l-.238,1.113a.467.467,0,0,1-.162.259.444.444,0,0,1-.281.1h-1.652a.424.424,0,0,1-.194-.043.6.6,0,0,1-.152-.13.331.331,0,0,1-.086-.173.575.575,0,0,1,0-.194l.259-1.166a5.969,5.969,0,0,1-2.646-1.448.329.329,0,0,1-.1-.14.44.44,0,0,1-.032-.173.48.48,0,0,1,.032-.173.414.414,0,0,1,.1-.14l.918-.9a.443.443,0,0,1,.627,0,4.423,4.423,0,0,0,3.121,1.22c1.2,0,2.008-.508,2.008-1.307s-.81-1.015-2.343-1.587c-1.62-.584-3.154-1.4-3.154-3.327,0-2.224,1.858-3.3,4.05-3.412l.227-1.124a.549.549,0,0,1,.162-.248.444.444,0,0,1,.281-.1h1.641a.431.431,0,0,1,.2.043.391.391,0,0,1,.151.119.367.367,0,0,1,.086.173.572.572,0,0,1,0,.194l-.259,1.264a6.7,6.7,0,0,1,2.279,1.274.352.352,0,0,1,.108.14.446.446,0,0,1,.043.173A.5.5,0,0,1,555.916,313.959Z" fill="#989898" fill-rule="evenodd"/>
  </g>
</svg>
