<svg id="Layer_1" data-name="Layer 1" xmlns="http://www.w3.org/2000/svg" viewBox="0 0 73.26 74.69"><defs><style>.cls-1{fill:#c0edf1;}.cls-2{fill:#fff;}</style></defs><rect class="cls-1" width="52.88" height="66.22" rx="11.71"/><path d="M65.65,74.69H14.15A5.16,5.16,0,0,1,9,69.54V13.6a5.16,5.16,0,0,1,5.15-5.16H56.69a5.16,5.16,0,0,1,5.15,5.16V20h7.25a4.13,4.13,0,0,1,4.12,4.13V67.54a7.14,7.14,0,0,1-7.14,7.14h-.42ZM14.15,11a2.57,2.57,0,0,0-2.57,2.57V69.54a2.57,2.57,0,0,0,2.57,2.57H66.07a4.57,4.57,0,0,0,4.56-4.56V24.13a1.54,1.54,0,0,0-1.54-1.55H59.26v-9A2.57,2.57,0,0,0,56.69,11Z"/><path d="M66.27,74.69a7.08,7.08,0,0,1-7-7.14V21h2.59V67.55a4.41,4.41,0,1,0,8.82,0l-.09-44.08h2.58l.09,44.08A7.08,7.08,0,0,1,66.27,74.69Z"/><path d="M51.15,24.39H38a1.13,1.13,0,0,1,0-2.26H51.15a1.13,1.13,0,0,1,0,2.26Z"/><path d="M51.15,31H38a1.13,1.13,0,0,1,0-2.26H51.15a1.13,1.13,0,0,1,0,2.26Z"/><path d="M51.15,37.57H38a1.13,1.13,0,1,1,0-2.26H51.15a1.13,1.13,0,1,1,0,2.26Z"/><path d="M31.05,22.13H18.49a1.65,1.65,0,0,0-1.65,1.65v12a1.66,1.66,0,0,0,1.65,1.65H31.05a1.66,1.66,0,0,0,1.65-1.65v-12A1.65,1.65,0,0,0,31.05,22.13Zm-.61,13.08H19.1V24.39H30.44Z"/><rect class="cls-2" x="19.1" y="24.39" width="11.34" height="10.81"/><path d="M51.15,44.16H18a1.13,1.13,0,0,1,0-2.26H51.15a1.13,1.13,0,1,1,0,2.26Z"/><path d="M51.14,50.75H38a1.13,1.13,0,1,1,0-2.26H51.14a1.13,1.13,0,1,1,0,2.26Z"/><path d="M51.14,57.34H38a1.13,1.13,0,0,1,0-2.26H51.14a1.13,1.13,0,0,1,0,2.26Z"/><path d="M51.14,64.9H38a1.13,1.13,0,0,1,0-2.26H51.14a1.13,1.13,0,0,1,0,2.26Z"/><path d="M31.05,48.49H18.49a1.65,1.65,0,0,0-1.65,1.65v12a1.66,1.66,0,0,0,1.65,1.66H31.05a1.66,1.66,0,0,0,1.65-1.66v-12A1.65,1.65,0,0,0,31.05,48.49Zm-.61,13.07H19.1V50.75H30.44Z"/><rect class="cls-2" x="19.1" y="50.75" width="11.34" height="10.81"/></svg>