<svg xmlns="http://www.w3.org/2000/svg" width="85" height="15" viewBox="0 0 85 15">
  <g id="Group_9" data-name="Group 9" transform="translate(-1044.426 -300.834)">
    <circle id="Ellipse_1" data-name="Ellipse 1" cx="7.5" cy="7.5" r="7.5" transform="translate(1081.466 300.834)" fill="#989898"/>
    <path id="Path_54" data-name="Path 54" d="M1081.424,305.419v-2.865c-3.657-1.68-8.19-.47-10.127,2.7s-.543,7.1,3.114,8.785a8.51,8.51,0,0,0,7.013,0v-2.865a5.149,5.149,0,0,1-6.55.389,3.788,3.788,0,0,1-1.583-3.282C1073.291,304.71,1077.93,302.389,1081.424,305.419Z" fill="#989898" fill-rule="evenodd"/>
    <path id="Path_55" data-name="Path 55" d="M1064.849,312.528a3.03,3.03,0,0,1-2.784-1.644l-1.638,1.506c2.831,3.972,9,2.769,9-1.719,0-1.995-.859-2.892-3.752-3.895-1.526-.517-1.955-.9-1.955-1.568,0-1.324,2.305-2.142,3.959-.381l1.336-1.643c-3.037-2.6-7.9-1.355-7.9,2.176,0,1.72.827,2.617,3.212,3.454C1068.41,310.2,1066.662,312.528,1064.849,312.528Z" fill="#989898" fill-rule="evenodd"/>
    <path id="Path_56" data-name="Path 56" d="M1051.287,311.593a5.135,5.135,0,0,1-3.569,1.015h-.684v-8.593h.684a4.839,4.839,0,0,1,3.569,1.047,4.272,4.272,0,0,1,1.45,3.246,4.388,4.388,0,0,1-1.45,3.281Zm4.139-3.282c0-3.821-2.933-6.516-7.186-6.516h-3.814v13h3.814C1053.275,314.8,1055.426,311.244,1055.426,308.311Z" fill="#989898" fill-rule="evenodd"/>
    <rect id="Rectangle_2" data-name="Rectangle 2" width="3" height="13" transform="translate(1056.464 301.834)" fill="#989898"/>
    <path id="Path_57" data-name="Path 57" d="M1102.592,314.8l5.835-13h-2.876l-3.648,8.523-3.6-8.523h-2.876l5.753,13Z" fill="#989898" fill-rule="evenodd"/>
    <path id="Path_58" data-name="Path 58" d="M1122.877,307.837h-.784V303.9h.817c1.684,0,2.6.665,2.6,1.915,0,1.329-.915,2.025-2.632,2.025Zm5.367-2.152c0-4.507-5.052-3.857-8.818-3.857V314.8h2.667v-5.186h.368l3.7,5.186h3.265l-4.3-5.44A3.489,3.489,0,0,0,1128.244,305.685Z" fill="#989898" fill-rule="evenodd"/>
    <path id="Path_59" data-name="Path 59" d="M1117.429,304.015v-2.22h-7v13h7V312.6H1112.9v-3.519h4.373V306.9H1112.9v-2.885Z" fill="#989898" fill-rule="evenodd"/>
  </g>
</svg>
