<svg xmlns="http://www.w3.org/2000/svg" width="151.457" height="29.81" viewBox="0 0 151.457 29.81"><defs><style>.a{fill:#6c7a81;}</style></defs><path class="a" d="M1498.778,1312.345l-8.779,5.593,8.779,5.59L1490,1329.12l-8.777-5.593,8.777-5.59-8.777-5.593,8.777-5.59Zm-8.806,18.629,8.78-5.59,8.777,5.59-8.777,5.59Zm8.806-7.447,8.777-5.59-8.777-5.593,8.777-5.59,8.779,5.59-8.779,5.593,8.779,5.59-8.779,5.593Z" transform="translate(-1481.221 -1306.755)"/><path class="a" d="M1499.111,1309.991h7.109c4.546,0,8.256,2.64,8.256,8.623v1.281c0,6.008-3.5,8.725-8.153,8.725h-7.212Zm3.973,3.372V1325.2h3.055c2.561,0,4.311-1.7,4.311-5.435v-.967c0-3.736-1.8-5.433-4.442-5.433Zm13.506.183h3.161l.5,3.5c.6-2.4,2.143-3.631,4.938-3.631h.967v4h-1.619c-3.241,0-4.025,1.124-4.025,4.311v6.9h-3.919Zm10.4,7.862v-.418c0-5.066,3.241-7.784,7.629-7.784,4.494,0,7.6,2.769,7.6,7.784v.418c0,4.966-3.055,7.6-7.6,7.6C1529.758,1329.012,1526.989,1326.374,1526.989,1321.408Zm11.26-.051v-.366c0-2.821-1.41-4.466-3.631-4.466-2.194,0-3.658,1.539-3.658,4.466v.366c0,2.717,1.384,4.234,3.633,4.234S1538.249,1324.1,1538.249,1321.357Zm6.036-7.81h3.293l.392,2.873a5.069,5.069,0,0,1,4.964-3.213c3.839,0,6.348,2.769,6.348,7.839v.418c0,4.964-2.8,7.549-6.348,7.549a4.893,4.893,0,0,1-4.809-2.821v7.6h-3.839Zm11.025,7.836v-.338c0-3.006-1.542-4.494-3.6-4.494-2.2,0-3.659,1.671-3.659,4.466v.289c0,2.664,1.411,4.337,3.579,4.337C1553.874,1325.642,1555.31,1324.152,1555.31,1321.382Zm9.744,4.494-.312,2.743h-3.4V1308.5h3.839v7.732a4.906,4.906,0,0,1,4.886-3.03c3.579.026,6.245,2.509,6.245,7.524v.443c0,5.018-2.509,7.838-6.351,7.838A4.944,4.944,0,0,1,1565.054,1325.876Zm7.318-4.7v-.366c0-2.769-1.516-4.283-3.607-4.283-2.169,0-3.656,1.75-3.656,4.337v.312c0,2.823,1.436,4.443,3.6,4.443C1570.987,1325.616,1572.372,1324.152,1572.372,1321.173Zm5.694.235v-.418c0-5.066,3.215-7.784,7.6-7.784,4.494,0,7.629,2.769,7.629,7.784v.418c0,4.966-3.084,7.6-7.629,7.6C1580.808,1329.012,1578.065,1326.374,1578.065,1321.408Zm11.262-.051v-.366c0-2.821-1.41-4.466-3.633-4.466-2.194,0-3.656,1.539-3.656,4.466v.366c0,2.717,1.384,4.234,3.63,4.234C1587.943,1325.59,1589.327,1324.1,1589.327,1321.357Zm9.092-.549-5.278-7.261h4.52l3.058,4.518,3.081-4.518h4.494l-5.355,7.235,5.644,7.838h-4.443l-3.475-4.989-3.37,4.989h-4.6Z" transform="translate(-1457.126 -1304.401)"/></svg>