<svg xmlns="http://www.w3.org/2000/svg" width="111.001" height="21" viewBox="0 0 111.001 21">
  <g id="Group_12" data-name="Group 12" transform="translate(-892.076 -82.259)">
    <path id="Path_71" data-name="Path 71" d="M905.077,94.075l6.5-3.939-6.5-3.939,6.5-3.938,6.5,3.938-6.5,3.939,6.5,3.939-6.5,3.939Zm-6.519,5.245,6.5-3.938,6.5,3.938-6.5,3.939ZM905.077,86.2l-6.5,3.939,6.5,3.939-6.5,3.939-6.5-3.939,6.5-3.939-6.5-3.939,6.5-3.938Z" fill="#989898" fill-rule="evenodd"/>
    <path id="Path_72" data-name="Path 72" d="M995.649,94.016l-3.857-5.169h3.3l2.233,3.216,2.253-3.216h3.285L998.954,94l4.123,5.579h-3.244l-2.54-3.551-2.459,3.551h-3.36Zm-6.641.39v-.261c0-2.007-1.033-3.179-2.655-3.179-1.6,0-2.673,1.1-2.673,3.179v.261c0,1.935,1.013,3.014,2.653,3.014,1.662.005,2.674-1.056,2.674-3.009Zm-8.23.037v-.3a5.569,5.569,0,0,1,11.132-.227c0,.075,0,.152,0,.227v.3a5.027,5.027,0,0,1-4.64,5.418,5.2,5.2,0,0,1-.934,0c-3.555,0-5.559-1.878-5.559-5.412Zm-4.163-.167v-.261c0-1.972-1.107-3.049-2.634-3.049-1.585,0-2.674,1.246-2.674,3.087v.221c0,2.01,1.052,3.163,2.636,3.163,1.659.006,2.677-1.039,2.677-3.157Zm-5.346,3.348-.227,1.952h-2.483V85.258h2.807v5.51a3.6,3.6,0,0,1,3.567-2.156c2.616.018,4.562,1.786,4.562,5.356v.316c0,3.572-1.831,5.58-4.639,5.58a3.617,3.617,0,0,1-3.588-2.236Zm-7.121-3.2v-.239c0-2.14-1.126-3.2-2.635-3.2-1.6,0-2.673,1.19-2.673,3.179v.206c0,1.9,1.031,3.087,2.616,3.087,1.636,0,2.691-1.06,2.691-3.029Zm-8.057-5.577h2.4l.286,2.045a3.716,3.716,0,0,1,3.63-2.287c2.8,0,4.638,1.972,4.638,5.58v.3c0,3.533-2.042,5.373-4.638,5.373a3.589,3.589,0,0,1-3.514-2.007v5.41h-2.8Zm-4.412,5.559v-.261c0-2.007-1.03-3.179-2.653-3.179s-2.673,1.1-2.673,3.179v.261c0,1.935,1.012,3.014,2.653,3.014s2.673-1.056,2.673-3.009Zm-8.229.037v-.3a5.569,5.569,0,0,1,11.132-.161c0,.053,0,.107,0,.161v.3a5.013,5.013,0,0,1-4.616,5.412,5.27,5.27,0,0,1-.94,0c-3.552,0-5.576-1.873-5.576-5.407Zm-7.6-5.6h2.31l.369,2.49a3.256,3.256,0,0,1,3.608-2.583h.707v2.853H941.66c-2.366,0-2.939.8-2.939,3.069v4.911h-2.87Zm-9.871-.131v8.425h2.234c1.871,0,3.151-1.21,3.151-3.869v-.689c0-2.659-1.317-3.867-3.247-3.867Zm-2.9-2.4h5.194c3.32,0,6.033,1.879,6.033,6.138v.911c0,4.276-2.557,6.211-5.956,6.211h-5.27Z" fill="#989898" fill-rule="evenodd"/>
  </g>
</svg>
