<svg xmlns="http://www.w3.org/2000/svg" width="83.355" height="23.717" viewBox="0 0 83.355 23.717">
  <g id="Group_24" data-name="Group 24" transform="translate(-576.505 -234.669)">
    <g id="Group_23" data-name="Group 23">
      <path id="Path_114" data-name="Path 114" d="M630.734,255.877l10.022-12.109h-9.38v-2.409h12.912v1.863l-10.149,12.335h10.6v2.408h-14Z" fill="#989898"/>
      <g id="Group_22" data-name="Group 22">
        <path id="Path_115" data-name="Path 115" d="M659.593,252.733c-.738,3.662-3.373,5.653-7.1,5.653-5.3,0-7.8-3.662-7.967-8.736,0-4.979,3.277-8.641,7.8-8.641,5.879,0,7.678,5.492,7.517,9.507H647.419c-.1,2.891,1.542,5.461,5.172,5.461a4,4,0,0,0,4.3-3.244h2.7m-2.634-4.626a4.771,4.771,0,0,0-9.54,0Z" fill="#989898"/>
        <path id="Path_116" data-name="Path 116" d="M627.34,241.358V251.9a4.474,4.474,0,0,1-1.05,3.191,4.014,4.014,0,0,1-3.029,1.095,4.46,4.46,0,0,1-3.224-1.1,4.281,4.281,0,0,1-1.131-3.187v-10.54h-2.543V251.9a6.276,6.276,0,0,0,1.837,4.921,7.389,7.389,0,0,0,5.061,1.565,6.807,6.807,0,0,0,4.876-1.656,6.448,6.448,0,0,0,1.747-4.83v-10.54Z" fill="#989898"/>
        <path id="Path_117" data-name="Path 117" d="M611.592,241.358l.006-2.282c0-1.365.649-1.947,2.171-1.947a5.389,5.389,0,0,1,1.461.2v-2.207a6.7,6.7,0,0,0-1.687-.234c-2.953,0-4.514,1.393-4.514,4.032l-.005,2.443h-2.779v2.406h2.764l.02,14.195H611.6l-.021-14.195h3.408v-2.406Z" fill="#989898"/>
      </g>
    </g>
    <path id="Path_118" data-name="Path 118" d="M593.015,247.065a7.846,7.846,0,0,0-2.41-5.67c-.07-.06-.15-.12-.23-.18l-.24-.18a5.678,5.678,0,0,0-1.53-.72,8.511,8.511,0,0,0-5.36.63v.01c-.12.04-.25.1-.37.15v.01c-.12.04-.23.1-.35.15-3.1,1.46-5.78,3.98-5.77,5.69.02,2.82,5.57,6.94,9.83,7.54.14.02.28.04.42.05s.26.02.39.02l.01.01a5.676,5.676,0,0,0,1.33-.12,4.934,4.934,0,0,0,3.55-2.71,2.538,2.538,0,0,0,.13-.29c.04-.09.07-.18.11-.27A10.579,10.579,0,0,0,593.015,247.065Zm-5.99-6.71a5.3,5.3,0,0,1,1.51.2,5.424,5.424,0,0,1,1.31.59,11.174,11.174,0,0,0-3.68,2.41,8,8,0,0,0-2.28,4.04,5.349,5.349,0,0,1-1.56-3.7,6.523,6.523,0,0,1,.73-2.59A10.147,10.147,0,0,1,587.025,240.355Zm-7.08,10.78a11.094,11.094,0,0,1-2.16-2.2,3.682,3.682,0,0,1-.78-1.98c-.01-1.01,1.1-2.47,2.88-3.81a16.406,16.406,0,0,1,2.48-1.52,6.86,6.86,0,0,0-.54,2.24,6.019,6.019,0,0,0,1.96,4.35,1.975,1.975,0,0,0-.04.34,8.214,8.214,0,0,0,2.55,5.65A15.586,15.586,0,0,1,579.945,251.135Zm8.73,3.08a5.125,5.125,0,0,1-1.58.09,8.011,8.011,0,0,1-2.85-5.64,12.209,12.209,0,0,0,1.44,1.17,10.5,10.5,0,0,0,5.65,1.98,5.021,5.021,0,0,0,.67-.04A4.707,4.707,0,0,1,588.675,254.215Zm3.57-2.98a9.126,9.126,0,0,1-6.28-1.81,11.771,11.771,0,0,1-1.67-1.4,7.616,7.616,0,0,1,2.22-4.12,10.693,10.693,0,0,1,3.82-2.41c1.99,1.57,2.37,4.29,2.43,5.58A9.971,9.971,0,0,1,592.245,251.235Z" fill="#989898"/>
    <path id="Path_119" data-name="Path 119" d="M593.265,247.045a8.077,8.077,0,0,0-2.38-5.73l-.23-.2c-.07-.06-.16-.12-.24-.18a5.659,5.659,0,0,0-1.74-.86,8.39,8.39,0,0,0-5.22.53l-.39.15c-.12.05-.24.1-.36.16a16.189,16.189,0,0,0-3.12,1.83c-1.93,1.44-3.08,3.02-3.08,4.19v.02c.01,1.33,1.15,3,3.13,4.57a15.242,15.242,0,0,0,7.24,3.26,3.368,3.368,0,0,0,.44.03c.1.01.2.01.29.01h.08a6.5,6.5,0,0,0,1.1-.12,5.144,5.144,0,0,0,3.8-3.02,1.479,1.479,0,0,0,.12-.29,1.334,1.334,0,0,0,.1-.28A10.744,10.744,0,0,0,593.265,247.045Zm-1.13,4.45a2.4,2.4,0,0,1-.13.28,4.707,4.707,0,0,1-3.33,2.44,5.125,5.125,0,0,1-1.58.09c-.13-.01-.25-.02-.38-.04h-.01l-.41-.06a15.586,15.586,0,0,1-6.35-3.07,11.094,11.094,0,0,1-2.16-2.2,3.682,3.682,0,0,1-.78-1.98c-.01-1.01,1.1-2.47,2.88-3.81a16.406,16.406,0,0,1,2.48-1.52,2.408,2.408,0,0,1,.33-.15,2.923,2.923,0,0,1,.36-.17,10.147,10.147,0,0,1,3.97-.95,5.3,5.3,0,0,1,1.51.2,5.424,5.424,0,0,1,1.31.59,1.376,1.376,0,0,1,.25.17,1.878,1.878,0,0,1,.24.18c1.99,1.57,2.37,4.29,2.43,5.58a9.971,9.971,0,0,1-.52,4.16A2.028,2.028,0,0,1,592.135,251.495Z" fill="#989898"/>
    <path id="Path_120" data-name="Path 120" d="M599.595,247.545a16.892,16.892,0,0,0-1.5-3.62v-.01c-.07-.11-.13-.22-.2-.32v-.01l-.21-.3v-.01a5.519,5.519,0,0,0-3.46-2.45,7.259,7.259,0,0,0-3.57.29c-.09.03-.18.06-.28.1s-.19.06-.28.1a10.939,10.939,0,0,0-3.75,2.42,7.835,7.835,0,0,0-2.26,4.08,1.755,1.755,0,0,0-.04.31,1.149,1.149,0,0,0-.04.31.57.57,0,0,0-.01.13,8.108,8.108,0,0,0,2.71,5.7h.01a3.829,3.829,0,0,0,.29.28,4,4,0,0,0,.31.27,11.918,11.918,0,0,0,1.35,1.02c3.05,1.97,6.93,3.03,9.58,1.13C600.555,255.295,600.615,250.965,599.595,247.545Zm-6.5-6.58a5.6,5.6,0,0,1,1.09.1,5.365,5.365,0,0,1,3.45,2.58c-.01.06-.02.13-.03.19-.64,3.83-2.1,6.23-4.34,7.13a3.534,3.534,0,0,1-.46.15,10.744,10.744,0,0,0,.46-4.07,8.077,8.077,0,0,0-2.38-5.73A7.591,7.591,0,0,1,593.095,240.965Zm-6.58,2.94a10.693,10.693,0,0,1,3.82-2.41c1.99,1.57,2.37,4.29,2.43,5.58a9.971,9.971,0,0,1-.52,4.16,9.126,9.126,0,0,1-6.28-1.81,11.771,11.771,0,0,1-1.67-1.4A7.616,7.616,0,0,1,586.515,243.9Zm-2.27,4.76a12.209,12.209,0,0,0,1.44,1.17,10.5,10.5,0,0,0,5.65,1.98,5.021,5.021,0,0,0,.67-.04,4.707,4.707,0,0,1-3.33,2.44,5.125,5.125,0,0,1-1.58.09A8.011,8.011,0,0,1,584.245,248.665Zm13.85,8.09c-2.63,1.9-6.53.66-9.3-1.13-.4-.26-.76-.52-1.11-.8a6.5,6.5,0,0,0,1.1-.12,5.144,5.144,0,0,0,3.8-3.02,5.026,5.026,0,0,0,.86-.26c2.34-.93,3.88-3.33,4.58-7.12a17.106,17.106,0,0,1,1.33,3.31C600.335,250.885,600.355,255.135,598.095,256.755Z" fill="#989898"/>
    <path id="Path_121" data-name="Path 121" d="M599.835,247.475a16.1,16.1,0,0,0-1.68-3.93,2.206,2.206,0,0,0-.21-.32,1.609,1.609,0,0,0-.21-.3c-.06-.09-.13-.18-.2-.27a5.539,5.539,0,0,0-3.26-2.08,7.685,7.685,0,0,0-3.86.36c-.09.03-.19.06-.28.1s-.19.07-.29.11a11.174,11.174,0,0,0-3.68,2.41,8,8,0,0,0-2.28,4.04,1.528,1.528,0,0,0-.07.29,1.84,1.84,0,0,0-.03.33,1.975,1.975,0,0,0-.04.34,8.214,8.214,0,0,0,2.55,5.65,3.967,3.967,0,0,0,.29.29c.09.1.19.19.29.29a13.74,13.74,0,0,0,1.65,1.26,12.476,12.476,0,0,0,6.41,2.16,5.751,5.751,0,0,0,3.45-1.04C600.845,255.4,600.855,250.9,599.835,247.475Zm-11.04,8.15c-.4-.26-.76-.52-1.11-.8a3.328,3.328,0,0,1-.28-.25l-.01-.01c-.1-.08-.2-.17-.3-.26a8.011,8.011,0,0,1-2.85-5.64v-.09a1.783,1.783,0,0,1,.02-.23,3.16,3.16,0,0,1,.03-.32,7.616,7.616,0,0,1,2.22-4.12,10.693,10.693,0,0,1,3.82-2.41c.09-.04.18-.07.27-.1s.19-.06.28-.08a7.591,7.591,0,0,1,2.21-.35,5.6,5.6,0,0,1,1.09.1,5.365,5.365,0,0,1,3.45,2.58c.07.1.13.2.2.31s.13.23.19.35a17.106,17.106,0,0,1,1.33,3.31c.98,3.27,1,7.52-1.26,9.14C595.465,258.655,591.565,257.415,588.795,255.625Z" fill="#989898"/>
    <path id="Path_122" data-name="Path 122" d="M595.965,235.735c-2.13-1.62-6.39-.71-9.52,1.51a11.775,11.775,0,0,0-3.38,3.51c-.06.12-.13.24-.19.35v.01a4.015,4.015,0,0,0-.18.36,6.712,6.712,0,0,0-.62,2.41,5.643,5.643,0,0,0,1.74,4c.07.08.15.16.23.24a2.284,2.284,0,0,0,.22.22,12.53,12.53,0,0,0,1.56,1.28,9.41,9.41,0,0,0,6.31,1.87,4.663,4.663,0,0,0,.57-.1,4.468,4.468,0,0,0,.65-.2c2.21-.88,3.79-3.21,4.48-7.24,0-.02.01-.05.01-.07.02-.1.03-.19.05-.29v-.01c.02-.12.04-.24.05-.36C598.415,240.025,598.225,237.465,595.965,235.735Zm-13.64,8.16a6.523,6.523,0,0,1,.73-2.59,10.147,10.147,0,0,1,3.97-.95,5.3,5.3,0,0,1,1.51.2,5.424,5.424,0,0,1,1.31.59,11.174,11.174,0,0,0-3.68,2.41,8,8,0,0,0-2.28,4.04A5.349,5.349,0,0,1,582.325,243.9Zm3.64,5.53a11.771,11.771,0,0,1-1.67-1.4,7.616,7.616,0,0,1,2.22-4.12,10.693,10.693,0,0,1,3.82-2.41c1.99,1.57,2.37,4.29,2.43,5.58a9.971,9.971,0,0,1-.52,4.16A9.126,9.126,0,0,1,585.965,249.425Zm11.64-5.59c-.64,3.83-2.1,6.23-4.34,7.13a3.534,3.534,0,0,1-.46.15,10.744,10.744,0,0,0,.46-4.07,8.077,8.077,0,0,0-2.38-5.73,7.591,7.591,0,0,1,2.21-.35,5.6,5.6,0,0,1,1.09.1,5.365,5.365,0,0,1,3.45,2.58C597.625,243.705,597.615,243.775,597.6,243.835Zm-.07-1.18a5.539,5.539,0,0,0-3.26-2.08,7.685,7.685,0,0,0-3.86.36,5.659,5.659,0,0,0-1.74-.86,8.39,8.39,0,0,0-5.22.53,11.844,11.844,0,0,1,3.13-3.16c3.26-2.31,7.31-2.97,9.22-1.51,2.09,1.59,2.35,3.95,1.93,6.99C597.675,242.835,597.6,242.745,597.535,242.655Z" fill="#989898"/>
    <path id="Path_123" data-name="Path 123" d="M596.115,235.545c-2.33-1.78-6.82-.63-9.82,1.5a12.17,12.17,0,0,0-3.2,3.21q-.21.33-.39.66a3.835,3.835,0,0,0-.18.35c-.06.12-.11.24-.16.36a6.86,6.86,0,0,0-.54,2.24,6.019,6.019,0,0,0,1.96,4.35,2.282,2.282,0,0,0,.22.22,2.605,2.605,0,0,0,.24.23,12.209,12.209,0,0,0,1.44,1.17,10.5,10.5,0,0,0,5.65,1.98,5.021,5.021,0,0,0,.67-.04l.28-.03.3-.06a5.026,5.026,0,0,0,.86-.26c2.34-.93,3.88-3.33,4.58-7.12.03-.12.05-.25.07-.38v-.01c.02-.13.04-.25.06-.37C598.7,240.065,598.515,237.365,596.115,235.545Zm1.62,7.38c-.01.12-.03.23-.05.35v.01c-.01.12-.03.24-.05.36-.01.06-.02.13-.03.19-.64,3.83-2.1,6.23-4.34,7.13a3.534,3.534,0,0,1-.46.15,2.291,2.291,0,0,1-.28.07,2.326,2.326,0,0,1-.28.05,9.126,9.126,0,0,1-6.28-1.81,11.771,11.771,0,0,1-1.67-1.4l-.21-.21c-.06-.07-.13-.15-.2-.22a5.349,5.349,0,0,1-1.56-3.7,6.523,6.523,0,0,1,.73-2.59c.06-.11.12-.23.19-.35v-.01c.06-.11.13-.22.21-.34a11.844,11.844,0,0,1,3.13-3.16c3.26-2.31,7.31-2.97,9.22-1.51C597.9,237.525,598.155,239.885,597.735,242.925Z" fill="#989898"/>
  </g>
</svg>
