<svg id="Layer_1" data-name="Layer 1" xmlns="http://www.w3.org/2000/svg" viewBox="0 0 108.41 37.98"><defs><style>.cls-1{fill:#989898;}</style></defs><path class="cls-1" d="M34.24,16.25H23.93a.87.87,0,0,0-.82,1.16l2.47,6.42a.42.42,0,0,1-.42.57L22,24.21a.41.41,0,0,0-.37.18l-2.47,3.48a.43.43,0,0,1-.59.13l-3.65-2.49a.44.44,0,0,0-.47,0l-5,3.42a.42.42,0,0,1-.65-.46l1.41-5a.43.43,0,0,0-.25-.5L7.24,21.84a.42.42,0,0,1-.17-.66l2.36-2.92a.41.41,0,0,0,0-.5l-2-2.88a.42.42,0,0,1,.31-.66L10.86,14a.42.42,0,0,0,.39-.45L11,9.22a.42.42,0,0,1,.58-.42l3.83,1.59a.41.41,0,0,0,.48-.11l2.63-2.95a.42.42,0,0,1,.71.12l1.58,4.07a.84.84,0,0,0,1.28.35l6.2-4.61a.85.85,0,0,0-.61-1.52l-4.08.55A.44.44,0,0,1,23.16,6L21,.53A.85.85,0,0,0,19.62.27L15,5.34a.43.43,0,0,1-.48.1L8.34,2.85a.85.85,0,0,0-1.18.75L7,9.93a.42.42,0,0,1-.4.41L.94,10.7A.85.85,0,0,0,.3,12L4,17.52A.41.41,0,0,1,4,18L.21,22.38a.84.84,0,0,0,.3,1.33l4.34,1.87a.42.42,0,0,1,.24.5L2.31,36.92a.85.85,0,0,0,1.32.9l10.42-7.49a.42.42,0,0,1,.49,0l4.75,3.34a.85.85,0,0,0,1.19-.23l3-4.56a.42.42,0,0,1,.41-.19l7.1.87c.58.09,1.15-.4,1-.92L29,21a.44.44,0,0,1,.26-.56l5.38-2.55A.84.84,0,0,0,34.24,16.25Z"/><path class="cls-1" d="M108.12,16.26h-8a.29.29,0,0,0-.29.29v3.54a.29.29,0,0,0,.29.29h3.42a.29.29,0,0,1,.29.3c0,1.81-.41,5.09-3.72,5.09-2.7,0-3.77-3.26-3.77-7.09,0-4.55,1.12-7.34,3.62-7.34a2.68,2.68,0,0,1,2.59,2.11.3.3,0,0,0,.28.21H107a.29.29,0,0,0,.29-.31A6.94,6.94,0,0,0,100,7.11c-3.59,0-7,2.17-8,7.58v-7a.14.14,0,0,0-.14-.15h-4.4a.15.15,0,0,0-.15.15V20.14a.14.14,0,0,1-.27.06L81.27,7.66a.16.16,0,0,0-.13-.08h-3.9a.14.14,0,0,0-.14.15v7a11,11,0,0,0-21.34,1.58h-8a.14.14,0,0,0-.14.14v3.84a.14.14,0,0,0,.14.14h3.71a.15.15,0,0,1,.15.15c0,1.78-.32,5.24-3.72,5.24-2.71,0-3.78-3.26-3.78-7.09,0-4.55,1.12-7.34,3.63-7.34a2.71,2.71,0,0,1,2.61,2.21.16.16,0,0,0,.14.11H55a.14.14,0,0,0,.14-.15,6.92,6.92,0,0,0-7.26-6.4c-4.35,0-8.38,3.21-8.38,11.53C39.45,24.35,41.68,30,47.9,30c4.6,0,7.53-3.56,8.18-7.84a11,11,0,0,0,21,.21v7a.14.14,0,0,0,.14.14h4.4a.15.15,0,0,0,.15-.14V17.18a.15.15,0,0,1,.28-.06l5.77,12.35a.13.13,0,0,0,.13.08h3.89a.14.14,0,0,0,.14-.14v-7c.85,4.19,3.28,7.58,8.09,7.58,5.25,0,8.32-4.62,8.32-9.66V16.55A.29.29,0,0,0,108.12,16.26ZM66.63,25.41c-3.69,0-6.26-2.84-6.26-6.86s2.57-6.87,6.26-6.87,6.26,2.84,6.26,6.87S70.32,25.41,66.63,25.41Z"/></svg>