<svg xmlns="http://www.w3.org/2000/svg" width="96.781" height="21.071" viewBox="0 0 96.781 21.071">
  <g id="Group_30" data-name="Group 30" transform="translate(-347.728 -310.494)">
    <path id="Path_158" data-name="Path 158" d="M386.554,322.616l-1.678-4.549a.213.213,0,0,0-.4,0l-1.678,4.549a.213.213,0,0,0,.194.29h3.371a.207.207,0,0,0,.194-.29m.79,2.565h-5.323a.188.188,0,0,0-.193.145l-1.049,2.823a.227.227,0,0,1-.193.145h-2.307a.208.208,0,0,1-.194-.291l5.307-13.242a.209.209,0,0,1,.194-.129h2.21a.209.209,0,0,1,.193.129L391.3,328a.214.214,0,0,1-.194.291H388.8a.191.191,0,0,1-.194-.145l-1.048-2.823a.239.239,0,0,0-.21-.145m5.033-5.92h1.968a.213.213,0,0,1,.209.21v8.6a.213.213,0,0,1-.209.21h-1.968a.214.214,0,0,1-.21-.21v-8.6a.214.214,0,0,1,.21-.21m9.388,2.081a.213.213,0,0,1-.21.209h-.065a2.862,2.862,0,0,0-2.145.71,3.275,3.275,0,0,0-.677,2.323v3.484a.214.214,0,0,1-.21.21h-1.952a.214.214,0,0,1-.21-.21v-8.6a.214.214,0,0,1,.21-.21h1.936a.213.213,0,0,1,.209.21v1.693h.033a3.234,3.234,0,0,1,1.113-1.613,3.068,3.068,0,0,1,1.871-.564h.1v2.355Zm5.4-.065a.214.214,0,0,0-.21.21v3.581a1.086,1.086,0,0,0,.21.774.954.954,0,0,0,.742.242h.194a.213.213,0,0,1,.209.21V328.1a.213.213,0,0,1-.209.21h-.839a2.793,2.793,0,0,1-2.016-.678,2.649,2.649,0,0,1-.71-2v-4.145a.214.214,0,0,0-.21-.21H403.1a.213.213,0,0,1-.209-.21v-1.58a.213.213,0,0,1,.209-.21h1.226a.214.214,0,0,0,.21-.21V315.89a.214.214,0,0,1,.21-.21h1.967a.214.214,0,0,1,.21.21v3.177a.214.214,0,0,0,.21.21h1.435a.214.214,0,0,1,.21.21v1.58a.214.214,0,0,1-.21.21ZM416.2,325.6a2.836,2.836,0,0,0,0-3.678,2.346,2.346,0,0,0-1.774-.709,2.373,2.373,0,0,0-1.775.709,2.836,2.836,0,0,0,0,3.678,2.572,2.572,0,0,0,3.549,0m-4.549,2.4a3.86,3.86,0,0,1-1.564-1.645,6.023,6.023,0,0,1,0-5.162,3.962,3.962,0,0,1,1.564-1.645,4.4,4.4,0,0,1,2.194-.564,3.7,3.7,0,0,1,1.807.4,3.125,3.125,0,0,1,1.193,1.145h.032v-1.048a.214.214,0,0,1,.21-.21h1.952a.214.214,0,0,1,.21.21v8.6a.214.214,0,0,1-.21.21h-1.952a.214.214,0,0,1-.21-.21v-1.048h-.032a3.12,3.12,0,0,1-1.193,1.145,3.7,3.7,0,0,1-1.807.4,4.4,4.4,0,0,1-2.194-.581m15.743-2.4a2.833,2.833,0,0,0,0-3.678,2.345,2.345,0,0,0-1.774-.709,2.369,2.369,0,0,0-1.774.709,2.833,2.833,0,0,0,0,3.678,2.342,2.342,0,0,0,1.774.71,2.366,2.366,0,0,0,1.774-.71m-2.968,2.565a3.128,3.128,0,0,1-1.193-1.146H423.2v1.049a.214.214,0,0,1-.21.21h-1.968a.214.214,0,0,1-.21-.21V314.825a.214.214,0,0,1,.21-.21h1.968a.214.214,0,0,1,.21.21v5.71h.032a3.12,3.12,0,0,1,1.193-1.145,3.7,3.7,0,0,1,1.807-.4,4.49,4.49,0,0,1,2.194.564,3.866,3.866,0,0,1,1.564,1.645,6.023,6.023,0,0,1,0,5.162A3.956,3.956,0,0,1,428.428,328a4.4,4.4,0,0,1-2.194.565,3.7,3.7,0,0,1-1.807-.4m9.469.113h-1.968a.214.214,0,0,1-.21-.21V314.825a.214.214,0,0,1,.21-.21H433.9a.214.214,0,0,1,.21.21v13.243a.214.214,0,0,1-.21.21m4.645-6.936a1.944,1.944,0,0,0-.661,1.113.209.209,0,0,0,.21.258h3.758a.213.213,0,0,0,.21-.242,1.872,1.872,0,0,0-.581-1.1,2.131,2.131,0,0,0-1.452-.484,2.49,2.49,0,0,0-1.484.452m4.823-1.113a5.066,5.066,0,0,1,1.145,3.564v.259a.213.213,0,0,1-.209.209h-6.275a.211.211,0,0,0-.21.258,2.193,2.193,0,0,0,.759,1.355,2.64,2.64,0,0,0,1.742.581,3.66,3.66,0,0,0,2.516-1.065.231.231,0,0,1,.323.033l.967,1.371a.2.2,0,0,1-.032.274,6.427,6.427,0,0,1-1.565,1.032,4.948,4.948,0,0,1-2.209.452,5.243,5.243,0,0,1-2.565-.6,4.234,4.234,0,0,1-1.694-1.678,5.1,5.1,0,0,1-.613-2.516,5.27,5.27,0,0,1,.581-2.516,4.161,4.161,0,0,1,1.645-1.694,4.875,4.875,0,0,1,2.468-.613,4.319,4.319,0,0,1,3.226,1.291m-48.535-4.146a1.452,1.452,0,1,1-1.452-1.451,1.446,1.446,0,0,1,1.452,1.451" fill="#989898"/>
    <path id="Path_159" data-name="Path 159" d="M358.971,310.76l-9.388,3.888a.625.625,0,0,0,.017,1.161l9.42,3.742a3.556,3.556,0,0,0,2.58,0l9.42-3.742a.625.625,0,0,0,.017-1.161l-9.388-3.888a3.5,3.5,0,0,0-2.678,0" fill="#989898"/>
    <path id="Path_160" data-name="Path 160" d="M361.149,321.6v9.339a.623.623,0,0,0,.855.581l10.5-4.081a.629.629,0,0,0,.4-.581v-9.339a.623.623,0,0,0-.855-.581l-10.5,4.081a.612.612,0,0,0-.4.581" fill="#989898"/>
    <path id="Path_161" data-name="Path 161" d="M359.02,321.685a.587.587,0,0,1-.323.383l-3.113,1.5-.323.145-6.581,3.145a.668.668,0,0,1-.952-.564v-8.759a.6.6,0,0,1,.194-.419.563.563,0,0,1,.161-.113.653.653,0,0,1,.344-.087.712.712,0,0,1,.221.038l9.984,3.952A.666.666,0,0,1,359.02,321.685Z" fill="#989898"/>
    <path id="Path_162" data-name="Path 162" d="M359.02,321.685a.666.666,0,0,0-.388-.779l-9.984-3.952a.712.712,0,0,0-.221-.038.648.648,0,0,1,.237.038l9.985,3.952A.666.666,0,0,1,359.02,321.685Z" fill="#989898"/>
  </g>
</svg>
