<?xml version="1.0" encoding="utf-8"?>
<!-- Generator: Adobe Illustrator 25.4.1, SVG Export Plug-In . SVG Version: 6.00 Build 0)  -->
<svg version="1.1" id="Layer_1" xmlns="http://www.w3.org/2000/svg" xmlns:xlink="http://www.w3.org/1999/xlink" x="0px" y="0px"
	 viewBox="0 0 1226.4 338.8" style="enable-background:new 0 0 1226.4 338.8;" xml:space="preserve">
<style type="text/css">
	.st0{fill:#FFFFFF;}
	.st1{opacity:0.4;fill:#2DC3D0;}
	.st2{opacity:0.5;fill:#2DC3D0;}
	.st3{fill:#2DC3D0;}
	.st4{fill:#0538BF;}
	.st5{fill:#0363D1;}
</style>
<path class="st0" d="M1157.5,227.4v-57.9l46.4,57.9h22.5V123.5h-26.5v58.1l-46.4-58.1h-22.6v103.9H1157.5z M973.5,175.4
	c0-15.7,12.7-28.2,28.2-28.2c16,0,28.2,12.5,28.2,28.2s-12.3,28.2-28.2,28.2C986.2,203.7,973.5,191.1,973.5,175.4 M946.6,175.4
	c0,29.7,25.2,53.9,55.1,53.9c30.4,0,55.1-24.2,55.1-53.9c0-29.7-24.8-54-55.1-54C971.8,121.5,946.6,145.7,946.6,175.4 M814,123.5
	h-31.3l41,65.8v38.1h26.5v-38.1l41.2-65.8H860l-23,37.7L814,123.5z M693.4,188.1h-22.8l11.5-30.5L693.4,188.1z M668.9,123.5
	l-42.1,103.9h29l5.7-15.2h40.9l5.7,15.2h29l-42-103.9H668.9z M517.7,147.7c10.7,0,14.7,6,14.7,14c0,7.2-4,13.7-14.7,13.7h-22.8
	v-27.7H517.7z M468.4,123.5v103.9h26.5v-27.8h13.6l19.7,27.8H560l-22.5-31.4c14-6.4,20.5-20,20.5-34.5c0-20.6-12.3-38-38.9-38H468.4
	z M372.2,188.9c-4.7,8.8-13.9,14.8-24.9,14.8c-15.6,0-28.2-12.5-28.2-28.2s12.7-28.2,28.2-28.2c10.9,0,20.2,6,24.9,14.8l24.2-10.9
	c-9.2-17.5-27.7-29.6-49.2-29.6c-30,0-55.1,24.2-55.1,54c0,29.7,25.2,53.9,55.1,53.9c21.4,0,40.2-12.1,49.3-29.8L372.2,188.9z"/>
<path class="st1" d="M121.3,338.8C30,310-20.7,212.7,8.1,121.3C36.9,30,134.3-20.7,225.6,8.1L121.3,338.8z"/>
<path class="st2" d="M216.8,311c-76,24-157-18.2-180.9-94.2c-24-76,18.2-157,94.2-180.9L216.8,311z"/>
<path class="st3" d="M173.5,288.4c-63.5,0-114.9-51.5-114.9-114.9S110,58.5,173.5,58.5V288.4z"/>
<path class="st4" d="M173.5,134.3c-21.6,0-39.2,17.5-39.2,39.2s17.5,39.2,39.2,39.2V134.3z"/>
<path class="st5" d="M212.6,173.5c0-21.6-17.5-39.2-39.2-39.2v78.4C195.1,212.6,212.6,195.1,212.6,173.5"/>
</svg>
