<svg xmlns="http://www.w3.org/2000/svg" width="91.597" height="31.316" viewBox="0 0 91.597 31.316">
  <g id="mdb-atlas-competitive-hires-comp" transform="translate(-1011.737 -516.802)">
    <g id="D---180426-atlas-competitive-dynamo-2">
      <g id="Hero">
        <g id="Grid">
          <g id="logo-invision">
            <path id="Path_208" data-name="Path 208" d="M1039.5,516.8H1014.5a2.809,2.809,0,0,0-2.764,2.84v25.636a2.82,2.82,0,0,0,2.764,2.84H1039.5a2.809,2.809,0,0,0,2.763-2.84V519.642A2.819,2.819,0,0,0,1039.5,516.8Zm-17.223,5.832a1.817,1.817,0,1,1-1.817,1.817A1.8,1.8,0,0,1,1022.273,522.634Zm12.673,18.2a2.517,2.517,0,0,1-2.84-2.657,5.422,5.422,0,0,1,.2-1.359l.916-3.222a3.973,3.973,0,0,0,.122-.992,1.544,1.544,0,0,0-1.679-1.664c-1.283,0-2.153.946-2.611,2.7l-1.787,7.009h-3.13l.565-2.214a4.442,4.442,0,0,1-3.756,2.382,2.476,2.476,0,0,1-2.794-2.688,6.547,6.547,0,0,1,.183-1.359l1.42-5.664h-2.214l.687-2.413h5.283l-2.076,8.108a4.4,4.4,0,0,0-.2,1.237c0,.519.245.656.657.763a3.541,3.541,0,0,0,3.3-2.336l1.374-5.39h-2.229l.687-2.412h4.779l-.611,2.748c.84-1.542,2.52-2.977,4.169-2.977,1.756,0,3.206,1.221,3.206,3.573a6.62,6.62,0,0,1-.3,1.984l-.947,3.131a3.716,3.716,0,0,0-.122.839c0,.55.229.825.641.825.428,0,.962-.29,1.573-1.955l1.221.474C1037.923,539.8,1036.595,540.835,1034.946,540.835Z" fill="#989898"/>
            <path id="Fill-3" d="M1054.719,528.009v13.269h2.947V528.009Zm10.779,5.42c-1.511-.488-2.9-.916-2.9-1.862v-.046c0-.779.657-1.328,1.817-1.328a5.737,5.737,0,0,1,1.833.366h.03a1.049,1.049,0,0,0,.183.076c.474.153,1.71.367,2.8-1.343a8.7,8.7,0,0,0-4.734-1.512c-2.565,0-4.58,1.527-4.58,4.046v.046c0,2.55,2.107,3.344,4.031,3.894,1.511.473,2.87.824,2.87,1.862v.046c0,.886-.733,1.435-1.985,1.435a6.4,6.4,0,0,1-2.687-.671,2.277,2.277,0,0,0-2.825,1.114,8.82,8.82,0,0,0,5.436,1.97c2.672,0,4.779-1.374,4.779-4.184v-.03C1069.5,534.911,1067.376,534.04,1065.5,533.429Zm-15.345-5.42-3.45,9.742-3.451-9.772h-3.176l2.183,5.527,3.1,7.848H1048l5.253-13.345Zm33.027-.29a6.925,6.925,0,1,0,6.855,6.917A6.834,6.834,0,0,0,1083.18,527.719Zm0,11.223a4.065,4.065,0,0,1-3.924-4.306,3.951,3.951,0,0,1,3.878-4.26,4.07,4.07,0,0,1,3.954,4.306C1087.058,537.018,1085.546,538.942,1083.18,538.942Zm15.574-11.223a4.663,4.663,0,0,0-4.031,2.336v-2.046h-2.947v13.269h2.947v-7.5c0-2.046,1.176-3.3,2.9-3.3,1.756,0,2.748,1.175,2.748,3.252v7.527h2.962v-8.413C1103.334,529.75,1101.655,527.719,1098.754,527.719Zm-27.316.29v13.269h2.947V528.009Z" fill="#989898"/>
          </g>
        </g>
      </g>
    </g>
  </g>
</svg>
