<svg xmlns="http://www.w3.org/2000/svg" width="113.259" height="22.93" viewBox="0 0 113.259 22.93">
  <g id="Group_52" data-name="Group 52" transform="translate(-841.227 -521.52)">
    <path id="Path_198" data-name="Path 198" d="M852.668,521.52h-6.66v.555h2.135v11.014c0,3.288-.939,4.227-2.988,4.227a1.392,1.392,0,0,1-1.537-1.238v-.256c0-1.2-.086-1.921-1.153-1.921s-1.238,1.11-1.238,1.451c0,1.537.683,2.69,3.714,2.69,3.629,0,5.55-1.2,5.55-5.251V522.075h2.22Z" fill="#989898"/>
    <path id="Path_199" data-name="Path 199" d="M853.522,535.437a1.313,1.313,0,0,0-1.323,1.324,1.162,1.162,0,0,0,.384.9,1.338,1.338,0,0,0,1.878,0,1.229,1.229,0,0,0,.384-.9,1.258,1.258,0,0,0-1.28-1.281h-.043" fill="#989898"/>
    <path id="Path_200" data-name="Path 200" d="M868.336,535.437a1.346,1.346,0,0,0-1.324,1.238h0v.043a1.2,1.2,0,0,0,.427.9,1.341,1.341,0,0,0,1.879,0,1.164,1.164,0,0,0,.384-.9,1.325,1.325,0,0,0-.384-.939,1.231,1.231,0,0,0-.9-.384" fill="#989898"/>
    <path id="Path_201" data-name="Path 201" d="M863.725,521.52h-6.574v.555h1.921v12.551a3.8,3.8,0,0,1-.171,1.537,1.351,1.351,0,0,1-.811.726,3.965,3.965,0,0,1-1.238.213v.513h6.958V537.1a4.507,4.507,0,0,1-1.323-.17,1.259,1.259,0,0,1-.811-.726,2.164,2.164,0,0,1-.171-1.025v-4.354h1.75c5.038,0,6.447-2.007,6.447-4.7s-.9-4.611-5.977-4.611m-.939,8.666h-1.324v-8.025h1.2c3.885,0,4.824,1.579,4.824,4.141s-1.537,3.97-4.611,3.97" fill="#989898"/>
    <path id="Path_202" data-name="Path 202" d="M890.492,536.121a2.414,2.414,0,0,1-.128-1.11V522.075h1.751v-.512h-4.142l-5.037,12.252a.092.092,0,0,1-.085.086c-.043,0-.086-.043-.128-.086,0,0-5.209-12.124-5.251-12.252h-4.611v.512h2.006v13.619a1.815,1.815,0,0,1-.256.811,1.27,1.27,0,0,1-.725.512,3.525,3.525,0,0,1-.94.085v.513h4.568V537.1a2.467,2.467,0,0,1-.811-.128,1.479,1.479,0,0,1-.811-.512,1.87,1.87,0,0,1-.3-.811l-.043-1.153V523.74h.257s5.934,13.7,5.934,13.875h.555l5.592-13.747h.128v11.057a5.264,5.264,0,0,1-.128,1.153,1.277,1.277,0,0,1-.683.726,3.659,3.659,0,0,1-1.153.213v.512h6.361v-.512a3.92,3.92,0,0,1-1.2-.213,1.5,1.5,0,0,1-.726-.812" fill="#989898"/>
    <path id="Path_203" data-name="Path 203" d="M899.073,525.832c-3.415,0-5.55,2.22-5.55,6.147,0,5.764,4.483,6.1,5.465,6.1,1.921,0,5.55-1.2,5.55-6.233-.043-3.927-2.348-6.019-5.465-6.019m-.043,11.527c-2.561,0-2.945-1.281-2.945-5.337,0-3.159.213-5.55,2.945-5.55,2.946,0,2.989,2.476,2.989,5.294,0,4.141-.726,5.593-2.989,5.593" fill="#989898"/>
    <path id="Path_204" data-name="Path 204" d="M913.417,526c-2.049,0-2.647,1.2-3.244,2.433H910s-.3-1.75-.384-2.3h-3.97v.6h2.134v7.983a3.511,3.511,0,0,1-.256,1.622c-.214.384-.726.6-1.494.6h-.342v.725h6.575v-.725h-.3c-.854,0-1.238-.171-1.452-.555a3.2,3.2,0,0,1-.256-1.665v-4.141c0-1.366,1.067-2.989,2.3-2.989,1.281,0,1.281,2.007,2.775,1.2.769-.47.6-2.775-1.921-2.775" fill="#989898"/>
    <path id="Path_205" data-name="Path 205" d="M939.672,536.419c-.726,0-.939-.384-.982-1.024v-6.318a3.1,3.1,0,0,0-.811-2.391,5.054,5.054,0,0,0-3.5-.939,6.06,6.06,0,0,0-3.628.9,2.165,2.165,0,0,0-1.025,1.836.973.973,0,0,0,.3.811,1.158,1.158,0,0,0,.726.256c.64,0,1.024-.341,1.152-1.2a2.243,2.243,0,0,1,.513-1.366,2.632,2.632,0,0,1,3.33.17,2.907,2.907,0,0,1,.469,1.665v2.007c-2.092.171-7.087.6-6.873,4.354a3.069,3.069,0,0,0,3.116,2.733,5.05,5.05,0,0,0,3.843-1.922,2.164,2.164,0,0,0,2.219,1.751c1.537,0,2.477-.769,2.562-2.6H940.7c-.086.853-.6,1.28-1.025,1.28m-3.458-1.238v.128a4.207,4.207,0,0,1-2.647,1.366,1.811,1.811,0,0,1-1.878-1.75h0v-.256c0-2.135,2.946-3.2,4.568-3.2Z" fill="#989898"/>
    <path id="Path_206" data-name="Path 206" d="M953.162,536.334a3.391,3.391,0,0,1-.426-1.708v-5.208a3.71,3.71,0,0,0-.385-1.921,2.989,2.989,0,0,0-1.152-1.153,4.18,4.18,0,0,0-1.751-.384,4.083,4.083,0,0,0-3.756,2.22h-.257l-.427-2.092h-3.543v.6h1.793v7.94a7.42,7.42,0,0,1-.128,1.366.98.98,0,0,1-.683.726,2.506,2.506,0,0,1-.982.171v.726h5.678v-.726a1.484,1.484,0,0,1-1.153-.47,2.7,2.7,0,0,1-.3-1.622v-3.031a7.217,7.217,0,0,1,.426-3.287,2.564,2.564,0,0,1,2.306-1.281,1.584,1.584,0,0,1,1.579.811,7.227,7.227,0,0,1,.385,2.69v3.757a7.884,7.884,0,0,1,0,1.408,1.053,1.053,0,0,1-.513.811,1.79,1.79,0,0,1-.9.257v.725h5.507v-.725a1.692,1.692,0,0,1-1.324-.6" fill="#989898"/>
    <path id="Path_207" data-name="Path 207" d="M927.42,525.362a1.131,1.131,0,0,0-.683.9c-.086.47-.256.726-.513.811a1.32,1.32,0,0,1-.811-.043,5.174,5.174,0,0,0-3.714-1.238,4.3,4.3,0,0,0-4.61,3.928v.512c0,2.476.939,3.586,2.988,4.056a.086.086,0,1,1,0,.171c-1.75.3-3.287.811-3.287,2.518a1.885,1.885,0,0,0,1.281,1.793,9.355,9.355,0,0,0,3.415.513c.9,0,1.836.042,2.732.128a3.281,3.281,0,0,1,1.494.512,1.579,1.579,0,0,1,.555,1.323,2.006,2.006,0,0,1-1.238,1.836,6.588,6.588,0,0,1-3.116.64,4.8,4.8,0,0,1-2.861-.64,1.527,1.527,0,0,1-.6-1.622.938.938,0,0,0-.6-1.195h-.128a1.075,1.075,0,0,0-.982.426,1.8,1.8,0,0,0-.256,1.068,2.323,2.323,0,0,0,1.921,2.22,9.963,9.963,0,0,0,3.159.469,8.206,8.206,0,0,0,3.629-.683,3.769,3.769,0,0,0,2.3-3.415,3.327,3.327,0,0,0-.555-2.007c-1.152-1.579-2.775-1.366-6.446-1.536-1.75,0-2.092-.3-2.092-.812,0-.811.64-1.11,3.159-1.494s4.867-1.323,4.867-4.354a4.88,4.88,0,0,0-.47-2.177,2.793,2.793,0,0,0,1.452,0,1.769,1.769,0,0,0,1.024-.812,1.364,1.364,0,0,0,.214-1.067.936.936,0,0,0-1.238-.726m-5.678,8.411c-1.494,0-2.391-.555-2.391-3.587,0-2.134.726-3.714,2.391-3.714,1.878,0,2.391,1.452,2.391,3.672-.043,3.159-1.025,3.629-2.391,3.629" fill="#989898"/>
  </g>
</svg>
