<?xml version="1.0" encoding="utf-8"?>
<!-- Generator: Adobe Illustrator 25.4.1, SVG Export Plug-In . SVG Version: 6.00 Build 0)  -->
<svg version="1.1" id="Layer_1" xmlns="http://www.w3.org/2000/svg" xmlns:xlink="http://www.w3.org/1999/xlink" x="0px" y="0px"
	 viewBox="0 0 1425.9 356.5" style="enable-background:new 0 0 1425.9 356.5;" xml:space="preserve">
<path d="M411.6,194.3c-5.4,10.2-16,17.1-28.8,17.1c-18,0-32.7-14.5-32.7-32.6c0-18.2,14.6-32.7,32.7-32.7c12.6,0,23.4,6.9,28.8,17.1
	l28-12.6c-10.6-20.2-32-34.2-56.8-34.2c-34.7,0-63.8,28-63.8,62.4c0,34.3,29.1,62.4,63.8,62.4c24.8,0,46.5-14,57-34.5L411.6,194.3z
	 M527.7,118.6v120.1h30.6v-32.2H574l22.8,32.2h36.8l-26-36.4c16.2-7.4,23.7-23.1,23.7-39.9c0-23.9-14.2-43.9-45-43.9H527.7z
	 M584.7,146.7c12.3,0,16.9,6.9,16.9,16.2c0,8.3-4.6,15.9-16.9,15.9h-26.3v-32H584.7z M764.3,118.6l-48.7,120.1h33.6l6.6-17.6h47.3
	l6.6,17.6h33.6l-48.5-120.1H764.3z M792.6,193.3h-26.3l13.2-35.3L792.6,193.3z M938.4,118.6h-36.2l47.4,76.1v44.1h30.7v-44.1
	l47.6-76.1h-36.4l-26.6,43.6L938.4,118.6z M1097.6,178.7c0,34.3,29.1,62.4,63.8,62.4c35.1,0,63.8-28,63.8-62.4
	c0-34.3-28.6-62.4-63.8-62.4C1126.7,116.3,1097.6,144.4,1097.6,178.7 M1128.7,178.7c0-18.2,14.6-32.7,32.7-32.7
	c18.5,0,32.6,14.5,32.6,32.7c0,18.2-14.2,32.6-32.6,32.6C1143.3,211.4,1128.7,196.9,1128.7,178.7 M1346.3,238.8v-67l53.6,67h26
	V118.6h-30.7v67.2l-53.6-67.2h-26.2v120.1H1346.3z"/>
<g>
	<path d="M191.4,122.5l25.7-50.7l11.1-22.1v0l18.2-36.1L191.4,122.5z M149.5,128.7c4.8-2.8,10-4.9,15.5-6.2V65.7
		c-3.2,0.4-6.3,0.9-9.5,1.5c-8.8,1.8-17.2,4.5-25.1,8.2c-38.7,18-65.5,57.3-65.5,102.8c0,39.5,20.2,74.3,50.9,94.6
		c7.3,4.8,15.2,8.8,23.5,11.8c8.2,3,16.8,5.1,25.7,6.1V234c-0.1,0-0.1,0-0.2,0c-8.8-2.1-16.8-6.2-23.5-11.8
		c-12.5-10.5-20.4-26.3-20.4-43.8C121,157.1,132.5,138.6,149.5,128.7z M209.9,170.8c-1.2-5.3-3.7-10-7.2-13.9
		c-3.3-3.8-7.5-6.8-12.3-8.8c-2.1-0.8-4.2-1.4-6.5-1.8c-1-0.2-2-0.3-3-0.4c-0.9,0-1.8-0.1-2.7-0.1c-4.3,0-8.4,0.8-12.2,2.3
		c-2.9,1.2-5.5,2.7-7.9,4.6c-7.6,6-12.4,15.2-12.4,25.6c0,8.2,3,15.7,8,21.5c3.4,3.8,7.5,6.8,12.3,8.7c3,1.2,6.2,2,9.5,2.3
		c0.9,0,1.8,0.1,2.7,0.1c0.2,0,0.5,0,0.7,0c2.3,0,4.6-0.3,6.8-0.8c1.7-0.4,3.2-0.9,4.7-1.5c4.9-2,9.2-5.1,12.5-9.1
		c4.9-5.7,7.8-13,7.8-21.1C210.7,175.7,210.5,173.2,209.9,170.8z"/>
	<path d="M191.4,122.9l0-82c-2-0.2-4.1-0.4-6.1-0.4c-2.3-0.1-4.7-0.2-7-0.2c-2.2,0-4.4,0-6.6,0.2c-0.2,0-0.3,0-0.5,0
		c-2,0.1-4.1,0.2-6.1,0.4c-0.3,0-0.6,0.1-0.9,0.1c-2.3,0.2-4.6,0.5-6.9,0.9c-2.3,0.4-4.6,0.7-6.8,1.2c-1.1,0.2-2.2,0.5-3.4,0.7
		c-2.2,0.5-4.4,1.1-6.6,1.7c-0.8,0.2-1.7,0.5-2.5,0.7c-2.8,0.8-5.5,1.8-8.2,2.8c-1.8,0.7-3.5,1.4-5.3,2.1c-2.2,0.9-4.4,1.9-6.6,3
		c-0.8,0.4-1.7,0.8-2.5,1.3c-2,1-3.9,2.1-5.8,3.2c-0.9,0.5-1.8,1-2.7,1.6c-4.4,2.7-8.7,5.6-12.8,8.8c-0.6,0.4-1.2,0.9-1.7,1.3
		c-8.1,6.5-15.5,13.9-22,22c-0.6,0.8-1.3,1.6-1.9,2.5c-0.7,1-1.4,1.8-2.1,2.8c-0.5,0.7-1,1.5-1.6,2.3c-0.6,0.8-1.2,1.7-1.8,2.6
		c-0.6,0.9-1.1,1.8-1.7,2.6c-1.1,1.8-2.2,3.6-3.2,5.4c-0.5,0.9-1,1.8-1.5,2.7c-0.5,0.9-1,1.9-1.5,2.8c-1.4,2.8-2.8,5.7-4,8.6
		c-0.4,1-0.8,1.9-1.2,2.9c-1.2,3-2.2,5.9-3.2,9c-0.3,1-0.6,2-0.9,3c-0.3,1-0.6,2.1-0.9,3.1c-0.3,1-0.5,2.1-0.8,3.1
		c-0.5,2.1-1,4.2-1.4,6.3c-0.4,2.1-0.8,4.3-1.1,6.4c-0.1,1.1-0.3,2.2-0.4,3.3c-0.3,2-0.5,4-0.6,6c0,0.2,0,0.4,0,0.6
		c-0.2,3.3-0.3,6.6-0.3,10c0,30.7,10,59,27,81.9c1.7,2.3,3.5,4.5,5.3,6.7c0.9,1.1,1.9,2.1,2.8,3.2c2.8,3.2,5.8,6.2,9,9.1
		c6.3,5.8,13.1,11,20.3,15.6l0,0l-18.2,36.2c-1.6-1-3.2-2-4.8-3c-1.6-1-3.2-2.1-4.7-3.1c-1.5-1.1-3.1-2.2-4.6-3.3
		c-3-2.2-6-4.5-8.9-7c-1.4-1.2-2.8-2.4-4.2-3.7c-4.2-3.8-8.2-7.7-12-11.9c-3.8-4.2-7.4-8.5-10.9-13c-1.1-1.5-2.2-3-3.4-4.5
		c-2.2-3.1-4.3-6.2-6.3-9.4c-1-1.6-2-3.2-2.9-4.9c-0.1-0.1-0.1-0.2-0.2-0.3c-0.9-1.5-1.8-3.1-2.6-4.7c-0.9-1.6-1.8-3.3-2.6-5
		c-0.8-1.7-1.7-3.4-2.5-5.1c-2.4-5.2-4.5-10.5-6.4-16c-0.6-1.8-1.2-3.6-1.8-5.5c-2.2-7.3-4-14.8-5.3-22.4c0-0.2,0-0.4-0.1-0.6
		c-0.3-1.8-0.6-3.6-0.8-5.5c-0.5-3.9-0.9-7.9-1.2-11.8v-0.1c-0.1-2-0.2-3.9-0.3-5.9c-0.1-2-0.1-4-0.1-6.1c0-19.5,3.1-38.2,8.9-55.8
		c0.2-0.8,0.5-1.6,0.8-2.4c0.8-2.4,1.7-4.8,2.6-7.1c0,0,0,0,0,0c1-2.7,2.2-5.3,3.4-8c0.6-1.3,1.2-2.7,1.9-4c1.3-2.6,2.6-5.2,3.9-7.7
		c1-1.8,1.9-3.5,2.9-5.1c4.1-7,8.7-13.6,13.6-19.9c0.9-1.1,1.8-2.2,2.7-3.4c2.7-3.3,5.6-6.5,8.5-9.6c2-2.1,4-4.1,6-6
		c3.1-3,6.3-5.8,9.6-8.5c1.1-0.9,2.2-1.8,3.4-2.7c6.3-5,13-9.5,19.9-13.6c1.7-1,3.4-2,5.1-2.9c2.5-1.4,5.1-2.7,7.7-3.9
		c1.3-0.7,2.6-1.3,4-1.9c2.6-1.2,5.3-2.3,8-3.4c0,0,0,0,0,0c2.3-0.9,4.7-1.8,7.1-2.6c0.8-0.3,1.6-0.6,2.4-0.8
		c17.5-5.8,36.3-9,55.8-9c4.6,0,9.2,0.2,13.7,0.6c1.5,0.1,3,0.2,4.5,0.4c6,0.6,11.9,1.5,17.7,2.7c1.4,0.3,2.9,0.6,4.3,0.9
		c1.4,0.4,2.9,0.7,4.3,1.1c1.4,0.4,2.8,0.8,4.3,1.2c3.1,0.8,6.1,1.8,9.1,2.9c1.1,0.4,2.2,0.8,3.3,1.2c1.4,0.5,2.7,1,4.1,1.5
		c1,0.4,1.9,0.8,2.9,1.2L191.4,122.9z"/>
	<path d="M228.6,349.3c-3,0.9-6.1,1.7-9.2,2.4c-0.3,0.1-0.6,0.1-0.9,0.2c-1.8,0.4-3.5,0.8-5.3,1.1c-2.6,0.5-5.2,1-7.8,1.4
		c-2.2,0.4-4.4,0.6-6.6,0.9c-0.1,0-0.2,0-0.3,0c-2.2,0.2-4.3,0.4-6.5,0.6c-0.2,0-0.3,0-0.5,0c-0.1,0-0.2,0-0.4,0
		c-1.9,0.1-3.8,0.2-5.6,0.3c-0.3,0-0.7,0.1-1.1,0c-2,0.1-4,0.1-6,0.1h-0.1c-2.1,0-4.2,0-6.2-0.1c-0.2,0-0.5,0-0.7,0
		c-2.1,0-4.1-0.2-6.1-0.3h0c-1.2-0.1-2.4-0.2-3.6-0.3c-1-0.1-2.1-0.2-3.1-0.3c-2.4-0.2-4.8-0.6-7.2-0.9c-1.5-0.2-2.9-0.5-4.4-0.7
		c-3.4-0.6-6.7-1.3-10-2.1c-2.3-0.6-4.5-1.2-6.8-1.8c-2.5-0.7-4.9-1.4-7.3-2.2c-1.9-0.6-3.8-1.3-5.6-1.9c-0.3-0.1-0.7-0.2-1-0.4
		c-1.9-0.7-3.8-1.4-5.6-2.2c-0.1,0-0.2-0.1-0.4-0.1l18.2-36.1c1.5,0.6,2.9,1.2,4.4,1.6c2.9,1,5.9,2,9,2.8c1.5,0.5,3,0.8,4.6,1.2
		c3.1,0.8,6.2,1.4,9.4,1.9c1.6,0.3,3.2,0.5,4.8,0.7c1.6,0.2,3.2,0.4,4.8,0.6c0.8,0.1,1.7,0.1,2.5,0.2c1.2,0.1,2.3,0.2,3.5,0.2
		c2.3,0.1,4.7,0.2,7.1,0.2s4.7-0.1,7-0.2c1.2-0.1,2.3-0.1,3.5-0.2c0.9,0,1.7-0.1,2.6-0.2V234L228.6,349.3z"/>
</g>
</svg>
