<?xml version="1.0" encoding="utf-8"?>
<!-- Generator: Adobe Illustrator 26.0.3, SVG Export Plug-In . SVG Version: 6.00 Build 0)  -->
<svg version="1.1" id="Layer_1" xmlns="http://www.w3.org/2000/svg" xmlns:xlink="http://www.w3.org/1999/xlink" x="0px" y="0px"
	 viewBox="0 0 65.2 70.8" style="enable-background:new 0 0 65.2 70.8;" xml:space="preserve">
<style type="text/css">
	.st0{fill:#DFC0F2;}
</style>
<path class="st0" d="M45.8,22c0,3.9-1.2,7.6-3.4,10.8c-3.3,4.7-5.7,10-6.9,15.7c-0.1,0.5-0.6,0.9-1.1,0.9H18.8c-0.5,0-1-0.4-1.1-0.9
	c-1.1-5.7-3.4-11.2-6.6-16C5.3,23.8,7.6,12,16.3,6.2s20.5-3.4,26.3,5.3C44.7,14.6,45.8,18.3,45.8,22z"/>
<path d="M39.5,57.4H25.3c-0.5,0-0.9-0.3-1-0.8c-1-5.2-3.1-10.2-6.1-14.6c-2.3-3.4-3.3-7.5-2.8-11.5c0.9-8,7.2-14.3,15.2-15.2
	c4.9-0.6,9.8,1,13.5,4.3c6.5,5.8,7.7,15.6,2.7,22.7c-3,4.3-5.1,9.2-6.3,14.3C40.4,57.1,40,57.4,39.5,57.4z M26.1,55.3h12.6
	c1.2-5.1,3.4-9.9,6.4-14.2c4.4-6.3,3.4-14.9-2.4-20c-3.2-2.9-7.6-4.3-11.9-3.8c-8.4,1-14.4,8.5-13.4,16.9c0.3,2.4,1.1,4.7,2.5,6.7
	C22.9,45.3,25,50.2,26.1,55.3z"/>
<path d="M39.2,62H25.5c-0.6,0-1-0.4-1-1s0.4-1,1-1h13.6c0.6,0,1,0.4,1,1S39.7,62,39.2,62z"/>
<path d="M38.1,66.3H26.6c-0.6,0-1-0.4-1-1s0.4-1,1-1h11.5c0.6,0,1,0.4,1,1S38.7,66.3,38.1,66.3z"/>
<path d="M33.4,70.8h-2.1c-0.6,0-1-0.4-1-1s0.4-1,1-1h2.1c0.6,0,1,0.4,1,1S33.9,70.8,33.4,70.8z"/>
<path d="M32.6,9.2c-0.6,0-1-0.4-1-1V1c0-0.6,0.4-1,1-1s1,0.4,1,1v7.2C33.6,8.7,33.2,9.2,32.6,9.2C32.6,9.2,32.6,9.2,32.6,9.2z"/>
<path d="M24.1,12.8c-0.4,0-0.8-0.2-1-0.6l-1.6-3.8c-0.2-0.5,0-1.1,0.5-1.3s1.1,0,1.3,0.5l1.6,3.8c0.2,0.5,0,1.1-0.5,1.3c0,0,0,0,0,0
	C24.3,12.8,24.2,12.8,24.1,12.8z"/>
<path d="M12.1,24.8c-0.1,0-0.3,0-0.4-0.1l-3.8-1.6c-0.5-0.2-0.8-0.8-0.6-1.3c0.2-0.5,0.8-0.8,1.3-0.6l3.8,1.6
	c0.5,0.2,0.8,0.8,0.5,1.3c0,0,0,0,0,0C12.9,24.5,12.5,24.8,12.1,24.8z"/>
<path d="M8.2,43.3c-0.4,0-0.8-0.2-1-0.6c-0.2-0.5,0-1.1,0.5-1.3c0,0,0,0,0,0l3.8-1.6c0.5-0.2,1.1,0,1.3,0.5c0.2,0.5,0,1.1-0.6,1.3
	l-3.8,1.6C8.5,43.3,8.4,43.3,8.2,43.3z"/>
<path d="M57,43.3c-0.1,0-0.3,0-0.4-0.1l-3.8-1.6c-0.5-0.2-0.8-0.8-0.6-1.3c0.2-0.5,0.8-0.8,1.3-0.5l3.8,1.6c0.5,0.2,0.8,0.8,0.6,1.3
	c0,0,0,0,0,0C57.8,43.1,57.4,43.3,57,43.3z"/>
<path d="M53.1,24.8c-0.4,0-0.8-0.2-1-0.6c-0.2-0.5,0-1.1,0.5-1.3c0,0,0,0,0,0l3.8-1.6c0.5-0.2,1.1,0,1.3,0.6s0,1.1-0.6,1.3l0,0
	l-3.8,1.6C53.3,24.7,53.2,24.8,53.1,24.8z"/>
<path d="M41.1,12.8c-0.1,0-0.3,0-0.4-0.1c-0.5-0.2-0.8-0.8-0.6-1.3c0,0,0,0,0,0l1.6-3.8C41.9,7,42.5,6.8,43.1,7
	c0.5,0.2,0.8,0.8,0.5,1.3L42,12.1C41.9,12.5,41.5,12.8,41.1,12.8z"/>
<path d="M15.3,16.4c-0.3,0-0.6-0.1-0.7-0.3l-5-5c-0.4-0.4-0.4-1,0-1.5c0.4-0.4,1-0.4,1.5,0l5,5c0.4,0.4,0.4,1,0.1,1.4
	c0,0,0,0-0.1,0.1C15.8,16.2,15.6,16.3,15.3,16.4z"/>
<path d="M8.2,33.7H1c-0.6,0-1-0.4-1-1s0.4-1,1-1h7.2c0.6,0,1,0.4,1,1S8.7,33.7,8.2,33.7z"/>
<path d="M10.3,56c-0.3,0-0.5-0.1-0.7-0.3c-0.4-0.4-0.4-1-0.1-1.4c0,0,0,0,0.1-0.1l5-5c0.4-0.4,1.1-0.4,1.5,0c0.4,0.4,0.4,1.1,0,1.5
	l0,0l-5,5C10.8,55.9,10.5,56,10.3,56z"/>
<path d="M54.9,56c-0.3,0-0.5-0.1-0.7-0.3l-5-5c-0.4-0.4-0.4-1.1,0-1.5s1.1-0.4,1.5,0l0,0l5,5c0.4,0.4,0.4,1,0.1,1.4c0,0,0,0-0.1,0.1
	C55.5,55.9,55.2,56,54.9,56z"/>
<path d="M64.2,33.7H57c-0.6,0-1-0.4-1-1s0.4-1,1-1h7.2c0.6,0,1,0.4,1,1S64.8,33.7,64.2,33.7z"/>
<path d="M49.9,16.4c-0.3,0-0.5-0.1-0.7-0.3c-0.4-0.4-0.4-1-0.1-1.4c0,0,0,0,0.1-0.1l5-5c0.4-0.4,1-0.4,1.5,0c0.4,0.4,0.4,1,0,1.5
	l0,0l-5,5C50.5,16.2,50.2,16.4,49.9,16.4z"/>
</svg>
