<svg enable-background="new 0 0 63.5 73.1" viewBox="0 0 63.5 73.1" xmlns="http://www.w3.org/2000/svg"><path d="m63.5 4v56.9c0 2.2-1.7 3.9-3.8 4h-47.2c-2.1 0-3.9-1.8-3.8-4v-56.9c0-2.2 1.7-3.9 3.8-4h47.1c2.2.1 3.9 1.8 3.9 4z" fill="#dfc0f2"/><path d="m13.6 32.6c-.4 0-.8-.2-1-.5l-2.2-2.6c-.4-.5-.4-1.3.1-1.7s1.3-.4 1.7.1l1.5 1.8 4.1-4.5c.5-.5 1.2-.5 1.7 0 .4.4.5 1.1.1 1.6l-4.9 5.4c-.3.3-.7.4-1.1.4z"/><path d="m43.5 32.7h-21.7c-.7 0-1.3-.6-1.3-1.3s.6-1.3 1.3-1.3h21.7c.7 0 1.3.6 1.3 1.3s-.5 1.3-1.3 1.3z"/><path d="m13.6 46.7c-.4 0-.8-.2-1-.5l-2.2-2.6c-.3-.6-.2-1.3.4-1.6.4-.3 1-.2 1.4.1l1.5 1.8 4.1-4.5c.5-.5 1.2-.5 1.7 0 .4.4.5 1.1.1 1.6l-4.9 5.4c-.3.1-.7.3-1.1.3z"/><path d="m43.5 46.8h-21.7c-.7.1-1.3-.5-1.4-1.2s.5-1.3 1.2-1.4h.2 21.7c.7 0 1.3.6 1.3 1.3s-.5 1.3-1.3 1.3c.1 0 .1 0 0 0z"/><path d="m13.6 60.8c-.4 0-.8-.2-1-.5l-2.2-2.6c-.4-.5-.3-1.3.3-1.7.5-.3 1.1-.3 1.6.1l1.5 1.8 4.1-4.5c.5-.4 1.3-.3 1.7.2.3.4.4 1 .1 1.4l-4.9 5.4c-.4.2-.8.4-1.2.4z"/><path d="m43.5 60.8h-21.7c-.7.1-1.3-.5-1.4-1.2s.5-1.3 1.2-1.4h.2 21.7c.7 0 1.3.6 1.3 1.3s-.5 1.3-1.2 1.3c0 0 0 0-.1 0z"/><path d="m43 11.5c0-.3-.1-.5-.2-.8-.1-.2-.2-.4-.3-.5-.5-.5-1.1-.8-1.8-.8h-3.9v-3.3c0-1.9-1.5-3.4-3.4-3.4h-12.6c-1.4 0-2.6 1.2-2.6 2.6v4h-3.9c-.7 0-1.4.3-1.8.8-.1.2-.2.4-.3.6-.1.3-.2.5-.2.8v5.6c0 1.7 1.4 3 3.1 3h25c1.7 0 3.1-1.4 3.1-3.1v-5.4c-.2.1-.2 0-.2-.1zm-3 6.6h-25c-.6 0-1-.4-1-1v-5.5-.1h.1c.1-.1.1-.1.2-.1h4.2c1 0 1.7-.8 1.7-1.7v-4.4c0-.3.2-.6.5-.6h.1 12.6c.7 0 1.3.5 1.3 1.2v3.6c0 1 .8 1.7 1.7 1.7h4.3c.1 0 .2.1.2.1s0 .1 0 .1v5.6c.1.6-.3 1-.9 1.1z"/><path d="m41 11.6c0-.1 0-.1 0-.2s-.1-.1-.2-.1h-4.3c-1 0-1.7-.8-1.7-1.7v-3.6c0-.7-.6-1.3-1.3-1.3h-12.7c-.3 0-.6.2-.6.5v.1 4.3c0 1-.8 1.7-1.7 1.7h-4.2c-.1 0-.2 0-.2.1l-.1.1v5.5c0 .6.4 1 1 1h25c.6 0 1-.4 1-1zm-9.8-.9v.6c0 .1-.1.3-.1.4-.1.2-.2.5-.3.7-.1.1-.1.2-.2.4v.1c0 .1-.1.1-.2.2l-.4.3c0 .1-.1.1-.2.2s-.1.1-.2.1c-.1.1-.2.1-.3.2s-.1 0-.1.1-.1 0-.1 0c-.1.1-.3.1-.5.1-.1 0-.2.1-.3.1-.2 0-.5 0-.7 0h-.1c-.2 0-.4 0-.7 0-.1 0-.2 0-.4-.1-.1-.1-.2-.1-.3-.1h-.2s-.1 0-.1-.1c-.1 0-.2-.1-.2-.1-.1-.1-.2-.1-.2-.2-.1-.1-.2-.1-.3-.2s-.1-.2-.2-.2c-.1-.1-.1-.2-.2-.2m-.3-.3h-.1l-.1-.3c-.1-.2-.2-.4-.2-.6-.1-.1-.1-.3-.1-.4 0-.2 0-.5 0-.7 0-2 1.7-3.7 3.7-3.7h.1c1 0 2 .4 2.7 1.1.6.7 1 1.7.9 2.6z" fill="#fff"/><path d="m30.3 10.7v.5c0 .1 0 .2-.1.3-.1.2-.1.4-.2.6 0 .1-.1.2-.2.3s-.1.2-.2.2l-.1.1-.1.1c0 .1-.1.1-.1.1s-.1.1-.2.1m-.3.2c-.1 0-.1 0-.1 0-.1.1-.2.1-.3.1h-.2c-.2 0-.4.1-.6.1s-.4 0-.5-.1c-.1 0-.2 0-.3 0-.1 0-.1-.1-.2-.1s-.1 0-.2-.1 0 0-.1 0m-.3 0c0-.1-.1-.1-.2-.1l-.1-.1s-.1-.1-.2-.2-.1-.1-.1-.2c-.1-.1-.1-.1-.1-.2s-.1-.1-.1-.2c-.1-.2-.2-.4-.2-.6 0-.1 0-.2-.1-.3 0-.2-.1-.3 0-.5v-.1c0-1.6 1.3-2.9 2.9-2.9 1.6.2 2.7 1.5 2.7 3.1z" fill="none"/><path d="m30.1 8.1c-.7-.7-1.7-1.1-2.7-1.1-2.1 0-3.7 1.6-3.8 3.7v.7c0 .2.1.3.1.4.1.2.1.4.2.6l.1.3h.1v.1c.1.1.1.2.2.2 0 .1.1.1.2.2s.2.2.3.2c.1.1.2.1.2.2l.2.1c0 .1.1.1.1.1s.1.1.2.1c.1.1.2.1.3.1.1 0 .2 0 .4.1h.7.1.7c.1 0 .2-.1.3-.1l.5-.1h.1s.1-.1.1-.1c.1 0 .2-.1.3-.2.1 0 .1-.1.2-.1s.2-.1.2-.2l.2-.2c.1-.1.1-.2.2-.2v-.1c.1-.1.1-.2.2-.4s.2-.4.3-.7c.1-.1.1-.3.1-.4 0-.2 0-.4 0-.6.7-1 .4-1.9-.3-2.6zm-.7 3v.2c0 .1-.1.3-.1.4v.1s0 .1-.1.1c0 .1 0 .1-.1.1v.1s-.1 0-.1.1c0 0 0 0-.1 0v.1s0 0-.1.1-.1.1-.1.1 0 0 0 .1h-.1s-.1.1-.2.1 0 0-.1.1c-.2 0-.3 0-.5 0-.1 0-.3 0-.4 0s-.1 0-.2-.1h-.1s-.1-.1-.1-.1-.1 0-.1-.1m-.5-.2s-.1 0-.1-.1v-.1c0-.1-.1-.1-.1-.1h-.2v-.1c0-.1 0-.1 0-.1v-.1s0-.1-.1-.1c-.1-.1-.1-.2-.1-.3v-.2c0-.1 0-.2 0-.2v-.4c0-1.1.9-2 2-2h.1c.5 0 1.1.3 1.4.6.4.4.6.9.5 1.4v.6z"/><path d="m51 73.1h-47c-2.2 0-4-1.8-4-4v-54.2c0-2.2 1.8-4 4-4h8.7v2.4h-8.7c-.9 0-1.6.7-1.6 1.6v54.2c0 .9.7 1.6 1.6 1.6h47c.9 0 1.6-.7 1.6-1.6v-54.2c0-.9-.7-1.6-1.6-1.6h-9.2v-2.3h9.2c2.2 0 4 1.8 4 4v54.2c0 2.2-1.8 3.9-4 3.9z"/></svg>