<?xml version="1.0" standalone="no"?>
<!DOCTYPE svg PUBLIC "-//W3C//DTD SVG 20010904//EN"
 "http://www.w3.org/TR/2001/REC-SVG-20010904/DTD/svg10.dtd">
<svg version="1.0" xmlns="http://www.w3.org/2000/svg"
 width="500.000000pt" height="500.000000pt" viewBox="0 0 500.000000 500.000000"
 preserveAspectRatio="xMidYMid meet">

<g transform="translate(0.000000,500.000000) scale(0.100000,-0.100000)"
fill="#000000" stroke="none">
<path d="M2031 3593 l-130 -118 2 -462 2 -462 34 -35 c19 -20 44 -36 55 -36
16 0 13 5 -15 24 -68 46 -69 54 -69 530 l0 423 128 116 127 117 325 0 325 -1
122 -112 122 -112 -2 -453 -2 -453 -42 -40 c-44 -41 -35 -54 12 -17 54 42 55
50 55 527 l0 439 -132 121 -133 121 -327 0 -326 0 -131 -117z"/>
<path d="M2468 3503 l-58 -26 0 -98 c0 -88 2 -99 20 -109 19 -10 20 -21 20
-240 0 -127 3 -230 6 -230 7 0 77 52 86 65 4 5 8 150 8 322 l0 312 33 -11 c17
-6 35 -16 39 -22 4 -6 8 -62 8 -125 0 -100 2 -112 15 -101 12 10 15 36 15 119
0 58 -4 111 -8 118 -7 11 -105 54 -120 52 -4 0 -33 -12 -64 -26z"/>
<path d="M2247 3282 l-47 -16 2 -288 c2 -184 7 -288 13 -288 6 0 11 103 13
284 l2 284 30 11 30 10 0 -293 0 -294 41 -4 c36 -3 42 -1 60 28 17 29 19 51
19 278 l0 246 -52 27 c-29 15 -55 29 -58 29 -3 1 -26 -5 -53 -14z"/>
<path d="M2653 3204 l-53 -24 0 -145 c0 -95 4 -144 10 -140 6 4 10 59 10 133
0 70 4 132 8 137 4 6 23 18 44 27 47 22 48 19 48 -133 0 -120 0 -120 23 -113
72 22 67 12 67 137 l0 114 -43 17 c-52 20 -50 20 -114 -10z"/>
<path d="M1745 2399 c-27 -6 -57 -17 -65 -26 -13 -14 -13 -15 5 -10 158 44
426 44 494 0 13 -8 34 -16 46 -18 39 -4 129 -63 164 -108 12 -15 8 -15 -23 4
-51 30 -136 49 -223 49 -74 0 -169 -16 -178 -29 -2 -5 17 -4 43 1 26 6 92 10
147 10 87 1 109 -2 165 -26 36 -15 74 -28 86 -30 11 -2 35 -11 52 -21 90 -53
0 47 -104 116 -30 20 -92 49 -137 65 -75 25 -96 28 -252 30 -93 2 -192 -2
-220 -7z"/>
<path d="M2851 2394 c-36 -7 -96 -29 -135 -47 -67 -32 -197 -126 -205 -149 -4
-13 74 32 154 88 92 64 134 81 236 99 101 18 219 15 356 -9 56 -9 70 -9 62 0
-28 33 -342 46 -468 18z"/>
<path d="M2760 2284 c-54 -11 -119 -36 -132 -51 -9 -12 -2 -10 29 6 63 32 168
43 276 30 51 -6 95 -13 100 -16 4 -2 7 0 7 5 0 5 -10 13 -22 16 -29 9 -225 16
-258 10z"/>
</g>
</svg>
