<svg width="203" height="56" viewBox="0 0 203 56" fill="none" xmlns="http://www.w3.org/2000/svg">
<g clip-path="url(#clip0_109_2010)">
<path d="M191.281 37.5862V28.0159L198.948 37.5862H202.667V20.4126H198.287V30.0159L190.62 20.4126H186.885V37.5862H191.281ZM160.874 28.9911C160.874 26.3961 162.973 24.33 165.534 24.33C168.178 24.33 170.194 26.3961 170.194 28.9911C170.194 31.5862 168.162 33.6523 165.534 33.6523C162.973 33.6688 160.874 31.5862 160.874 28.9911ZM156.429 28.9911C156.429 33.9002 160.593 37.9167 165.551 37.9167C170.574 37.9167 174.656 33.9167 174.656 28.9911C174.656 24.082 170.558 20.082 165.551 20.082C160.593 20.082 156.429 24.082 156.429 28.9911ZM134.516 20.4126H129.344L136.119 31.2886V37.5862H140.498V31.2886L147.307 20.4126H142.118L138.317 26.644L134.516 20.4126ZM114.587 31.0903H110.819L112.719 26.049L114.587 31.0903ZM110.538 20.4126L103.581 37.5862H108.373L109.315 35.0738H116.074L117.016 37.5862H121.808L114.868 20.4126H110.538ZM85.5517 24.4126C87.3199 24.4126 87.9809 25.4043 87.9809 26.7267C87.9809 27.9167 87.3199 28.9911 85.5517 28.9911H81.7839V24.4126H85.5517ZM77.4047 20.4126V37.5862H81.7839V32.9911H84.0313L87.2868 37.5862H92.5419L88.8237 32.3961C91.1372 31.3382 92.2114 29.0903 92.2114 26.6936C92.2114 23.2886 90.1787 20.4126 85.783 20.4126H77.4047ZM61.5073 31.2225C60.7306 32.6771 59.2103 33.6688 57.3925 33.6688C54.8145 33.6688 52.7323 31.6027 52.7323 29.0077C52.7323 26.4126 54.8311 24.3465 57.3925 24.3465C59.1937 24.3465 60.7306 25.3382 61.5073 26.7928L65.5064 24.9911C63.9861 22.0986 60.9289 20.0986 57.376 20.0986C52.4184 20.0986 48.2705 24.0986 48.2705 29.0077C48.2705 33.9167 52.4349 37.9333 57.376 37.9333C60.9124 37.9333 64.0191 35.9333 65.523 33.0077L61.5073 31.2225Z" fill="black"/>
<path opacity="0.24" d="M20.0447 55.9994C4.95703 51.2391 -3.4213 35.1565 1.33799 20.049C6.09728 4.95812 22.1929 -3.42205 37.2806 1.33828L20.0447 55.9994Z" fill="#2DC3D0"/>
<path opacity="0.4" d="M35.8269 51.4047C23.2676 55.3716 9.88211 48.3964 5.93256 35.8344C1.96648 23.2724 8.94017 9.88401 21.4994 5.93359L35.8269 51.4047Z" fill="#2DC3D0"/>
<path d="M28.6715 47.668C18.1779 47.668 9.68386 39.1556 9.68386 28.6762C9.66734 18.1804 18.1779 9.66797 28.6715 9.66797V47.668Z" fill="#2DC3D0"/>
<path d="M28.6714 22.1992C25.1019 22.1992 22.1935 25.0918 22.1935 28.6786C22.1935 32.2488 25.0854 35.1579 28.6714 35.1579V22.1992Z" fill="#0538BF"/>
<path d="M35.1328 28.6786C35.1328 25.1083 32.2409 22.1992 28.6549 22.1992V35.1579C32.2409 35.1414 35.1328 32.2488 35.1328 28.6786Z" fill="#0363D1"/>
</g>
<defs>
<clipPath id="clip0_109_2010">
<rect width="202.667" height="56" fill="white"/>
</clipPath>
</defs>
</svg>
