<?xml version="1.0" encoding="utf-8"?>
<!-- Generator: Adobe Illustrator 26.0.3, SVG Export Plug-In . SVG Version: 6.00 Build 0)  -->
<svg version="1.1" id="Layer_1" xmlns="http://www.w3.org/2000/svg" xmlns:xlink="http://www.w3.org/1999/xlink" x="0px" y="0px"
	 viewBox="0 0 180.3 136.4" style="enable-background:new 0 0 180.3 136.4;" xml:space="preserve">
<style type="text/css">
	.st0{fill:#DFC0F2;}
</style>
<path d="M160.1,55c-0.9,0-1.8-0.5-2.2-1.3c-0.7-1.2-0.3-2.7,0.9-3.4c0,0,0,0,0,0l17.6-10.2c1.2-0.6,2.7-0.2,3.4,1.1
	c0.6,1.1,0.2,2.5-0.9,3.2l-17.6,10.2C161,54.9,160.5,55,160.1,55z"/>
<path d="M177.8,69.8h-17.5c-1.4,0-2.5-1.1-2.5-2.5s1.1-2.5,2.5-2.5h17.5c1.4,0,2.5,1.1,2.5,2.5c0,0,0,0,0,0
	C180.3,68.7,179.2,69.8,177.8,69.8z"/>
<path d="M177.8,94.8c-0.4,0-0.8-0.1-1.2-0.3L159,84.3c-1.2-0.6-1.7-2.1-1.1-3.4c0.6-1.2,2.1-1.7,3.4-1.1c0.1,0,0.1,0.1,0.2,0.1
	l17.6,10.2c1.2,0.7,1.6,2.2,0.9,3.4c0,0,0,0,0,0C179.5,94.3,178.7,94.7,177.8,94.8z"/>
<path class="st0" d="M111.6,2v97.6c0.1,1.1-0.8,2-1.9,2.1c-0.4,0-0.7-0.1-1-0.2L53.4,72.8c-0.3-0.1-0.6-0.2-0.9-0.2H19.9
	C8.9,72.6,0,62.2,0,50.9s8.9-21.7,19.9-21.7h32.6c0.3,0,0.6-0.1,0.9-0.2l55.3-28.7c0.9-0.5,2.1-0.2,2.6,0.7
	C111.5,1.3,111.6,1.6,111.6,2z"/>
<path d="M151.1,67.3c0-11.6-8.8-21.4-20.4-22.6l-0.2-31c0-1.1-0.6-2.1-1.6-2.7c-0.9-0.5-2.1-0.5-3,0L64,42.6l-0.1,0.1H34.8
	C21.2,42.6,10.1,53.6,10,67.2C9.9,80.8,20.9,91.9,34.5,92l11.4,36.9c1.3,4.5,5.5,7.6,10.2,7.5c1.1,0,2.2-0.2,3.2-0.5
	c5.6-1.7,8.8-7.7,7-13.3c0,0,0-0.1,0-0.1L56.8,92h6.9c0.1,0,0.1,0,0.1,0.1l62.4,31.7c0.5,0.2,1,0.4,1.5,0.4c0.6,0,1.1-0.1,1.6-0.4
	c1-0.6,1.5-1.6,1.5-2.7l-0.1-31.2C142.3,88.7,151.1,78.9,151.1,67.3z M61.7,124c0.9,3-0.7,6.2-3.7,7.1c-3,0.9-6.2-0.7-7.1-3.7l0,0
	L39.9,92h11.9L61.7,124z M61.9,87H34.8c-0.6,0-1.2,0-1.8-0.1c-10.8-1.1-18.7-10.8-17.6-21.6c1-10,9.4-17.7,19.5-17.7H62L61.9,87z
	 M66.9,87.9V46.7l0,0l58.6-30l0.4,101.2L66.9,87.9z M130.9,84.8v-35c9.7,1.4,16.4,10.3,15.1,19.9C144.9,77.6,138.7,83.7,130.9,84.8z
	"/>
</svg>
