<svg xmlns="http://www.w3.org/2000/svg" width="104.393" height="28.07" viewBox="0 0 104.393 28.07">
  <g id="Group_44" data-name="Group 44" transform="translate(-866.616 -298.28)">
    <g id="Group_42" data-name="Group 42">
      <path id="Path_178" data-name="Path 178" d="M914.353,315.634c-.729.168-1.106-.056-1.106-.539,0-.661.684-.926,1.661-.926.43,0,.835.037.835.037A2.168,2.168,0,0,1,914.353,315.634Zm.741-6.623a9.6,9.6,0,0,0-4.008.858v2.522a8.327,8.327,0,0,1,3.35-1.063c1.2,0,1.344.646,1.29,1.182a6.511,6.511,0,0,0-1.4-.092c-2.484,0-3.737,1.129-3.737,2.939a2.426,2.426,0,0,0,2.6,2.434,2.857,2.857,0,0,0,2.727-1.716c.162-.383.192-.641.337-.641.167,0,.111.185.1.566a6.189,6.189,0,0,0,.123,1.6h2.3v-4.131c0-2.579-.913-4.456-3.679-4.456" fill="#989898" fill-rule="evenodd"/>
      <path id="Path_179" data-name="Path 179" d="M930.209,313.4c0-.754.7-1.441,1.989-1.441a5.573,5.573,0,0,1,2.784.829v-2.92a4.56,4.56,0,0,0-3.082-.859,3.945,3.945,0,0,0-4.233,4.261c0,2.909,1.746,4.522,4.227,4.522a4.823,4.823,0,0,0,3.093-1.065v-2.773a5.338,5.338,0,0,1-2.775.911c-1.473,0-2-.678-2-1.464Zm-30.693-4.2a3.494,3.494,0,0,1-.047,1.45c-.1.417-.278.772-.06.772.15,0,.15-.125.346-.572a2.585,2.585,0,0,1,2.3-1.844,2.1,2.1,0,0,1,2.179,1.576c.159.579.02.84.214.84.138,0,.185-.3.355-.68a2.578,2.578,0,0,1,2.308-1.736c2.023,0,2.795,1.461,2.795,3.652V317.6H906.9v-4.552c0-.758-.122-1.5-.814-1.5-.641,0-.94,1.136-.94,1.87V317.6h-3.06V313.05c0-.971-.137-1.495-.819-1.495-.591,0-.936,1.045-.936,1.869V317.6h-3.048v-8.4h2.234Zm20.257.011a3.263,3.263,0,0,0,1.527.3,3.22,3.22,0,0,0,1.521-.3V317.6h-3.048Zm25.16,0a3.263,3.263,0,0,0,1.527.3,3.22,3.22,0,0,0,1.521-.3V317.6h-3.048Zm-18.078-2.553V317.6h-3.048V306.664Zm11.749,0a3.853,3.853,0,0,1,.127,1.25,9.871,9.871,0,0,1-.443,2.933c-.075.227-.209.577-.016.583.111,0,.177-.164.313-.454a2.928,2.928,0,0,1,2.571-1.962c2.43,0,2.787,1.99,2.787,4.145V317.6H940.9v-4.627c0-.948-.2-1.42-.834-1.42-.768,0-1.04,1.189-1.04,1.87V317.6h-3.047V306.664h2.63Zm12.64,2.542a3.5,3.5,0,0,1-.046,1.45c-.1.417-.279.772-.061.772.15,0,.15-.125.346-.572a2.586,2.586,0,0,1,2.3-1.844,2.065,2.065,0,0,1,2.179,1.576c.15.508.02.84.214.84.138,0,.185-.3.355-.68a2.578,2.578,0,0,1,2.308-1.736c2.023,0,2.8,1.461,2.8,3.652V317.6h-3.005v-4.552c0-.758-.122-1.5-.814-1.5-.641,0-.94,1.136-.94,1.87V317.6h-3.06V313.05c0-.971-.136-1.495-.819-1.495-.591,0-.936,1.045-.936,1.869V317.6h-3.047v-8.4h2.233Zm-29.956-2.627c-1.03,0-1.866.545-1.866,1.218s.836,1.217,1.866,1.217,1.865-.545,1.865-1.217S922.318,306.579,921.288,306.579Zm25.16,0c-1.03,0-1.866.545-1.866,1.218s.836,1.217,1.866,1.217,1.866-.545,1.866-1.217S947.479,306.579,946.448,306.579Z" fill="#989898" fill-rule="evenodd"/>
      <path id="Path_180" data-name="Path 180" d="M966.823,315.794c-.7,0-1.212-.886-1.212-2.121,0-1.2.528-2.12,1.188-2.12.848,0,1.21.777,1.21,2.12,0,1.4-.334,2.121-1.186,2.121Zm.837-6.785a2.848,2.848,0,0,0-2.6,1.844c-.206.442-.2.572-.346.572-.217,0-.037-.355.061-.772a3.472,3.472,0,0,0,.047-1.45h-2.232v10.711h3.047v-3.4a2.382,2.382,0,0,0,2.057,1.265c2.2,0,3.312-1.864,3.312-4.382,0-2.855-1.327-4.392-3.349-4.392" fill="#989898" fill-rule="evenodd"/>
    </g>
    <g id="Group_43" data-name="Group 43">
      <path id="Path_181" data-name="Path 181" d="M886.511,311.545a2.212,2.212,0,0,1,.581,0,1.982,1.982,0,0,0,.029-1.1c-.14-.668-.329-1.072-.719-1.009s-.4.547-.265,1.214a2.25,2.25,0,0,0,.374.9" fill="#989898" fill-rule="evenodd"/>
      <path id="Path_182" data-name="Path 182" d="M883.159,312.073c.279.123.451.2.518.133.044-.044.031-.129-.036-.238a1.647,1.647,0,0,0-.722-.581,1.968,1.968,0,0,0-1.915.23c-.187.137-.364.326-.339.442.008.037.036.065.1.074a12.163,12.163,0,0,1,1.313-.292,2.289,2.289,0,0,1,1.08.232" fill="#989898" fill-rule="evenodd"/>
      <path id="Path_183" data-name="Path 183" d="M882.6,312.394a1.313,1.313,0,0,0-.694.289.441.441,0,0,0-.177.277.083.083,0,0,0,.028.066.085.085,0,0,0,.06.023,1.108,1.108,0,0,0,.266-.074,2.328,2.328,0,0,1,1.171-.122c.183.021.27.032.31-.031a.1.1,0,0,0-.011-.116,1.057,1.057,0,0,0-.953-.312" fill="#989898" fill-rule="evenodd"/>
      <path id="Path_184" data-name="Path 184" d="M885.379,313.571a.448.448,0,0,0,.608-.107c.088-.18-.04-.424-.287-.546a.449.449,0,0,0-.608.107c-.088.18.04.424.287.546" fill="#989898" fill-rule="evenodd"/>
      <path id="Path_185" data-name="Path 185" d="M886.967,312.183c-.2,0-.367.217-.372.492s.155.5.355.5.367-.216.372-.492-.155-.5-.355-.5" fill="#989898" fill-rule="evenodd"/>
      <path id="Path_186" data-name="Path 186" d="M873.489,317.145c-.05-.063-.132-.044-.211-.025a.769.769,0,0,1-.188.026.4.4,0,0,1-.342-.173.636.636,0,0,1,.014-.589l.047-.108a1.739,1.739,0,0,0,.128-1.541,1.364,1.364,0,0,0-1.045-.76,1.346,1.346,0,0,0-1.151.415,1.654,1.654,0,0,0-.427,1.392c.031.086.08.11.116.115.076.01.187-.045.257-.233l.02-.061a1.847,1.847,0,0,1,.184-.434.791.791,0,0,1,.5-.347.805.805,0,0,1,.615.115.787.787,0,0,1,.3.948,2.212,2.212,0,0,0-.155.843.836.836,0,0,0,.748.863.638.638,0,0,0,.6-.3.127.127,0,0,0-.013-.146" fill="#989898" fill-rule="evenodd"/>
      <path id="Path_187" data-name="Path 187" d="M876.543,306.163a12.45,12.45,0,0,1,3.493-2.854.045.045,0,0,1,.061.062,3.353,3.353,0,0,0-.324.792.047.047,0,0,0,.072.049,6.8,6.8,0,0,1,3.067-1.082.048.048,0,0,1,.032.086,2.6,2.6,0,0,0-.482.484.047.047,0,0,0,.036.075,6,6,0,0,1,2.564.672c.048.027.014.119-.04.107a10.43,10.43,0,0,0-4.644.013,10.671,10.671,0,0,0-3.771,1.666.048.048,0,0,1-.064-.07Zm5.219,11.731h0Zm4.321.51a.085.085,0,0,0,.049-.084.08.08,0,0,0-.087-.07,10,10,0,0,1-4.348-.442c.23-.748.842-.478,1.766-.4a12.9,12.9,0,0,0,4.265-.461,9.763,9.763,0,0,0,3.189-1.586,6.453,6.453,0,0,1,.446,1.519.74.74,0,0,1,.468.085c.2.124.348.382.248,1.047a5.8,5.8,0,0,1-1.622,3.181,6.688,6.688,0,0,1-1.948,1.456,8.127,8.127,0,0,1-1.273.537c-3.348,1.094-6.776-.108-7.881-2.69a4.216,4.216,0,0,1-.221-.61,5.355,5.355,0,0,1,1.178-5.028h0a.456.456,0,0,0,.156-.3.536.536,0,0,0-.12-.284c-.438-.634-1.952-1.715-1.648-3.806a2.85,2.85,0,0,1,2.757-2.5l.31.018c.531.031.994.1,1.431.118a2.861,2.861,0,0,0,2.168-.724,1.675,1.675,0,0,1,.83-.469,1.018,1.018,0,0,1,.317-.031,1.043,1.043,0,0,1,.533.17c.625.416.713,1.422.746,2.158.018.421.069,1.437.087,1.729.039.668.215.762.57.879.2.065.385.114.658.191a3.718,3.718,0,0,1,1.625.77,1.016,1.016,0,0,1,.3.582c.1.711-.552,1.589-2.271,2.387a11.555,11.555,0,0,1-5.736.918l-.552-.063c-1.26-.169-1.979,1.459-1.222,2.575a4.012,4.012,0,0,0,3.143,1.187,8.284,8.284,0,0,0,6.258-2.423l.069-.1c.043-.065.008-.1-.045-.064-.712.487-3.872,2.42-7.252,1.838a4.576,4.576,0,0,1-.786-.213,1.409,1.409,0,0,1-1-1.043,6.588,6.588,0,0,0,4.445.046ZM871.1,311.921a3.633,3.633,0,0,0-2.3,1.465,6.267,6.267,0,0,1-.976-.94c-.816-1.551.891-4.564,2.083-6.266,2.948-4.206,7.564-7.389,9.7-6.812a8.394,8.394,0,0,1,1.5,1.432,30.09,30.09,0,0,0-4.117,2.838,18.687,18.687,0,0,0-5.894,8.283Zm1.594,7.113a2.284,2.284,0,0,1-.438.031,3.411,3.411,0,0,1-3.123-2.848,2.817,2.817,0,0,1,2.216-3.288,2.6,2.6,0,0,1,.64-.046,2.719,2.719,0,0,1,2.4,2.563c.254,1.647-.15,3.324-1.694,3.588Zm19.336-2.983c-.012-.043-.092-.334-.2-.685a5.537,5.537,0,0,0-.222-.6,2.163,2.163,0,0,0,.388-1.578,2,2,0,0,0-.58-1.128,4.727,4.727,0,0,0-2.05-1.015l-.522-.145c0-.022-.028-1.231-.05-1.75a6.008,6.008,0,0,0-.231-1.539,4.115,4.115,0,0,0-1.065-1.9,6.464,6.464,0,0,0,2.11-4.107c0-2.45-3.012-3.191-6.721-1.656l-.785.333s-1.421-1.393-1.442-1.412c-4.227-3.687-17.445,11.005-13.22,14.573l.924.783a4.534,4.534,0,0,0-.257,2.1,4.131,4.131,0,0,0,1.426,2.651,4.344,4.344,0,0,0,2.8,1.127,10.715,10.715,0,0,0,9.808,6.245c4.726.141,8.694-2.077,10.356-6.06a8.35,8.35,0,0,0,.57-2.652c0-1.117-.632-1.58-1.034-1.58" fill="#989898" fill-rule="evenodd"/>
    </g>
  </g>
</svg>
