<svg xmlns="http://www.w3.org/2000/svg" width="86" height="13" viewBox="0 0 86 13">
  <path id="Path_53" data-name="Path 53" d="M920.03,386.657a6.448,6.448,0,0,1-4.219-1.488l1.407-1.886a4.331,4.331,0,0,0,2.6.993c.973,0,1.19-.4,1.19-.7s-.325-.6-1.3-.992l-.866-.3a3.219,3.219,0,0,1-2.6-3.076c0-1.886,1.623-3.275,3.894-3.275a5.483,5.483,0,0,1,3.354.992l-1.406,1.985a3.936,3.936,0,0,0-1.948-.6c-.757,0-1.19.3-1.19.694,0,.5.433.7,1.3.993l.757.3c1.622.6,2.7,1.687,2.7,3.077.325,1.885-1.3,3.274-3.678,3.274M894.392,375.94c-3.245,0-5.949,2.382-5.949,5.359s2.6,5.358,5.949,5.358c3.246,0,5.95-2.381,5.95-5.358s-2.6-5.359-5.95-5.359m3.138,5.359a3.033,3.033,0,1,1-3.029-2.878,2.99,2.99,0,0,1,3.029,2.878m-12.116,5.16h-2.921v-6.45l-3.57,3.374-3.57-3.374v6.45h-2.92v-12.8l6.49,5.955,6.491-5.955Zm65.23-7.145h1.731a1.307,1.307,0,1,0,0-2.58h-1.731Zm7.789,7.145h-3.462L950.86,381.6h-.108v4.863h-2.921V374.253h4.219c3.246,0,4.76,1.985,4.76,3.672a3.69,3.69,0,0,1-2.7,3.473Zm-14.063,0h-7.14V376.138h7.14v2.382h-4.327v1.588H943.5v2.382h-3.461v1.587h4.327Zm-12.765,0h-2.921V378.52h-2.6v-2.382H934.2v2.382h-2.6Zm-18.39.2-7.031-5.259v5.16h-2.813V375.94L910.4,381.2v-5.061h2.812Z" transform="translate(-872.433 -373.657)" fill="#989898" fill-rule="evenodd"/>
</svg>
