<svg id="Layer_1" data-name="Layer 1" xmlns="http://www.w3.org/2000/svg" viewBox="0 0 82.66 78.96"><defs><style>.cls-1{fill:#c0edf1;}.cls-2{fill:#fff;}</style></defs><circle class="cls-1" cx="44.89" cy="41.2" r="37.77"/><path d="M33.25,31a18.21,18.21,0,0,0-5.65-.89,17.92,17.92,0,0,0-5.65.9,18.21,18.21,0,0,0-12.36,15,24.29,24.29,0,0,0,2.64,2.43V48.3A15.38,15.38,0,1,1,43,48.3v.16A22.49,22.49,0,0,0,45.61,46,18.21,18.21,0,0,0,33.25,31Z"/><path d="M27.6,12.58a10.1,10.1,0,1,0,10.09,10.1A10.11,10.11,0,0,0,27.6,12.58ZM27.6,30a7.33,7.33,0,1,1,7.32-7.33A7.34,7.34,0,0,1,27.6,30Z"/><path class="cls-2" d="M34.92,22.68a7.33,7.33,0,1,1-7.32-7.33A7.34,7.34,0,0,1,34.92,22.68Z"/><path d="M27.78,55.55A27.78,27.78,0,1,1,55.55,27.78,27.81,27.81,0,0,1,27.78,55.55Zm0-52.84A25.07,25.07,0,1,0,52.84,27.78,25.1,25.1,0,0,0,27.78,2.71Z"/><path d="M60.44,65.77a5.32,5.32,0,0,1-3.77-1.56L43,50.51a1.36,1.36,0,0,1,0-1.92L48.59,43a1.42,1.42,0,0,1,1.92,0l13.7,13.71a5.33,5.33,0,0,1-3.77,9.1ZM58.59,62.3a2.69,2.69,0,0,0,3.71,0,2.64,2.64,0,0,0,.76-1.86,2.6,2.6,0,0,0-.76-1.85L49.55,45.84l-3.71,3.71Z"/></svg>