<svg id="Layer_1" data-name="Layer 1" xmlns="http://www.w3.org/2000/svg" xmlns:xlink="http://www.w3.org/1999/xlink" viewBox="0 0 166.28 154.56"><defs><style>.cls-1{fill:none;}.cls-2{fill:#c1f4de;}.cls-3{fill-rule:evenodd;}.cls-4{fill:#fff;}.cls-5{clip-path:url(#clip-path);}</style><clipPath id="clip-path" transform="translate(-142.05 -122.69)"><polygon class="cls-1" points="236.71 215.7 236.8 206.28 245.35 200.94 245.25 210.36 236.71 215.7"/></clipPath></defs><circle class="cls-2" cx="65.24" cy="65.24" r="65.24"/><path class="cls-3" d="M211.08,242.78a2.22,2.22,0,0,0-3.89,2.14L216,260.55h0a59.94,59.94,0,0,1-45.93-71.23v0a71.28,71.28,0,0,1,3.11-10.19,2.22,2.22,0,0,0-4.08-1.75,64.62,64.62,0,0,0,35,84.17,70.23,70.23,0,0,0,9.91,3.2h0L199.52,273a2.22,2.22,0,0,0,2.14,3.88l19.8-11.26a2.24,2.24,0,0,0,.88-3h0Z" transform="translate(-142.05 -122.69)"/><path d="M200.5,277.25a1.21,1.21,0,0,1-.59-.1,2.45,2.45,0,0,1-1.36-1.07,2.33,2.33,0,0,1,.88-3.1l14.46-8.26a70.12,70.12,0,0,1-9.8-3.1,63,63,0,0,1-21.26-14.27,64,64,0,0,1-13.69-20.59,65,65,0,0,1-4.95-24.27A63.92,63.92,0,0,1,169,177.35a2.36,2.36,0,0,1,1.26-1.26,2.63,2.63,0,0,1,1.75,0,2.31,2.31,0,0,1,1.26,3,53.49,53.49,0,0,0-3.1,10.19,60,60,0,0,0,45.92,71.26l-8.84-15.63a2.35,2.35,0,0,1,.87-3.11,2.15,2.15,0,0,1,1.75-.19,2.45,2.45,0,0,1,1.36,1.07l11.26,19.9h0a2.34,2.34,0,0,1-.87,3.1L201.85,277A4.42,4.42,0,0,1,200.5,277.25ZM214,264.72h0c.1.1.1.1,0,.1l-14.56,8.25a2.11,2.11,0,0,0-.86,2.86,1,1,0,0,0,.08.14,2.68,2.68,0,0,0,1.26,1.07,2,2,0,0,0,1.65-.19l19.81-11.27a2.09,2.09,0,0,0,.81-2.84.43.43,0,0,0,0-.07h0l-11.26-19.9a2.68,2.68,0,0,0-1.26-1.07,2,2,0,0,0-1.65.2,2.11,2.11,0,0,0-.86,2.86,1,1,0,0,0,.08.14l8.8,15.65v.09h-.1a60,60,0,0,1-46.31-47.47,58.4,58.4,0,0,1,.29-23.88,74.06,74.06,0,0,1,3.11-10.2,2.13,2.13,0,0,0-1.14-2.8h0a2.46,2.46,0,0,0-1.65,0,2,2,0,0,0-1.17,1.16,64.49,64.49,0,0,0,.1,49.32,62.37,62.37,0,0,0,13.69,20.58A63.85,63.85,0,0,0,204,261.62,77.62,77.62,0,0,0,214,264.72Z" transform="translate(-142.05 -122.69)"/><path class="cls-3" d="M307,187.84l-19.8-11.46a2.2,2.2,0,0,0-3,.78l-11.65,19.61a2.2,2.2,0,0,0,.78,3,2.49,2.49,0,0,0,1.16.29,2.22,2.22,0,0,0,1.94-1.07l9.13-15.44h0a59.58,59.58,0,0,1-27.18,69.9,61,61,0,0,1-22,7.48,2.24,2.24,0,0,0,.29,4.46H237c35.44-4.75,60.29-37,55.43-72a60.33,60.33,0,0,0-2.23-10.1h0l14.56,8.45a2.22,2.22,0,0,0,3.08-.63l0-.05a2.09,2.09,0,0,0-.53-2.91l-.15-.09C307.09,187.93,307.09,187.84,307,187.84Z" transform="translate(-142.05 -122.69)"/><path d="M236.61,265.4a2.2,2.2,0,0,1-2.23-1.94,2.07,2.07,0,0,1,.48-1.65,2.29,2.29,0,0,1,1.56-.87,59.85,59.85,0,0,0,48.05-37.67,58,58,0,0,0,4-19.42,59,59,0,0,0-2.81-20.09l-9.13,15.34a2.25,2.25,0,0,1-1.94,1.06h0a2.5,2.5,0,0,1-1.17-.29,2.44,2.44,0,0,1-1.06-1.36,2.21,2.21,0,0,1,.19-1.74l11.65-19.61a2.25,2.25,0,0,1,3.08-.8l0,0,19.8,11.46c.1,0,.1.09.19.09a2.25,2.25,0,0,1,1,1.46A2.44,2.44,0,0,1,308,191a2.24,2.24,0,0,1-3.08.7l0,0-14.47-8.45a72.94,72.94,0,0,1,2.24,10,63.55,63.55,0,0,1-12.53,47.18,65,65,0,0,1-43.14,25Zm48.93-81.84h0a57.77,57.77,0,0,1,2.91,20.29,58.55,58.55,0,0,1-4,19.52A60.06,60.06,0,0,1,236.32,261a2.33,2.33,0,0,0-1.46.88,1.92,1.92,0,0,0-.39,1.55,2.12,2.12,0,0,0,2.14,1.85h.29a63.55,63.55,0,0,0,24.37-8.45,64.66,64.66,0,0,0,29.41-38.44,63.1,63.1,0,0,0,1.65-25.25,60,60,0,0,0-2.23-10.09h0V183h.1l14.56,8.45a2.12,2.12,0,0,0,2.94-.59l.06-.09a2.44,2.44,0,0,0,.29-1.65,2,2,0,0,0-1-1.36.35.35,0,0,0-.19-.1h0l-19.81-11.45a2.22,2.22,0,0,0-3,.77L272.4,196.59a1.92,1.92,0,0,0-.19,1.65,2,2,0,0,0,1,1.36,1.92,1.92,0,0,0,1.07.29h0a2.1,2.1,0,0,0,1.84-1.06l9.42-15.25Z" transform="translate(-142.05 -122.69)"/><path class="cls-3" d="M179.23,165.89l22.82.1a2.23,2.23,0,1,0,0-4.46h0l-17.86-.1h0a59.17,59.17,0,0,1,83.52-5.2c.35.3.69.61,1,.93a61.51,61.51,0,0,1,7.19,7.86,2.18,2.18,0,0,0,3.05.43l0,0a2.29,2.29,0,0,0,.39-3.2h0a63.65,63.65,0,0,0-89.12-12.64l-1.16.89a59.19,59.19,0,0,0-7.67,7.18h0l.09-17.18a2.23,2.23,0,1,0-4.46,0l-.1,23.2a2.19,2.19,0,0,0,2.15,2.23Z" transform="translate(-142.05 -122.69)"/><path d="M202.05,166.09h0l-22.82-.1a2.28,2.28,0,0,1-2.23-2.33h0l.1-23.2a2.35,2.35,0,0,1,2.23-2.33,2.28,2.28,0,0,1,2.23,2.33h0l-.09,17.09a65.16,65.16,0,0,1,7.67-7.09A63,63,0,0,1,212.05,139a63.72,63.72,0,0,1,67.47,23.35h0a2.31,2.31,0,0,1-.39,3.21,2.11,2.11,0,0,1-1.65.48,2.15,2.15,0,0,1-1.46-.87,60.85,60.85,0,0,0-7.18-7.87,59.38,59.38,0,0,0-84.56,4.18l17.77.1a1.92,1.92,0,0,1,1.55.68,2.32,2.32,0,0,1,.68,1.65,2.19,2.19,0,0,1-2.2,2.18Zm-22.82-.2,22.82.1h0a2.17,2.17,0,0,0,2.13-2.21v0a1.89,1.89,0,0,0-.68-1.55,2.26,2.26,0,0,0-1.55-.68l-17.86-.1H184v-.1A58.39,58.39,0,0,1,203.21,147a59.46,59.46,0,0,1,65.44,10.1,62.17,62.17,0,0,1,7.18,7.86,2.33,2.33,0,0,0,1.46.88,2.1,2.1,0,0,0,1.55-.39,2.2,2.2,0,0,0,.41-3.08l0,0h0a64.88,64.88,0,0,0-19.32-17A63.68,63.68,0,0,0,189,150.56a59.19,59.19,0,0,0-7.67,7.18h-.1v-.1l.1-17.18a2.14,2.14,0,1,0-4.27-.29,1.4,1.4,0,0,0,0,.29l-.1,23.2a2.19,2.19,0,0,0,2.15,2.23h.12Z" transform="translate(-142.05 -122.69)"/><path d="M257.48,180.46c-2.81-1.65-5.53-3.5-8.35-5.34L232.24,164a4,4,0,0,0-4.37,0l-23.1,15a3.67,3.67,0,0,0-.68.49c-.59.38-1.17.77-1.85,1.26a5.68,5.68,0,0,0-2.42,4.37V217c0,3.11,2.81,4.76,4.56,5.73.29.19.48.29.78.48,1.06.68,2.23,1.46,3.3,2,.69.39,1.36.81,2,1.26L228.75,238a3.05,3.05,0,0,0,1.74.48,5.11,5.11,0,0,0,1.17-.19,15.1,15.1,0,0,0,2.62-1.56l3.49-2.33c.88-.58,1.75-1.16,2.53-1.65,1.36-.87,4.08-2.62,6.89-4.36,2.23-1.36,4.56-2.82,6.6-4.08.29-.2.59-.39,1-.68.68-.49,1.56-1.07,2.24-1.46,2.42-1.36,3.59-3.2,3.59-5.24V185.12A6.46,6.46,0,0,0,257.48,180.46Zm-2.43,36.31a3.27,3.27,0,0,1-1,.77c-.77.49-1.74,1.07-2.52,1.56a3,3,0,0,0-.87.58c-2,1.26-4.37,2.72-6.51,4.08-2.81,1.74-5.53,3.39-7,4.36-.77.49-1.65,1.17-2.52,1.75-.58.39-1.26.88-1.85,1.26a18.18,18.18,0,0,0-1.55,1.07,3.74,3.74,0,0,1-.87.49l-2.92-1.85-14.27-8.93c-.68-.39-1.36-.87-2-1.26l-3.2-2a7.65,7.65,0,0,0-1-.58,7.71,7.71,0,0,1-1.94-1.36v-31.5l.58-.58q.62-.47,1.26-.87l.1-.1.68-.39L230,168.71l16.11,10.68c2.33,1.55,4.76,3.2,7.28,4.76.39.29.88.48,1.27.77.09.1.19.2.29.2v31.65Z" transform="translate(-142.05 -122.69)"/><path class="cls-4" d="M255.05,189.49v27.28a3.27,3.27,0,0,1-1,.77c-.77.49-1.74,1.07-2.52,1.56a3,3,0,0,0-.87.58c-2,1.26-4.37,2.72-6.51,4.08-2.81,1.74-5.53,3.39-7,4.36-.77.49-1.65,1.17-2.52,1.75-.58.39-1.26.88-1.85,1.26V203.66Z" transform="translate(-142.05 -122.69)"/><path class="cls-4" d="M227.39,203.27v27.67L213.12,222c-.68-.39-1.36-.88-2-1.26l-3.21-2a7.72,7.72,0,0,0-1-.59A7.67,7.67,0,0,1,205,216.8v-28Z" transform="translate(-142.05 -122.69)"/><path class="cls-4" d="M253.5,184.24,230.4,198.9l-23.3-15.14c.19-.1.48-.29.68-.39l22.33-14.56,16.11,10.68C248.55,181,251,182.69,253.5,184.24Z" transform="translate(-142.05 -122.69)"/><path d="M232.05,203.08a2.41,2.41,0,0,1-1.85,1.16h-.39a2.75,2.75,0,0,1-1.45-.39l-1-.58L205,188.81l-3.79-2.43a2.6,2.6,0,0,1,2.82-4.37l2.91,1.84L230.3,199l.87.58a3.47,3.47,0,0,1,1.07,1.36h0A2.45,2.45,0,0,1,232.05,203.08Z" transform="translate(-142.05 -122.69)"/><path d="M257.58,187.84l-2.53,1.65-22.32,14.17-.49.29a2.35,2.35,0,0,1-1.46.39,1.52,1.52,0,0,1-.67-.1,3,3,0,0,1-1.56-1.16,2.52,2.52,0,0,1,.49-3.3,1.14,1.14,0,0,1,.39-.3l1-.58,23.1-14.66,1.26-.77a2.6,2.6,0,0,1,2.82,4.37Z" transform="translate(-142.05 -122.69)"/><path d="M232.73,202.2V234a2.63,2.63,0,0,1-5.25,0V202.2a2.63,2.63,0,0,1,1.65-2.42,3.42,3.42,0,0,1,1-.2,2.59,2.59,0,0,1,2.23,1.26h0A3.25,3.25,0,0,1,232.73,202.2Z" transform="translate(-142.05 -122.69)"/><g class="cls-5"><path d="M243.89,201.81l-5.73,3.5a3.26,3.26,0,0,0-1.45,2.43v6.31c0,.87.58,1.16,1.45.68l5.73-3.5a3.23,3.23,0,0,0,1.46-2.43v-6.31c0-.77-.59-1.16-1.46-.68" transform="translate(-142.05 -122.69)"/></g></svg>