<svg xmlns="http://www.w3.org/2000/svg" width="108.629" height="77.993" viewBox="0 0 108.629 77.993">
  <g id="_" data-name="“" transform="translate(-30.182 630)">
    <path id="Path_37" data-name="Path 37" d="M60.2-626.6c-19,10.3-28.7,24.3-29.9,43.2-1,14.9,4.4,25.3,15.3,29.3,16.3,6.2,31.2-1.9,32.2-17.4.7-10.6-4.9-17.9-14.8-19.2-2.2-.3-4.3-1-4.6-1.4-1-1.7,3.3-9.4,7.1-12.8a44.91,44.91,0,0,1,9.2-5.8c2.9-1.4,5.3-2.8,5.3-3.1-.1-1.6-11.2-16.2-12.3-16.2C67-630,63.7-628.4,60.2-626.6Z" fill="#7215a1"/>
    <path id="Path_38" data-name="Path 38" d="M118.9-626.3c-16,8.2-26.5,22.1-29.1,38.6-3.4,22.1,8.3,37,28,35.4,7.9-.6,13.5-4.1,17.1-10.7,3-5.3,3.3-13.8.7-18.8-2.1-4-7.7-7.8-13.4-9.1a19.764,19.764,0,0,1-4.6-1.3c-.2-.1.1-1.8.6-3.6,1.2-4.6,8.2-11.3,15.2-14.6,3.1-1.5,5.6-3.1,5.4-3.5-1.1-2.9-10.5-16.1-11.4-16.1C126.7-630,122.9-628.3,118.9-626.3Z" fill="#7215a1"/>
  </g>
</svg>
