<svg xmlns="http://www.w3.org/2000/svg" width="97.802" height="16.56" viewBox="0 0 97.802 16.56">
  <g id="Group_21" data-name="Group 21" transform="translate(-382.045 -239.848)">
    <path id="Shape" d="M392.215,247.253h-4.021l.871-3.942h3.719c1.224,0,1.944.659,1.944,1.62a2.315,2.315,0,0,1-2.513,2.322m6.635-2.71c0-2.708-2.088-4.695-5.739-4.695h-7.43l-3.636,16.56h4.14l1.253-5.688h2.422l2.409,5.688H396.4l-2.567-5.961a5.814,5.814,0,0,0,5.019-5.9" fill="#989898"/>
    <path id="Shape-2" data-name="Shape" d="M405.992,250.209l3.55-6.106,1.343,6.106h-4.893Zm1.872-10.361-9.619,16.56h4.129l1.609-2.747h7.661l.6,2.747h4.129l-3.625-16.56Zm20.369,7.4h-3.672l.864-3.942h3.2c1.26,0,2.034.6,2.034,1.62a2.3,2.3,0,0,1-2.419,2.322m.806-7.4h-7l-3.636,16.56h4.133l1.26-5.695h4.615a6.094,6.094,0,0,0,6.336-6.109c0-2.794-2.178-4.752-5.71-4.752" fill="#989898"/>
    <path id="Shape-3" data-name="Shape" d="M442.748,239.848h-4.14l-3.643,16.56h4.14Z" fill="#989898"/>
    <path id="Shape-4" data-name="Shape" d="M472.4,239.848H459.345c.2.2.4.411.576.63a9.974,9.974,0,0,1,2.232,6.444,12.713,12.713,0,0,1-4.148,9.486H466l3.8-9.439h-4.752l.792-3.661h9.44l-4.958,13.1h1.944c4.526.029,7.586-3.729,7.586-8.294s-2.916-8.266-7.452-8.266" fill="#989898"/>
    <path id="Path_113" data-name="Path 113" d="M449.351,252.952h-2.286l2.124-9.641h2.16c2.369,0,3.7,1.775,3.7,4a5.49,5.49,0,0,1-5.688,5.645m8.287-10.4a8.244,8.244,0,0,0-6.527-2.7h-5.306l-3.647,16.56h6.678a11.62,11.62,0,0,0,6.11-1.494,9.133,9.133,0,0,0,4.194-7.992,6.7,6.7,0,0,0-1.5-4.374" fill="#989898"/>
  </g>
</svg>
