<svg xmlns="http://www.w3.org/2000/svg" width="139.595" height="23.635" viewBox="0 0 139.595 23.635"><defs><style>.a{fill:#6c7a81;}</style></defs><path class="a" d="M1818.38,1412.425h-5.74l1.244-5.625h5.306c1.749,0,2.776.941,2.776,2.312a3.3,3.3,0,0,1-3.586,3.314m9.47-3.867c0-3.865-2.981-6.7-8.191-6.7h-10.605l-5.191,23.635h5.909l1.788-8.118h3.459l3.436,8.118h5.895l-3.663-8.51a8.294,8.294,0,0,0,7.163-8.425" transform="translate(-1803.863 -1401.858)"/><path class="a" d="M1824.774,1416.645l5.067-8.714,1.915,8.714h-6.982Zm2.671-14.787-13.729,23.635h5.893l2.3-3.919h10.934l.864,3.919h5.9l-5.175-23.635Zm29.074,10.568h-5.243l1.234-5.625h4.562c1.8,0,2.9.857,2.9,2.312a3.285,3.285,0,0,1-3.452,3.314m1.15-10.568h-9.993l-5.191,23.635h5.9l1.8-8.129h6.587a8.7,8.7,0,0,0,9.045-8.718c0-3.987-3.109-6.782-8.151-6.782" transform="translate(-1790.593 -1401.858)"/><path class="a" d="M1847.159,1401.858h-5.909l-5.2,23.635h5.91Z" transform="translate(-1760.514 -1401.858)"/><path class="a" d="M1870.606,1401.858h-18.631c.281.286.563.584.821.9a14.228,14.228,0,0,1,3.185,9.2,18.141,18.141,0,0,1-5.919,13.539h11.408l5.421-13.473h-6.783l1.129-5.224h13.473l-7.075,18.7h2.776c6.458.042,10.826-5.322,10.826-11.837s-4.163-11.8-10.636-11.8" transform="translate(-1741.641 -1401.858)"/><path class="a" d="M1850.683,1420.56h-3.262l3.032-13.76h3.084c3.379,0,5.276,2.532,5.276,5.7a7.834,7.834,0,0,1-8.118,8.057m11.828-14.849c-2.025-2.467-5.369-3.853-9.315-3.853h-7.575l-5.205,23.635h9.533a16.582,16.582,0,0,0,8.718-2.131,13.037,13.037,0,0,0,5.987-11.408,9.554,9.554,0,0,0-2.138-6.243" transform="translate(-1754.617 -1401.858)"/></svg>