<?xml version="1.0" encoding="utf-8"?>
<!-- Generator: Adobe Illustrator 25.4.1, SVG Export Plug-In . SVG Version: 6.00 Build 0)  -->
<svg version="1.1" id="Layer_1" xmlns="http://www.w3.org/2000/svg" xmlns:xlink="http://www.w3.org/1999/xlink" x="0px" y="0px"
	 viewBox="0 0 170.2 118.4" style="enable-background:new 0 0 170.2 118.4;" xml:space="preserve">
<style type="text/css">
	.st0{fill-rule:evenodd;clip-rule:evenodd;fill:#C1F4DE;}
	.st1{fill:#232426;}
</style>
<g>
	<path class="st0" d="M139.8,118.4H10c-5.5,0-10-4.5-10-10V28.1c0-5.5,4.5-10,10-10h129.8c5.5,0,10,4.5,10,10v80.3
		C150,113.9,145.5,118.4,139.8,118.4z"/>
	<g>
		<g>
			<path class="st1" d="M70.3,28.3h-0.8v4.3h0.8c1.2,0,2.2-0.9,2.2-2.2C72.4,29.2,71.5,28.3,70.3,28.3z M100,69.8
				c-0.6-0.3-1.2-0.4-1.9-0.4H77.4c0.4,0.1,0.8,0.3,1,0.4c1.1,0.3,2.3,0.5,3.4,0.5h19.1C100.7,70.1,100.4,70,100,69.8z M119.8,67.4
				c-1.2,0-2.2,0.9-2.2,2.2v0.7h4.3v-0.7C122,68.5,121,67.4,119.8,67.4z"/>
			<path d="M157.8,0H82c-6.8,0-12.3,5.5-12.3,12.3v16h0.8c1.2,0,2.2,0.9,2.2,2.2s-0.9,2.2-2.2,2.2h-0.8V58c0,0.3,0,0.5,0,0.8
				c0.3,4.9,3.5,9,7.8,10.7h20.8c0.7,0,1.3,0.1,1.9,0.4c0.3,0.1,0.7,0.3,0.9,0.5h16.7v-0.7c0-1.2,0.9-2.2,2.2-2.2s2.2,0.9,2.2,2.2
				v0.7h12.3l11.1,11.1c0.8,0.8,2.1,1.3,3.2,1.3c0.6,0,1.2-0.1,1.8-0.4c1.7-0.8,2.8-2.3,2.8-4.2v-7.8h4.7c6.8,0,12.3-5.5,12.3-12.3
				V12.4C170.1,5.5,164.5,0,157.8,0z M165.7,57.9c0,4.4-3.6,8.1-8.1,8.1h-6.8c-1.2,0-2.2,0.9-2.2,2.2v10c0,0.1,0,0.2-0.2,0.3
				c-0.2,0.1-0.3,0-0.3-0.1l-11.6-11.6c-0.4-0.4-0.9-0.7-1.5-0.7H81.9c-4.2,0-7.6-3.2-8-7.3c0-0.3,0-0.5,0-0.8V12.3
				c0-4.4,3.6-8.1,8.1-8.1h75.8c4.4,0,8.1,3.6,8.1,8.1L165.7,57.9L165.7,57.9z"/>
		</g>
		<g>
			<path d="M122,69.6v16.6c0,6.8-5.5,12.3-12.3,12.3H57.4l-11.1,11.1c-0.8,0.8-2.1,1.3-3.2,1.3c-0.6,0-1.2-0.1-1.8-0.4
				c-1.7-0.7-2.8-2.3-2.8-4.2v-7.8h-4.7c-6.8,0-12.3-5.5-12.3-12.3V40.6c0-6.8,5.5-12.3,12.3-12.3h36.5c1.2,0,2.2,0.9,2.2,2.2
				s-0.9,2.2-2.2,2.2H33.8c-4.4,0-8.1,3.6-8.1,8.1v45.6c0,4.4,3.6,8.1,8.1,8.1h6.9c1.2,0,2.2,0.9,2.2,2.2v10c0,0.1,0,0.2,0.2,0.3
				c0.2,0.1,0.3,0,0.3-0.1L54.9,95c0.4-0.4,0.9-0.7,1.5-0.7h53.2c4.4,0,8.1-3.6,8.1-8.1V69.7c0-1.2,0.9-2.2,2.2-2.2
				C120.9,67.5,122,68.5,122,69.6z"/>
		</g>
	</g>
	<g>
		<path d="M149.3,29.6H90.2c-1.1,0-2-1-2-2.3s0.9-2.3,2-2.3h59.1c1.1,0,2,1,2,2.3C151.4,28.5,150.4,29.6,149.3,29.6z"/>
		<path d="M149.3,45.2H90.2c-1.1,0-2-1-2-2.3s0.9-2.3,2-2.3h59.1c1.1,0,2,1,2,2.3S150.4,45.2,149.3,45.2z"/>
	</g>
	<g>
		<path d="M73.9,58.7H41.5c-1.1,0-2-1-2-2.3s0.9-2.3,2-2.3h32.4v3.8C73.8,58.2,73.9,58.5,73.9,58.7z"/>
		<path d="M100.6,74.3H41.5c-1.1,0-2-1-2-2.3s0.9-2.3,2-2.3h59.1c1.1,0,2,1,2,2.3S101.6,74.3,100.6,74.3z"/>
	</g>
</g>
</svg>
