<?xml version="1.0" encoding="utf-8"?>
<!-- Generator: Adobe Illustrator 26.0.3, SVG Export Plug-In . SVG Version: 6.00 Build 0)  -->
<svg version="1.1" id="Layer_1" xmlns="http://www.w3.org/2000/svg" xmlns:xlink="http://www.w3.org/1999/xlink" x="0px" y="0px"
	 viewBox="0 0 132.6 165.8" style="enable-background:new 0 0 132.6 165.8;" xml:space="preserve">
<style type="text/css">
	.st0{fill:#DFC0F2;}
</style>
<path d="M37.5,165.8c-0.9,0-1.7-0.5-2-1.3l-9.7-22.2L3.6,152c-0.8,0.4-1.8,0.2-2.4-0.4c-0.6-0.6-0.8-1.6-0.5-2.4l16.8-42.6
	c0.4-1.1,1.7-1.7,2.9-1.3c1.1,0.4,1.7,1.7,1.3,2.9c0,0,0,0.1,0,0.1L6.8,145.9l19.3-8.4c0.5-0.2,1.2-0.2,1.7,0c0.6,0.2,1,0.6,1.2,1.2
	l10.6,24.2c0.5,1.1,0,2.4-1.1,2.9L37.5,165.8z"/>
<circle class="st0" cx="73.3" cy="59.3" r="59.3"/>
<path d="M59.7,111.5c-20.9,0-37.8-16.9-37.8-37.8s16.9-37.8,37.8-37.8s37.8,16.9,37.8,37.8C97.5,94.6,80.6,111.5,59.7,111.5z
	 M59.7,40.3c-18.4,0-33.4,15-33.4,33.4s15,33.4,33.4,33.4s33.4-15,33.4-33.4c0,0,0,0,0,0C93.1,55.3,78.1,40.3,59.7,40.3z"/>
<path d="M59.7,133.3c-3.9,0-7.5-2-9.7-5.2c-2-3.1-5.9-4.1-9.2-2.5c-3.5,1.8-7.6,1.7-11-0.3c-3.4-2-5.5-5.5-5.7-9.4
	c-0.2-3.6-3.1-6.5-6.7-6.7c-3.9-0.2-7.4-2.3-9.4-5.7c-2-3.4-2.1-7.5-0.3-11c1.7-3.3,0.6-7.2-2.5-9.2c-3.3-2.1-5.3-5.8-5.2-9.7
	c0-3.9,2-7.5,5.2-9.7c3.1-2,4.1-5.9,2.5-9.2C5.9,51.2,6,47.1,8,43.7c2-3.4,5.5-5.5,9.4-5.7c3.6-0.2,6.5-3.1,6.7-6.7
	c0.2-3.9,2.3-7.4,5.7-9.4c3.4-2,7.5-2.1,11-0.3c3.3,1.7,7.2,0.6,9.2-2.5c2.1-3.3,5.8-5.3,9.7-5.2c3.9,0,7.5,2,9.7,5.2l0,0
	c2,3.1,5.9,4.1,9.2,2.5c3.5-1.8,7.6-1.7,11,0.3c3.4,2,5.5,5.5,5.7,9.4c0.2,3.6,3.1,6.5,6.7,6.7c3.9,0.2,7.4,2.3,9.4,5.7
	c2,3.4,2.1,7.5,0.3,11c-1.7,3.3-0.6,7.2,2.5,9.2c3.3,2.1,5.3,5.8,5.2,9.7c0,3.9-2,7.5-5.2,9.7c-3.1,2-4.1,5.9-2.5,9.2
	c1.8,3.5,1.7,7.6-0.3,11c-2,3.4-5.5,5.5-9.4,5.7c-3.6,0.2-6.5,3.1-6.7,6.7c-0.2,3.9-2.3,7.4-5.7,9.4c-3.4,2-7.5,2.1-11,0.3
	c-3.3-1.7-7.2-0.6-9.2,2.5C67.3,131.4,63.6,133.3,59.7,133.3z M44.1,120.4c3.9,0,7.5,2,9.6,5.3c1.3,2.1,3.6,3.3,6,3.2
	c2.4,0,4.7-1.2,6-3.2c3.2-5,9.6-6.7,14.9-4c2.1,1.1,4.7,1.1,6.8-0.2c2.1-1.2,3.4-3.4,3.5-5.8c0.3-5.9,5-10.6,10.9-10.9
	c2.4-0.1,4.6-1.4,5.8-3.5c1.2-2.1,1.3-4.6,0.2-6.8c-2.7-5.3-1-11.7,4-14.9c2.1-1.3,3.3-3.6,3.2-6c0-2.4-1.2-4.7-3.2-6
	c-5-3.2-6.7-9.6-4-14.9c1.8-3.5,0.4-7.8-3.1-9.5c-0.9-0.5-1.9-0.7-2.9-0.8c-5.9-0.3-10.6-5-10.9-10.9c-0.1-2.4-1.4-4.6-3.5-5.8
	c-2.1-1.2-4.6-1.3-6.8-0.2c-5.3,2.7-11.7,1-14.9-4l0,0c-1.3-2.1-3.6-3.3-6-3.2c-2.4,0-4.7,1.2-6,3.2c-3.2,5-9.6,6.7-14.9,4
	c-3.5-1.8-7.8-0.4-9.5,3.1c-0.5,0.9-0.7,1.9-0.8,2.9c-0.3,5.9-5,10.6-10.9,10.9c-2.4,0.1-4.6,1.4-5.8,3.5c-1.2,2.1-1.3,4.6-0.2,6.8
	c2.7,5.3,1,11.7-4,14.9c-2.1,1.3-3.3,3.6-3.2,6c0,2.4,1.2,4.6,3.2,6c5,3.2,6.7,9.6,4,14.9c-1.8,3.5-0.4,7.8,3.1,9.5
	c0.9,0.5,1.9,0.7,2.9,0.8c5.9,0.3,10.6,5,10.9,10.9c0.1,2.4,1.4,4.6,3.5,5.8c2.1,1.2,4.6,1.3,6.8,0.2
	C40.4,120.9,42.3,120.4,44.1,120.4z"/>
<path d="M37.5,165.8c-0.3,0-0.6,0-0.8-0.2c-1.1-0.4-1.7-1.7-1.2-2.8c0,0,0-0.1,0-0.1L49.9,126c0.5-1.1,1.7-1.7,2.9-1.3
	c1.1,0.4,1.7,1.7,1.2,2.8c0,0,0,0.1,0,0.1l-14.4,36.7C39.3,165.2,38.4,165.8,37.5,165.8z"/>
<path d="M76,165.8c-0.3,0-0.6-0.1-0.9-0.2c-1.1-0.5-1.6-1.8-1.1-2.9l10.6-24.2c0.5-1.1,1.8-1.6,2.9-1.1l19.7,8.6l-12-36.7
	c-0.4-1.2,0.2-2.4,1.4-2.8c1.2-0.4,2.4,0.2,2.8,1.4l13.5,41.4c0.3,0.8,0,1.7-0.6,2.3c-0.7,0.6-1.6,0.7-2.4,0.4l-22.2-9.7L78,164.5
	C77.6,165.3,76.9,165.8,76,165.8z"/>
<path d="M76,165.8c-0.9,0-1.8-0.5-2.1-1.4L61,131.7c-0.4-1.1,0.1-2.4,1.3-2.9c1.1-0.4,2.3,0.1,2.8,1.2L78,162.7
	c0.4,1.1-0.1,2.4-1.2,2.9C76.6,165.7,76.3,165.8,76,165.8z"/>
<path d="M54.8,77H39.6c-0.8,0.1-1.4-0.5-1.5-1.3c-0.1-0.8,0.5-1.4,1.3-1.5c0.1,0,0.2,0,0.2,0h15.2c0.8-0.1,1.4,0.5,1.5,1.3
	c0.1,0.8-0.5,1.4-1.3,1.5C54.9,77,54.8,77,54.8,77z"/>
<path d="M53.4,83.5H38.2c-0.8-0.1-1.3-0.7-1.3-1.5c0.1-0.7,0.6-1.2,1.3-1.3h15.2c0.8-0.1,1.4,0.5,1.5,1.3c0.1,0.8-0.5,1.4-1.3,1.5
	C53.5,83.5,53.4,83.5,53.4,83.5z"/>
<path d="M41.4,87.6c-0.1,0-0.2,0-0.3,0c-0.8-0.1-1.3-0.9-1.1-1.6c0,0,0,0,0-0.1l3.2-15c0.1-0.8,0.8-1.3,1.6-1.2
	c0.8,0.1,1.3,0.8,1.2,1.6c0,0.1,0,0.1,0,0.2l-3.2,15C42.6,87.1,42,87.6,41.4,87.6z"/>
<path d="M48,87.6h-0.3c-0.7-0.2-1.2-0.9-1.1-1.7l3.2-15c0.2-0.8,0.9-1.2,1.7-1.1s1.2,0.9,1.1,1.7l0,0l-3.2,15
	C49.3,87.1,48.7,87.6,48,87.6z"/>
<path d="M67.9,91.7c-1,0-1.8-0.8-1.8-1.8V53.2c-0.1-1,0.7-1.9,1.7-1.9s1.9,0.7,1.9,1.7c0,0.1,0,0.2,0,0.3v36.7
	C69.7,90.9,68.9,91.7,67.9,91.7z"/>
<path d="M76.1,91.7H59.8c-1,0-1.8-0.8-1.8-1.8c0-1,0.8-1.8,1.8-1.8c0,0,0,0,0,0h16.3c1,0,1.8,0.8,1.8,1.8
	C77.9,90.9,77.1,91.7,76.1,91.7z"/>
<path d="M57.1,65.8c-1,0-1.8-0.8-1.8-1.8c0-0.5,0.2-0.9,0.5-1.3l10.9-10.9c0.7-0.7,1.9-0.6,2.6,0.1c0.6,0.7,0.6,1.7,0,2.4L58.4,65.3
	C58,65.6,57.6,65.8,57.1,65.8z"/>
</svg>
