<svg xmlns="http://www.w3.org/2000/svg" width="95.003" height="28" viewBox="0 0 95.003 28">
  <g id="Group_7" data-name="Group 7" transform="translate(-682.508 -80.75)">
    <path id="Path_43" data-name="Path 43" d="M705.584,93.158c-4.673-2.679-12.38-2.927-16.841-1.619a1.365,1.365,0,0,1-1.7-.852,1.3,1.3,0,0,1,.881-1.643l.034-.01c5.12-1.5,13.633-1.211,19.011,1.867a1.282,1.282,0,0,1,.427,1.805,1.384,1.384,0,0,1-1.811.448Zm-.153,3.968a1.154,1.154,0,0,1-1.554.36,19.631,19.631,0,0,0-14.446-1.631,1.139,1.139,0,0,1-1.422-.7,1.084,1.084,0,0,1,.729-1.373l.037-.012a21.816,21.816,0,0,1,16.284,1.859A1.069,1.069,0,0,1,705.431,97.126Zm-1.773,3.811a.923.923,0,0,1-1.243.291c-3.4-2.01-7.688-2.464-12.734-1.348a.906.906,0,0,1-1.082-.657.871.871,0,0,1,.68-1.044c5.521-1.219,10.258-.694,14.08,1.556a.855.855,0,0,1,.3,1.2Zm-6.65-20.187a14.009,14.009,0,1,0,14.5,14A14.257,14.257,0,0,0,697.008,80.75Z" fill="#989898" fill-rule="evenodd"/>
    <path id="Path_44" data-name="Path 44" d="M721.362,94.115c-2.414-.568-2.845-.966-2.845-1.8,0-.791.756-1.329,1.88-1.329a5.533,5.533,0,0,1,3.3,1.237.16.16,0,0,0,.12.028.151.151,0,0,0,.1-.063l1.179-1.635a.155.155,0,0,0-.03-.213,7.2,7.2,0,0,0-4.637-1.584c-2.607,0-4.429,1.542-4.429,3.75,0,2.369,1.571,3.206,4.286,3.853,2.31.525,2.7.964,2.7,1.751,0,.871-.789,1.412-2.057,1.412a5.584,5.584,0,0,1-3.845-1.566.178.178,0,0,0-.116-.038.155.155,0,0,0-.1.055l-1.322,1.552a.155.155,0,0,0,.016.217,7.946,7.946,0,0,0,5.322,2.013c2.81,0,4.625-1.514,4.625-3.857C725.5,95.916,724.3,94.821,721.362,94.115Z" fill="#989898" fill-rule="evenodd"/>
    <path id="Path_45" data-name="Path 45" d="M734.015,96.9a2.631,2.631,0,0,1-2.3,2.908c-.073.008-.146.013-.219.014a2.945,2.945,0,0,1,0-5.844,2.65,2.65,0,0,1,2.531,2.759c0,.052,0,.106-.009.159Zm-2.025-5.154a3.732,3.732,0,0,0-3.02,1.484V92.111a.158.158,0,0,0-.156-.16h-2.148a.158.158,0,0,0-.156.16V104.59a.159.159,0,0,0,.156.16h2.147a.159.159,0,0,0,.156-.16v-3.939a3.821,3.821,0,0,0,3.02,1.4c2.247,0,4.521-1.768,4.521-5.148S734.236,91.751,731.99,91.751Z" fill="#989898" fill-rule="evenodd"/>
    <path id="Path_46" data-name="Path 46" d="M742.415,99.591a2.705,2.705,0,0,1-2.679-2.732c0-.04,0-.081,0-.122a2.641,2.641,0,0,1,2.46-2.808q.09-.006.18-.006a2.713,2.713,0,0,1,2.7,2.729c0,.042,0,.083,0,.125a2.652,2.652,0,0,1-2.481,2.809C742.532,99.59,742.473,99.591,742.415,99.591Zm0-7.839a4.983,4.983,0,1,0,.06,0Z" fill="#989898" fill-rule="evenodd"/>
    <path id="Path_47" data-name="Path 47" d="M754.357,91.444h-2.3v-2.53a.16.16,0,0,0-.153-.165h-2.086a.162.162,0,0,0-.153.165v2.53h-1a.158.158,0,0,0-.152.163V93.54a.159.159,0,0,0,.152.164h1v5c0,2.021.934,3.045,2.776,3.045a3.6,3.6,0,0,0,1.956-.524.172.172,0,0,0,.077-.143v-1.84a.16.16,0,0,0-.155-.165.141.141,0,0,0-.066.017,2.48,2.48,0,0,1-1.226.323c-.669,0-.968-.323-.968-1.061V93.706h2.3a.159.159,0,0,0,.152-.164V91.61a.158.158,0,0,0-.15-.166Z" fill="#989898" fill-rule="evenodd"/>
    <path id="Path_48" data-name="Path 48" d="M763.179,91.618v-.31c0-.912.34-1.318,1.1-1.318a3.615,3.615,0,0,1,1.228.233.157.157,0,0,0,.2-.1.163.163,0,0,0,.008-.054v-1.89a.167.167,0,0,0-.112-.159,5.863,5.863,0,0,0-1.812-.267c-2.014,0-3.081,1.168-3.081,3.374V91.6H759.67a.162.162,0,0,0-.16.163V93.7a.162.162,0,0,0,.16.163h1.045v7.7a.163.163,0,0,0,.159.165h2.185a.161.161,0,0,0,.159-.164h0v-7.7h2.036l3.119,7.7c-.354.808-.7.968-1.178.968a2.455,2.455,0,0,1-1.2-.352.161.161,0,0,0-.127-.011.154.154,0,0,0-.094.088l-.741,1.669a.165.165,0,0,0,.069.215,4.49,4.49,0,0,0,2.329.614c1.611,0,2.5-.772,3.286-2.85L774.5,91.841a.166.166,0,0,0-.017-.153.156.156,0,0,0-.132-.072h-2.27a.162.162,0,0,0-.151.107L769.6,98.559l-2.548-6.84a.159.159,0,0,0-.149-.107Z" fill="#989898" fill-rule="evenodd"/>
    <path id="Path_49" data-name="Path 49" d="M757.446,91.786h.1v10h-2v-10h1.9Z" fill="#989898" fill-rule="evenodd"/>
    <path id="Path_50" data-name="Path 50" d="M757.011,87.752a1.5,1.5,0,1,0,1.5,1.5A1.5,1.5,0,0,0,757.011,87.752Z" fill="#989898" fill-rule="evenodd"/>
    <path id="Path_51" data-name="Path 51" d="M776.094,92.687h-.39v.5h.39c.2,0,.311-.1.311-.25s-.116-.242-.311-.242Zm.253.713.423.592h-.357l-.381-.543H775.7v.543h-.3v-1.57h.7c.365,0,.6.187.6.5a.468.468,0,0,1-.364.482Zm-.333-1.5a1.351,1.351,0,1,0,1.34,1.362v-.014a1.338,1.338,0,0,0-1.329-1.347h-.011Zm-.007,2.853a1.49,1.49,0,1,1,.029,0Z" fill="#989898" fill-rule="evenodd"/>
  </g>
</svg>
