<svg id="Layer_1" data-name="Layer 1" xmlns="http://www.w3.org/2000/svg" viewBox="0 0 80 75.39"><defs><style>.cls-1{fill:#c4cdf8;}.cls-2{fill:#fff;}</style></defs><rect class="cls-1" width="71.03" height="58.62" rx="10.75"/><path d="M74.58,66.89H12.5a5.42,5.42,0,0,1-5.42-5.41V11.36A5.42,5.42,0,0,1,12.5,5.94H74.58A5.42,5.42,0,0,1,80,11.36V61.48A5.42,5.42,0,0,1,74.58,66.89ZM12.5,8.12a3.24,3.24,0,0,0-3.23,3.24V61.48a3.23,3.23,0,0,0,3.23,3.23H74.58a3.24,3.24,0,0,0,3.24-3.23V11.36a3.24,3.24,0,0,0-3.24-3.24Z"/><path d="M22.19,75.28a1.09,1.09,0,0,1-1.09-1.09V65.8a1.09,1.09,0,0,1,2.18,0v8.39A1.09,1.09,0,0,1,22.19,75.28Z"/><path d="M64.9,75.28a1.09,1.09,0,0,1-1.09-1.09V65.8a1.09,1.09,0,1,1,2.18,0v8.39A1.09,1.09,0,0,1,64.9,75.28Z"/><path d="M72.73,75.39H57.07a1.09,1.09,0,0,1,0-2.18H72.73a1.09,1.09,0,0,1,0,2.18Z"/><path d="M30,75.39H14.36a1.09,1.09,0,1,1,0-2.18H30a1.09,1.09,0,0,1,0,2.18Z"/><path d="M35.66,20.42a1.13,1.13,0,0,1-.78-.32l-5.63-5.64a1.09,1.09,0,0,1,1.54-1.55l5.64,5.64a1.1,1.1,0,0,1-.77,1.87Z"/><path d="M30,20.42a1.1,1.1,0,0,1-.77-1.87l5.63-5.64a1.1,1.1,0,0,1,1.55,1.55L30.79,20.1A1.09,1.09,0,0,1,30,20.42Z"/><path d="M53.12,56.19a1.09,1.09,0,0,1-.77-.32l-5.64-5.64a1.09,1.09,0,0,1,1.54-1.54l5.64,5.64a1.09,1.09,0,0,1-.77,1.86Z"/><path d="M47.48,56.19a1.09,1.09,0,0,1-.77-1.86l5.64-5.64a1.09,1.09,0,1,1,1.54,1.54l-5.64,5.64A1.09,1.09,0,0,1,47.48,56.19Z"/><path d="M59.12,33a4.68,4.68,0,1,0,4.67,4.68A4.69,4.69,0,0,0,59.12,33Zm0,7.17a2.5,2.5,0,1,1,2.49-2.49A2.49,2.49,0,0,1,59.12,40.13Z"/><path class="cls-2" d="M61.61,37.64a2.5,2.5,0,1,1-2.49-2.5A2.49,2.49,0,0,1,61.61,37.64Z"/><path d="M25.78,34.11a4.68,4.68,0,1,0,4.67,4.68A4.68,4.68,0,0,0,25.78,34.11Zm0,7.17a2.5,2.5,0,1,1,2.49-2.49A2.5,2.5,0,0,1,25.78,41.28Z"/><path class="cls-2" d="M28.27,38.79a2.5,2.5,0,1,1-2.49-2.5A2.5,2.5,0,0,1,28.27,38.79Z"/><path d="M18.69,57.77a1.09,1.09,0,0,1,0-2.18c.7,0,17.12-.24,17.48-16.85C36.5,23.46,47.88,20,64.87,19.58A1.1,1.1,0,0,1,66,20.65a1.08,1.08,0,0,1-1.06,1.11c-19.12.51-26.32,5.12-26.58,17C38,57.55,18.89,57.77,18.69,57.77Z"/><path d="M60.87,25.75a1.07,1.07,0,0,1-.86-.43,1.09,1.09,0,0,1,.2-1.53L64,20.91l-3.73-2.73a1.09,1.09,0,1,1,1.29-1.76L66.42,20a1.06,1.06,0,0,1,.45.86,1.08,1.08,0,0,1-.43.88l-4.9,3.77A1.07,1.07,0,0,1,60.87,25.75Z"/></svg>