<svg id="Layer_1" data-name="Layer 1" xmlns="http://www.w3.org/2000/svg" viewBox="0 0 1288 1089"><defs><style>.cls-1{fill:#aef3e7;}.cls-2{fill:#ffa69e;}.cls-3,.cls-4{fill:#666;}.cls-4{font-size:32px;font-family:LuloCleanOne-Bold, Lulo Clean;font-weight:700;}.cls-5{letter-spacing:-0.01em;}.cls-6{letter-spacing:-0.12em;}.cls-7{letter-spacing:-0.01em;}.cls-8{font-size:56px;font-family:LuloCleanOne, Lulo Clean;}.cls-9{letter-spacing:-0.03em;}.cls-10{fill:none;stroke:#666;stroke-miterlimit:10;stroke-width:4px;}</style></defs><title>SVG-SWOT-QUAD</title><rect class="cls-1" x="145" y="275" width="495" height="633" rx="3.49" ry="3.49"/><rect class="cls-2" x="644" y="271" width="498" height="638" rx="2.67" ry="2.67"/><path class="cls-3" d="M1137.91,275a4.1,4.1,0,0,1,4.09,4.09V900.91a4.1,4.1,0,0,1-4.09,4.09H150.09a4.1,4.1,0,0,1-4.09-4.09V279.09a4.1,4.1,0,0,1,4.09-4.09h987.81m0-4H150.09a8.09,8.09,0,0,0-8.09,8.09V900.91a8.09,8.09,0,0,0,8.09,8.09h987.81a8.09,8.09,0,0,0,8.09-8.09V279.09a8.09,8.09,0,0,0-8.09-8.09Z"/><rect class="cls-3" x="640" y="271" width="4" height="638"/><rect class="cls-3" x="145" y="588" width="997" height="4"/><text class="cls-4" transform="translate(251.28 319.96)">Stren<tspan class="cls-5" x="155.45" y="0">g</tspan><tspan x="188.99" y="0">ths</tspan></text><text class="cls-4" transform="translate(231.7 638.96)">weaknesses</text><text class="cls-4" transform="translate(784.96 640.96)">thre<tspan class="cls-6" x="125.73" y="0">a</tspan><tspan x="155.77" y="0">ts</tspan></text><text class="cls-4" transform="translate(699.86 319.96)">oppo<tspan class="cls-7" x="131.9" y="0">r</tspan><tspan x="163.49" y="0">tunities</tspan></text><text class="cls-8" transform="translate(696.06 225.29)">Externa<tspan class="cls-9" x="373.18" y="0">l</tspan></text><text class="cls-8" transform="translate(189.89 224.29)">interna<tspan class="cls-9" x="359.52" y="0">l</tspan></text><g id="Icons"><path class="cls-10" d="M368.65,544.61l-76.23-76.45a12.88,12.88,0,0,1,18.21-18.21l58,59.73L501,377.33a12.88,12.88,0,1,1,18.21,18.21L368.65,544.61"/></g><path class="cls-3" d="M962,739.71c0,48.33-70.95,49.38-70.95,81.87v8.19H873.23V820c0-41.46,69-40.67,69-80,0-22.71-22-35.65-48.27-35.65-25.92,0-51.19,12.41-51.19,35.39v5.81H823.35v-6.87c0-31.43,35.64-49.65,70.95-49.65C930.9,689,962,708.54,962,739.71Zm-74.83,81.87c0-35.12,70.95-35.39,70.95-81.87,0-29.58-29.48-47.54-63.82-47.54-33.37,0-67.06,16.9-67.06,46.48v3.7H838.9v-2.64c0-24.82,27.21-38.56,55.07-38.56,28.51,0,52.16,14.52,52.16,38.82,0,41.2-69,40.93-69,80v6.6h10Zm13,40.08c0,7.66-7.45,13.73-16.85,13.73s-17.17-6.07-17.17-13.73,7.78-13.73,17.17-13.73S900.15,854,900.15,861.65Zm-3.89,0c0-5.55-6.16-10.56-13-10.56-7.13,0-13.28,4.75-13.28,10.56s6.16,10.56,13.28,10.56S896.26,867.46,896.26,861.65Z"/><g id="Icons-2" data-name="Icons"><path class="cls-10" d="M368.65,875.61l-76.23-76.45a12.88,12.88,0,0,1,18.21-18.21l58,59.73L501,708.33a12.88,12.88,0,1,1,18.21,18.21L368.65,875.61"/></g><path class="cls-3" d="M962,416.71c0,48.33-70.95,49.38-70.95,81.87v8.19H873.23V497c0-41.46,69-40.67,69-80,0-22.71-22-35.65-48.27-35.65-25.92,0-51.19,12.41-51.19,35.39v5.81H823.35v-6.87c0-31.43,35.64-49.65,70.95-49.65C930.9,366,962,385.54,962,416.71Zm-74.83,81.87c0-35.12,70.95-35.39,70.95-81.87,0-29.58-29.48-47.54-63.82-47.54-33.37,0-67.06,16.9-67.06,46.48v3.7H838.9v-2.64c0-24.82,27.21-38.56,55.07-38.56,28.51,0,52.16,14.52,52.16,38.82,0,41.2-69,40.93-69,80v6.6h10Zm13,40.08c0,7.66-7.45,13.73-16.85,13.73s-17.17-6.07-17.17-13.73,7.78-13.73,17.17-13.73S900.15,531,900.15,538.65Zm-3.89,0c0-5.55-6.16-10.56-13-10.56-7.13,0-13.28,4.75-13.28,10.56s6.16,10.56,13.28,10.56S896.26,544.46,896.26,538.65Z"/></svg>