<?xml version="1.0" encoding="utf-8"?>
<!-- Generator: Adobe Illustrator 26.0.3, SVG Export Plug-In . SVG Version: 6.00 Build 0)  -->
<svg version="1.1" id="Layer_1" xmlns="http://www.w3.org/2000/svg" xmlns:xlink="http://www.w3.org/1999/xlink" x="0px" y="0px"
	 viewBox="0 0 85.9 76.1" style="enable-background:new 0 0 85.9 76.1;" xml:space="preserve">
<style type="text/css">
	.st0{fill:#DFC0F2;}
	.st1{fill:#FFFFFF;}
</style>
<circle class="st0" cx="32.7" cy="38.3" r="32.7"/>
<path d="M57.3,30.4c-0.6-0.6-1.1-1.2-1.8-1.8c-8.4-7.4-21.2-6.6-28.6,1.8S20.3,51.5,28.7,59s21.2,6.6,28.6-1.8
	C64,49.5,64,38,57.3,30.4z M42.1,61.5c-9.8,0-17.7-7.9-17.7-17.7s7.9-17.7,17.7-17.7c4.3,0,8.4,1.5,11.6,4.4
	c0.6,0.6,1.2,1.1,1.7,1.7c6.4,7.4,5.7,18.6-1.7,25C50.6,60,46.4,61.5,42.1,61.5z"/>
<path d="M48.7,39c-0.5-0.7-1.1-1.3-1.8-1.8c-1.4-1-3.1-1.5-4.8-1.5c-4.5,0-8.1,3.6-8.1,8.1s3.6,8.1,8.1,8.1s8.1-3.6,8.1-8.1
	C50.2,42.1,49.7,40.4,48.7,39z M42.1,49.4c-3.1,0.1-5.7-2.3-5.8-5.4c-0.1-3.1,2.3-5.7,5.4-5.8c0.2,0,0.3,0,0.5,0
	c1.1,0,2.1,0.3,3,0.9c0.7,0.4,1.3,1,1.7,1.8c0.6,0.9,0.9,1.9,0.9,3C47.7,46.9,45.2,49.4,42.1,49.4z"/>
<path class="st1" d="M47.8,43.8c0,3.1-2.5,5.6-5.6,5.6s-5.6-2.5-5.6-5.6c0-3.1,2.5-5.6,5.6-5.6c0,0,0,0,0.1,0c1.1,0,2.1,0.3,3,0.9
	c0.7,0.4,1.3,1,1.7,1.8C47.4,41.7,47.7,42.7,47.8,43.8z"/>
<path d="M65.8,21.8c-0.6-0.6-1.1-1.2-1.8-1.8C51,7.9,30.5,8.7,18.4,21.8S7,55.4,20.1,67.5s33.6,11.4,45.7-1.8
	C77.3,53.4,77.3,34.2,65.8,21.8z M42.1,73.6c-16.5-0.3-29.6-13.9-29.3-30.4c0.3-16,13.2-29,29.3-29.3c7.5,0,14.7,2.8,20.2,7.9
	c0.6,0.6,1.2,1.1,1.7,1.8c11.2,12.1,10.4,30.9-1.6,42.1C56.9,70.8,49.6,73.7,42.1,73.6L42.1,73.6z"/>
<path d="M79,8.6L55.5,32.2L48.7,39l-1.8,1.8L43,44.7c-0.5,0.5-1.3,0.5-1.7,0c-0.5-0.5-0.5-1.3,0-1.8l26-26l0.3-0.3l0.1-0.1l5.2-5.2
	l0.2-0.2l0.2-0.2l2-2.1l2-2c0.5-0.5,1.3-0.5,1.8,0C79.5,7.3,79.5,8.1,79,8.6C79.1,8.6,79,8.6,79,8.6z"/>
<path d="M68.4,18.7c-0.7,0-1.2-0.6-1.2-1.2V6.8c0.1-0.7,0.7-1.2,1.3-1.1c0.6,0.1,1.1,0.5,1.1,1.1v10.6
	C69.7,18.1,69.2,18.7,68.4,18.7C68.5,18.7,68.5,18.7,68.4,18.7z"/>
<path d="M74.1,13.1c-0.7,0-1.2-0.6-1.2-1.2V1.2C72.8,0.6,73.4,0,74,0c0.7,0,1.2,0.5,1.2,1.2c0,0,0,0,0,0v10.6
	C75.3,12.5,74.8,13.1,74.1,13.1C74.1,13.1,74.1,13.1,74.1,13.1z"/>
<path d="M79.1,18.7H68.5c-0.7,0-1.2-0.5-1.2-1.2c0-0.7,0.5-1.2,1.2-1.2c0,0,0,0,0,0h10.6c0.7,0,1.2,0.5,1.2,1.2
	C80.4,18.1,79.8,18.7,79.1,18.7C79.1,18.7,79.1,18.7,79.1,18.7z"/>
<path d="M84.7,13.1H74.1c-0.7-0.1-1.2-0.7-1.1-1.3c0.1-0.6,0.5-1.1,1.1-1.1h10.6c0.7,0,1.2,0.6,1.2,1.2
	C85.9,12.5,85.4,13.1,84.7,13.1C84.7,13.1,84.7,13.1,84.7,13.1z"/>
</svg>
