<svg id="Layer_1" data-name="Layer 1" xmlns="http://www.w3.org/2000/svg" viewBox="0 0 78.58 74.28"><defs><style>.cls-1{fill:#c4cdf8;}.cls-2{fill:#fff;}</style></defs><circle class="cls-1" cx="43.43" cy="35.15" r="35.15"/><path d="M31.3,53.49V69.81a1,1,0,0,1-2.08,0V53.49a1,1,0,0,1,2.08,0Z"/><path d="M30.26,14.71a5.6,5.6,0,1,0,5.6,5.6A5.61,5.61,0,0,0,30.26,14.71Zm0,9.11a3.52,3.52,0,1,1,3.52-3.51A3.52,3.52,0,0,1,30.26,23.82Z"/><path class="cls-2" d="M33.78,20.31a3.52,3.52,0,1,1-3.52-3.52A3.51,3.51,0,0,1,33.78,20.31Z"/><path d="M15.38,74.28a4.13,4.13,0,0,1-3.12-1.41A4.17,4.17,0,0,1,5,70.12V53.41a3.38,3.38,0,0,1-1.1.3,3.61,3.61,0,0,1-2.72-.9A3.55,3.55,0,0,1,0,50.2V37.09a6,6,0,0,1,6-6H18.4a1,1,0,0,1,1,1.39,4.38,4.38,0,0,0-.26,1.47V48.17a1.67,1.67,0,0,0,.26.88,1,1,0,0,1,.16.55V70.12A4.17,4.17,0,0,1,15.38,74.28ZM13.3,70.12a2.09,2.09,0,0,0,4.17,0V49.89A3.75,3.75,0,0,1,17,48.17V33.94a5.11,5.11,0,0,1,.05-.78H6a3.93,3.93,0,0,0-3.93,3.93V50.2a1.45,1.45,0,0,0,.47,1.07,1.47,1.47,0,0,0,1.12.37A1.52,1.52,0,0,0,5,50.09v-9a1,1,0,1,1,2.08,0v29a2.09,2.09,0,0,0,4.17,0V55a1,1,0,0,1,2.08,0Z"/><path d="M12.26,19.3a5.24,5.24,0,1,0,5.23,5.24A5.25,5.25,0,0,0,12.26,19.3Zm0,8.4a3.16,3.16,0,1,1,3.15-3.16A3.17,3.17,0,0,1,12.26,27.7Z"/><path class="cls-2" d="M15.41,24.54a3.16,3.16,0,1,1-3.15-3.15A3.16,3.16,0,0,1,15.41,24.54Z"/><path d="M51.39,74.28a4.13,4.13,0,0,1-3.12-1.41A4.17,4.17,0,0,1,41,70.12v-20a1.1,1.1,0,0,1,0-.31,9.63,9.63,0,0,0,.39-1.61V33.94a4.38,4.38,0,0,0-.26-1.47,1,1,0,0,1,.13-.95,1,1,0,0,1,.85-.44H54.52a6,6,0,0,1,6,6V50.2a3.52,3.52,0,0,1-3.86,3.51,3.4,3.4,0,0,1-1.1-.31V70.12A4.17,4.17,0,0,1,51.39,74.28Zm-2.08-4.16a2.09,2.09,0,0,0,4.17,0v-20a.22.22,0,0,1,0-.08v-9a1,1,0,1,1,2.08,0V50s0,0,0,.07a1.52,1.52,0,0,0,1.29,1.54A1.47,1.47,0,0,0,58,51.27a1.45,1.45,0,0,0,.47-1.07V37.09a3.93,3.93,0,0,0-3.92-3.93H43.44a6.81,6.81,0,0,1,.05.78V48.17a9.71,9.71,0,0,1-.43,2.08V70.12a2.09,2.09,0,0,0,4.17,0V55a1,1,0,0,1,2.08,0Z"/><path d="M43.11,31.77a6.46,6.46,0,0,0-6.06-4.27H23.47a6.44,6.44,0,0,0-6,4.27A6.51,6.51,0,0,0,17,33.93V48.17a3.64,3.64,0,0,0,.59,2,3.69,3.69,0,0,0,3.51,1.73,3.43,3.43,0,0,0,1.3-.38v18.3a4.43,4.43,0,0,0,7.82,2.85,4.44,4.44,0,0,0,7.83-2.85V51.51a3.44,3.44,0,0,0,1.29.38,3.78,3.78,0,0,0,4.11-3.72V33.93A6.51,6.51,0,0,0,43.11,31.77Zm-1.7,16.4a1.57,1.57,0,0,1-.27.88,1.65,1.65,0,0,1-1.56.77,1.73,1.73,0,0,1-1.49-1.75h0a1,1,0,0,0-1-1,1,1,0,0,0-1,1V69.81a2.36,2.36,0,0,1-4.71,0,1,1,0,1,0-2.08,0,2.35,2.35,0,1,1-4.7,0V48.06a1,1,0,0,0-1.05-1,1,1,0,0,0-1,1,1.73,1.73,0,0,1-1.5,1.76,1.65,1.65,0,0,1-1.56-.77,1.67,1.67,0,0,1-.26-.88V33.93a4.38,4.38,0,0,1,4.35-4.35H37.05a4.28,4.28,0,0,1,2.5.8,4.36,4.36,0,0,1,1.86,3.55Z"/><path d="M48.27,19.3a5.24,5.24,0,1,0,5.23,5.24A5.25,5.25,0,0,0,48.27,19.3Zm0,8.4a3.16,3.16,0,1,1,3.15-3.16A3.17,3.17,0,0,1,48.27,27.7Z"/><path class="cls-2" d="M51.42,24.54a3.16,3.16,0,1,1-3.15-3.15A3.16,3.16,0,0,1,51.42,24.54Z"/><path d="M24.52,37v11.1a1,1,0,0,1-1.05,1,1,1,0,0,1-1-1V37a1,1,0,0,1,1-1.05A1,1,0,0,1,24.52,37Z"/><path d="M38.09,37V48.07a1,1,0,1,1-2.08,0V37a1,1,0,1,1,2.08,0Z"/></svg>