<svg xmlns="http://www.w3.org/2000/svg" width="93.915" height="20.589" viewBox="0 0 93.915 20.589">
  <g id="Group_29" data-name="Group 29" transform="translate(-763.977 -240.12)">
    <path id="Path_147" data-name="Path 147" d="M796.949,245.128h-4.132a.7.7,0,0,0-.688.688v.924a.441.441,0,0,0,.454.438h.688c.016,0,.047.016.047.031a.117.117,0,0,1,.016.079l-1.612,4.851a.086.086,0,0,1-.079.047c-.031,0-.062-.015-.062-.047l-2.41-6.573h0a.47.47,0,0,0-.392-.282h-1.455a.469.469,0,0,0-.391.282h0l-2.426,6.573c0,.032-.031.047-.063.047a.085.085,0,0,1-.078-.047l-1.612-4.851a.141.141,0,0,1,.016-.079c.015-.015.031-.031.047-.031h.688a.451.451,0,0,0,.454-.438v-.924a.694.694,0,0,0-.688-.688h-4.132a.516.516,0,0,0-.376.188.406.406,0,0,0-.062.375c.062.172.125.376.2.579s.141.407.2.579a.449.449,0,0,0,.422.313h.689a.08.08,0,0,1,.078.063l3.208,9.453a.452.452,0,0,0,.423.313h1a.46.46,0,0,0,.423-.282c.892-2.551,2.567-7.434,2.645-7.59a.1.1,0,0,1,.078-.063.08.08,0,0,1,.078.063c.063.172,1.753,5.039,2.645,7.606a.459.459,0,0,0,.423.3h1a.45.45,0,0,0,.422-.313l3.208-9.453c.032-.062.063-.062.079-.062h.688a.458.458,0,0,0,.423-.3c.062-.187.141-.391.2-.579s.141-.407.2-.579a.406.406,0,0,0-.063-.375.642.642,0,0,0-.438-.235Zm48.391,9.954h-.751a.234.234,0,0,1-.219-.22V245.55a.3.3,0,0,0-.3-.3h-2.206a.305.305,0,0,0-.235.11l-.908,1.142a.272.272,0,0,0-.062.188.322.322,0,0,0,.3.313h.282a.236.236,0,0,1,.219.219v7.622a.236.236,0,0,1-.063.172c-.235.313-.767.97-1.017,1.3a.329.329,0,0,0-.078.2.32.32,0,0,0,.3.313h3.834a.37.37,0,0,0,.219-.078l.893-1.127a.321.321,0,0,0-.2-.547Z" fill="#989898"/>
    <circle id="Ellipse_2" data-name="Ellipse 2" cx="1.643" cy="1.643" r="1.643" transform="translate(841.255 240.714)" fill="#989898"/>
    <path id="Path_148" data-name="Path 148" d="M857.391,246.223a.283.283,0,0,0-.3-.313h-.375v1h.141v-.376h.125l.25.376h.172l-.266-.376A.28.28,0,0,0,857.391,246.223Zm-.532.188v-.375h.25a.161.161,0,0,1,.157.172v.015a.174.174,0,0,1-.157.188h-.25Z" fill="#989898"/>
    <path id="Path_149" data-name="Path 149" d="M857.031,245.55a.861.861,0,1,0,.861.861A.869.869,0,0,0,857.031,245.55Zm0,1.6h0a.735.735,0,0,1-.736-.736h0V246.4a.728.728,0,0,1,.72-.72h.016a.734.734,0,0,1,.735.735A.745.745,0,0,1,857.031,247.147Zm-49.3,7.981c-.642.032-.955-.266-.955-1V248.9a3.838,3.838,0,0,0-4.069-3.741c-3.349,0-4.554,1.6-4.7,3.365a.315.315,0,0,0,.3.329h1.658a.306.306,0,0,0,.3-.282,1.806,1.806,0,0,1,3.6.3v1.143h-.594a8.454,8.454,0,0,0-4.429.861,3.375,3.375,0,0,0-1.44,2.989,3.116,3.116,0,0,0,.986,2.363,3.282,3.282,0,0,0,2.426.892,4.208,4.208,0,0,0,1.737-.391,5.277,5.277,0,0,0,1.455-.939.224.224,0,0,1,.313.015c.016.016.032.032.032.047a1.911,1.911,0,0,0,1.956,1.1c.876,0,1.3-.83,1.69-1.315A.323.323,0,0,0,807.732,255.128Zm-3.85-.829h0c-.016.078-.125.172-.172.219a3.994,3.994,0,0,1-.876.564,2.013,2.013,0,0,1-.908.172,1.627,1.627,0,0,1-1.205-.5,1.737,1.737,0,0,1-.454-1.221,1.585,1.585,0,0,1,.767-1.471,4.427,4.427,0,0,1,2.363-.5h.5Zm35.276.829c-.642.032-.955-.266-.955-1V248.9a3.838,3.838,0,0,0-4.069-3.741c-3.349,0-4.554,1.6-4.695,3.365a.315.315,0,0,0,.3.329H831.4a.306.306,0,0,0,.3-.282,1.806,1.806,0,0,1,3.6.3v1.143H834.7a8.454,8.454,0,0,0-4.429.861,3.375,3.375,0,0,0-1.44,2.989,3.12,3.12,0,0,0,.986,2.363,3.281,3.281,0,0,0,2.426.892,4.208,4.208,0,0,0,1.737-.391,5.277,5.277,0,0,0,1.455-.939.224.224,0,0,1,.313.015c.016.016.032.032.032.047a1.911,1.911,0,0,0,1.956,1.1c.876,0,1.3-.83,1.69-1.315a.334.334,0,0,0-.266-.5Zm-3.866-.829h0c-.015.078-.125.172-.172.219a3.992,3.992,0,0,1-.876.564,2.013,2.013,0,0,1-.908.172,1.627,1.627,0,0,1-1.205-.5,1.746,1.746,0,0,1-.454-1.221,1.587,1.587,0,0,1,.767-1.471,4.429,4.429,0,0,1,2.363-.5h.5V254.3Zm19.438-9.077a2.443,2.443,0,0,0-.86-.125,3.384,3.384,0,0,0-1.331.234l-.031.016a2,2,0,0,0-.391.235,5.41,5.41,0,0,0-1.237,1.064c-.36.423-.156.125-.188-.078v-1.033a.324.324,0,0,0-.313-.313h-2.206a.275.275,0,0,0-.219.109c-.063.063-.689.861-.924,1.158a.309.309,0,0,0,.235.5h.282a.214.214,0,0,1,.219.219v7.653a.32.32,0,0,1-.047.173c-.219.266-.767.954-1.033,1.3a.272.272,0,0,0-.063.187.321.321,0,0,0,.3.313h4.742a.313.313,0,0,0,.313-.313v-1.142a.314.314,0,0,0-.313-.313h-.751a.214.214,0,0,1-.22-.219v-4.461a2.879,2.879,0,0,1,1.957-2.958l.094-.031h.031a1.83,1.83,0,0,1,.5-.062,4.479,4.479,0,0,1,1.377.2c.157.047.313-.141.313-.313v-1.737a.4.4,0,0,0-.235-.266Zm-25.823.031h-3.443a.214.214,0,0,1-.219-.219v-1.706c0-.829.422-1.643,1.3-1.643,1,0,1.158.845,1.189,1.471a.333.333,0,0,0,.3.3h1.424a.3.3,0,0,0,.282-.3c-.032-2.129-1.378-3.036-3.553-3.036a3.338,3.338,0,0,0-2.833,1.205,4.62,4.62,0,0,0-.986,3.271v.422a.234.234,0,0,1-.219.219l-5.869.016h-.015a.3.3,0,0,0-.3.3v1.159a.314.314,0,0,0,.313.313h.626a.213.213,0,0,1,.219.219.122.122,0,0,1-.015.078c-.016.031-1.612,3.756-2.27,5.274a.209.209,0,0,1-.2.125.227.227,0,0,1-.2-.125c-.672-1.518-2.3-5.274-2.3-5.274a.138.138,0,0,1-.016-.078.213.213,0,0,1,.219-.219h.439a.314.314,0,0,0,.313-.313V245.55a.3.3,0,0,0-.3-.3h-5.321a.325.325,0,0,0-.313.313.476.476,0,0,0,.031.141c.157.282.517.955.611,1.158a.3.3,0,0,0,.25.157h1.017a.244.244,0,0,1,.2.125c.031.078,3.772,8.482,3.912,8.78a1.679,1.679,0,0,1,0,1.173c-.172.689-1.33,1.941-1.972,1.706-.438-.156-.5-.954-1.032-1.048a.562.562,0,0,0-.282.031c-.094.031-.955,1.143-1.143,1.33a.329.329,0,0,0,0,.407,3.5,3.5,0,0,0,2.395,1.174c1.393.063,2.786-.125,4.053-2.567,0,0,4.069-9.938,4.555-11.018a.212.212,0,0,1,.2-.109H822.1a.214.214,0,0,1,.219.219v7.637a.236.236,0,0,1-.062.173c-.251.328-.767.97-1.018,1.3a.271.271,0,0,0-.062.187.3.3,0,0,0,.3.3h4.8a.314.314,0,0,0,.313-.313v-1.143a.314.314,0,0,0-.313-.313h-.783a.236.236,0,0,1-.219-.219v-7.637a.234.234,0,0,1,.219-.219h2.536a.3.3,0,0,0,.234-.11c.22-.282.658-.845.877-1.158a.272.272,0,0,0,.062-.188.3.3,0,0,0-.3-.266Z" fill="#989898"/>
    <path id="Path_150" data-name="Path 150" d="M777.1,248.931l-.829-3.13a.311.311,0,0,0-.219-.219l-3.13-.83a.262.262,0,0,0-.282.079l-2.082,2.112,4.382,4.382,2.1-2.1a.33.33,0,0,0,.062-.3Z" fill="#989898"/>
    <path id="Path_151" data-name="Path 151" d="M764.005,253.7l.829,3.13a.311.311,0,0,0,.219.219l3.131.83a.263.263,0,0,0,.281-.078l2.1-2.1-4.382-4.383-2.1,2.1A.28.28,0,0,0,764.005,253.7Z" fill="#989898"/>
    <path id="Path_152" data-name="Path 152" d="M768.168,244.768l-3.13.829a.311.311,0,0,0-.219.219l-.83,3.131a.263.263,0,0,0,.078.281l2.113,2.1,4.382-4.382-2.1-2.1A.3.3,0,0,0,768.168,244.768Z" fill="#989898"/>
    <path id="Path_153" data-name="Path 153" d="M777.01,253.391l-2.066-2.066-4.382,4.383,2.066,2.065a.38.38,0,0,0,.36.094l3.036-.814a.376.376,0,0,0,.266-.266l.814-3.036a.38.38,0,0,0-.094-.36Z" fill="#989898"/>
    <path id="Path_154" data-name="Path 154" d="M777.1,248.931l-.829-3.13a.311.311,0,0,0-.219-.219l-3.13-.83a.262.262,0,0,0-.282.079l-2.082,2.112,4.382,4.382,2.1-2.1a.33.33,0,0,0,.062-.3Z" fill="#989898"/>
    <path id="Path_155" data-name="Path 155" d="M764.005,253.7l.829,3.13a.311.311,0,0,0,.219.219l3.131.83a.263.263,0,0,0,.281-.078l2.1-2.1-4.382-4.383-2.1,2.1A.28.28,0,0,0,764.005,253.7Z" fill="#989898"/>
    <path id="Path_156" data-name="Path 156" d="M768.168,244.768l-3.13.829a.311.311,0,0,0-.219.219l-.83,3.131a.263.263,0,0,0,.078.281l2.113,2.1,4.382-4.382-2.1-2.1A.3.3,0,0,0,768.168,244.768Z" fill="#989898"/>
    <path id="Path_157" data-name="Path 157" d="M777.01,253.391l-2.066-2.066-4.382,4.383,2.066,2.065a.38.38,0,0,0,.36.094l3.036-.814a.376.376,0,0,0,.266-.266l.814-3.036a.38.38,0,0,0-.094-.36Z" fill="#989898"/>
  </g>
</svg>
