<svg xmlns="http://www.w3.org/2000/svg" width="88" height="13.001" viewBox="0 0 88 13.001">
  <g id="Group_16" data-name="Group 16" transform="translate(-584.349 -447.697)">
    <path id="Path_84" data-name="Path 84" d="M622.494,447.7h1.855l-5.263,13h-.451l-4.261-10.529L610.063,460.7h-.4l-5.313-13h1.9l3.609,8.9,3.659-8.9h1.754l3.659,8.9Z" fill="#989898" fill-rule="evenodd"/>
    <rect id="Rectangle_3" data-name="Rectangle 3" width="2" height="13" transform="translate(626.349 447.698)" fill="#989898"/>
    <path id="Path_85" data-name="Path 85" d="M635.511,455.16,634,454.342a6.247,6.247,0,0,1-2.052-1.54,3.087,3.087,0,0,1-.594-1.78,2.826,2.826,0,0,1,1.188-2.406,4.589,4.589,0,0,1,2.97-.914,6.368,6.368,0,0,1,3.239.866v2.069a4.813,4.813,0,0,0-3.293-1.3,3.109,3.109,0,0,0-1.62.433,1.294,1.294,0,0,0-.648,1.059,1.412,1.412,0,0,0,.486,1.058,5.424,5.424,0,0,0,1.512,1.059l1.565.818c1.728.914,2.592,2.069,2.592,3.512a3,3,0,0,1-1.134,2.454,4.367,4.367,0,0,1-2.969.962,6.709,6.709,0,0,1-3.834-1.155v-2.309a4.789,4.789,0,0,0,3.78,1.828,2.485,2.485,0,0,0,1.565-.481,1.535,1.535,0,0,0,.648-1.155C637.4,456.6,636.806,455.882,635.511,455.16Z" fill="#989898" fill-rule="evenodd"/>
    <path id="Path_86" data-name="Path 86" d="M641.349,447.7h11v1.637h-4.571V460.7h-1.909V449.335h-4.521Z" fill="#989898" fill-rule="evenodd"/>
    <rect id="Rectangle_4" data-name="Rectangle 4" width="2" height="13" transform="translate(655.349 447.698)" fill="#989898"/>
    <path id="Path_87" data-name="Path 87" d="M667.862,455.211l-2.141-4.7-1.988,4.7Zm-2.8-7.513h1.326l5.965,13h-1.938l-1.784-3.856h-5.71l-1.682,3.856h-1.886Z" fill="#989898" fill-rule="evenodd"/>
    <path id="Path_88" data-name="Path 88" d="M601.327,452.7a7.221,7.221,0,0,1-2.339,1.981,13.337,13.337,0,0,1-4.829,1.288c-1.22.1-3.4,0-4.371,0a2.6,2.6,0,0,0-2.288,1.139l-3.151,3.517h1.931c.814,0,6,.3,8.337-.3C602.089,458.3,601.327,452.7,601.327,452.7Z" fill="#989898" fill-rule="evenodd"/>
    <path id="Path_89" data-name="Path 89" d="M601.285,450.474c.359-2.171-.921-2.776-.921-2.776s.051,1.767-3.223,2.171c-2.968.353-12.792.05-12.792.05l3.172,3.584a2.841,2.841,0,0,0,2.251,1.162,44.635,44.635,0,0,0,4.5-.051,10.282,10.282,0,0,0,5.322-1.767A3.983,3.983,0,0,0,601.285,450.474Z" fill="#989898" fill-rule="evenodd"/>
  </g>
</svg>
