<svg xmlns="http://www.w3.org/2000/svg" width="93.003" height="17" viewBox="0 0 93.003 17">
  <g id="Group_13" data-name="Group 13" transform="translate(-373.129 -87.086)">
    <path id="Path_73" data-name="Path 73" d="M392.082,101.753a5.218,5.218,0,0,0,3.505-1.234l1.737,1.7a7.223,7.223,0,0,1-5.212,1.862c-4.243,0-6.982-2.545-6.982-6-.071-3.247,2.779-5.932,6.364-6h.233c4.21,0,6.6,2.9,6.39,6.928h-9.954a3.539,3.539,0,0,0,3.916,2.737Zm3.033-4.654a3.085,3.085,0,0,0-3.359-2.71,3.344,3.344,0,0,0-3.592,2.71Z" fill="#989898" fill-rule="evenodd"/>
    <path id="Path_74" data-name="Path 74" d="M413.135,98.112a5.936,5.936,0,0,1,5.938-5.968c.1,0,.191,0,.287,0a5.557,5.557,0,0,1,4.132,1.724V87.086h2.638v16.772h-2.638V102.27a5.468,5.468,0,0,1-4.158,1.816,6.026,6.026,0,0,1-6.2-5.834l0-.138m10.506-.026a3.821,3.821,0,0,0-4.044-3.549,3.664,3.664,0,1,0,4.047,3.675c0-.042,0-.084,0-.126" fill="#989898" fill-rule="evenodd"/>
    <path id="Path_75" data-name="Path 75" d="M442.131,101.4l2.507-1.149a3.843,3.843,0,0,0,3.344,1.678c1.564,0,2.378-.713,2.378-1.515,0-.921-1.515-1.128-3.163-1.427-2.221-.414-4.52-1.057-4.52-3.423,0-1.816,1.96-3.494,5.044-3.47a6.26,6.26,0,0,1,5.25,2.227l-2.326,1.128a3.518,3.518,0,0,0-2.923-1.311c-1.489,0-2.247.644-2.247,1.381,0,.826,1.2,1.057,3.082,1.423,2.144.414,4.573,1.033,4.573,3.426,0,1.586-1.564,3.725-5.28,3.7a6.357,6.357,0,0,1-5.72-2.664" fill="#989898" fill-rule="evenodd"/>
    <path id="Path_76" data-name="Path 76" d="M459.627,98.217l-1.987,2.017v2.854h-2.508v-16h2.508V97.567l5.323-5.436h3.052l-4.615,4.69,4.732,6.267h-2.839Z" fill="#989898" fill-rule="evenodd"/>
    <path id="Path_77" data-name="Path 77" d="M435.081,101.753a5.224,5.224,0,0,0,3.505-1.234l1.739,1.7a7.237,7.237,0,0,1-5.213,1.862c-4.241,0-6.981-2.545-6.981-6-.071-3.247,2.778-5.932,6.363-6h.233c4.209,0,6.6,2.9,6.391,6.928h-9.953a3.538,3.538,0,0,0,3.916,2.738Zm3.033-4.654a3.085,3.085,0,0,0-3.357-2.71,3.345,3.345,0,0,0-3.592,2.71Z" fill="#989898" fill-rule="evenodd"/>
    <path id="Path_78" data-name="Path 78" d="M405.63,92.089c-2.994,0-5.5,1.767-5.5,4.7v6.3h2.563v-6a2.629,2.629,0,0,1,2.487-2.823,3.024,3.024,0,0,1,.53-.007,2.56,2.56,0,0,1,2.853,2.83v6.006h2.567v-6.3c0-2.933-2.51-4.7-5.5-4.7" fill="#989898" fill-rule="evenodd"/>
    <path id="Path_79" data-name="Path 79" d="M373.129,101.733l7.448-7.344H373.3v-2.3h10.729v2.351l-7.451,7.347h7.549v2.3h-11Z" fill="#989898" fill-rule="evenodd"/>
  </g>
</svg>
