<svg xmlns="http://www.w3.org/2000/svg" width="111.856" height="19.014" viewBox="0 0 111.856 19.014">
  <g id="Group_20" data-name="Group 20" transform="translate(-485.302 -87.016)">
    <g id="Group_18" data-name="Group 18">
      <path id="Path_92" data-name="Path 92" d="M514.755,102.192v-1.9l7.065-6.655h-4.959v1.3h-1.995V91.809h9.619v1.9l-7.009,6.618H522.6V98.986H524.6v3.188h-9.843Z" fill="#989898"/>
      <path id="Path_93" data-name="Path 93" d="M535.763,94.885a5.345,5.345,0,0,0-2.87-2.871,5.5,5.5,0,0,0-4.213,0,5.288,5.288,0,0,0-2.871,2.871,5.5,5.5,0,0,0,0,4.213,5.35,5.35,0,0,0,2.871,2.871,5.136,5.136,0,0,0,2.106.429,4.864,4.864,0,0,0,2.107-.429,5.283,5.283,0,0,0,2.87-2.871A5.493,5.493,0,0,0,535.763,94.885Zm-1.957,3.43a3.448,3.448,0,0,1-.69,1.081,3.156,3.156,0,0,1-2.33,1.007,3.065,3.065,0,0,1-1.286-.28,3.293,3.293,0,0,1-1.734-1.808,3.612,3.612,0,0,1,0-2.647A3.361,3.361,0,0,1,529.5,93.86a3.2,3.2,0,0,1,2.554,0,3.118,3.118,0,0,1,1.044.727,3.757,3.757,0,0,1,.708,1.081A3.6,3.6,0,0,1,533.806,98.315Z" fill="#989898"/>
      <path id="Path_94" data-name="Path 94" d="M547.377,94.885a5.35,5.35,0,0,0-2.871-2.871,5.454,5.454,0,0,0-4.194,0,5.289,5.289,0,0,0-2.871,2.871,5.5,5.5,0,0,0,0,4.213,5.35,5.35,0,0,0,2.871,2.871,5.464,5.464,0,0,0,2.106.429,4.726,4.726,0,0,0,2.088-.429,5.289,5.289,0,0,0,2.871-2.871A5.5,5.5,0,0,0,547.377,94.885Zm-1.939,3.43a3.446,3.446,0,0,1-.69,1.081,3.156,3.156,0,0,1-2.33,1.007,3.217,3.217,0,0,1-2.33-1.007,3.463,3.463,0,0,1-.69-1.081,3.611,3.611,0,0,1,0-2.647,3.361,3.361,0,0,1,1.734-1.808,3.2,3.2,0,0,1,2.554,0,3.107,3.107,0,0,1,1.044.727,3.755,3.755,0,0,1,.708,1.081A3.6,3.6,0,0,1,545.438,98.315Z" fill="#989898"/>
      <path id="Path_95" data-name="Path 95" d="M549.036,91.809h2.05V93a3.4,3.4,0,0,1,1.212-1.025,3.739,3.739,0,0,1,1.734-.373,3.863,3.863,0,0,1,2.069.485,3.055,3.055,0,0,1,1.23,1.342,3.712,3.712,0,0,1,1.361-1.323,3.991,3.991,0,0,1,2.013-.5,5.2,5.2,0,0,1,1.846.3,3.3,3.3,0,0,1,1.3.876,3.734,3.734,0,0,1,.764,1.379,5.943,5.943,0,0,1,.242,1.808v6.208h-2.143v-6.1a3.107,3.107,0,0,0-.56-1.938,2.114,2.114,0,0,0-1.789-.728,2.3,2.3,0,0,0-1.771.709,3.045,3.045,0,0,0-.671,2.144v5.909H555.84V95.929a2.914,2.914,0,0,0-.541-1.864,2.128,2.128,0,0,0-1.733-.671,2.253,2.253,0,0,0-1.808.746,3.093,3.093,0,0,0-.653,2.218v5.816h-2.069V91.809Z" fill="#989898"/>
      <path id="Path_96" data-name="Path 96" d="M566.559,87.634a1.463,1.463,0,0,1,1.044-.429,1.337,1.337,0,0,1,1.062.429,1.582,1.582,0,0,1,0,2.125,1.439,1.439,0,0,1-1.062.429,1.306,1.306,0,0,1-1.044-.429,1.578,1.578,0,0,1-.411-1.063,1.541,1.541,0,0,1,.411-1.062Z" fill="#989898"/>
      <rect id="Rectangle_5" data-name="Rectangle 5" width="2.088" height="10.383" transform="translate(566.577 91.809)" fill="#989898"/>
      <path id="Path_97" data-name="Path 97" d="M570.473,91.809h2.032v1.436a3.937,3.937,0,0,1,3.3-1.659,4.73,4.73,0,0,1,1.771.317,3.666,3.666,0,0,1,1.342.913,3.989,3.989,0,0,1,.839,1.435,6.057,6.057,0,0,1,.3,1.9v6.039h-2.107V96.321a3.19,3.19,0,0,0-.671-2.126,2.45,2.45,0,0,0-1.976-.782,3.185,3.185,0,0,0-1.1.2,2.368,2.368,0,0,0-.876.6,2.589,2.589,0,0,0-.578.969,3.31,3.31,0,0,0-.205,1.268v5.723h-2.069Z" fill="#989898"/>
      <path id="Path_98" data-name="Path 98" d="M580.334,91.809h1.809v-.6a8.2,8.2,0,0,1,.205-2.013,2.851,2.851,0,0,1,.671-1.287,2.727,2.727,0,0,1,1.267-.689,8.117,8.117,0,0,1,2.014-.205h.5v1.92h-.354a8.355,8.355,0,0,0-1.193.074,1.2,1.2,0,0,0-.69.336,1.153,1.153,0,0,0-.3.689,8.274,8.274,0,0,0-.075,1.175v.578h2.442v1.864h-2.442v8.519h-2.032V93.655h-1.808V91.809Z" fill="#989898"/>
      <path id="Path_99" data-name="Path 99" d="M596.739,94.885a5.35,5.35,0,0,0-2.871-2.871,5.5,5.5,0,0,0-4.213,0,5.313,5.313,0,0,0-2.852,2.871,5.55,5.55,0,0,0,0,4.232,5.308,5.308,0,0,0,2.852,2.87,5.057,5.057,0,0,0,2.106.429,5.451,5.451,0,0,0,2.107-.429,5.345,5.345,0,0,0,2.871-2.87A5.55,5.55,0,0,0,596.739,94.885Zm-1.9,3.467a3.591,3.591,0,0,1-.708,1.1,3.228,3.228,0,0,1-1.063.746,3.461,3.461,0,0,1-1.3.261,3.144,3.144,0,0,1-1.3-.261,3.314,3.314,0,0,1-1.063-.746,3.257,3.257,0,0,1-.708-1.1,3.75,3.75,0,0,1,0-2.7,3.581,3.581,0,0,1,.708-1.1,3.228,3.228,0,0,1,1.063-.746,3.337,3.337,0,0,1,2.609,0,3.517,3.517,0,0,1,1.063.746A3.6,3.6,0,0,1,594.837,98.352Z" fill="#989898"/>
    </g>
    <g id="Group_19" data-name="Group 19">
      <path id="Path_100" data-name="Path 100" d="M504.073,87.034a.335.335,0,0,1,.336.336v4.511a.334.334,0,0,1-.336.336H502.75a.334.334,0,0,1-.336-.336V90.5l-14.13,13.533h2.908a.334.334,0,0,1,.336.336v1.323a.334.334,0,0,1-.336.336h-5.536a.335.335,0,0,1-.336-.336v-1.659l15.659-15.006h-1.585a.334.334,0,0,1-.335-.336V87.37a.335.335,0,0,1,.335-.336Z" fill="#989898"/>
      <path id="Path_101" data-name="Path 101" d="M487.3,91.918a.334.334,0,0,1-.335.336h-1.324a.334.334,0,0,1-.335-.336V87.351a.334.334,0,0,1,.335-.335h10.57a.334.334,0,0,1,.335.335v1.287a.334.334,0,0,1-.335.335H487.3Z" fill="#989898"/>
      <path id="Path_102" data-name="Path 102" d="M502.414,100.978a.335.335,0,0,1,.336-.336h1.323a.335.335,0,0,1,.336.336v4.7a.334.334,0,0,1-.336.335h-9.73a.334.334,0,0,1-.336-.335v-1.324a.334.334,0,0,1,.336-.335H502.4v-3.039Z" fill="#989898"/>
    </g>
  </g>
</svg>
